<svg width="48" height="53" viewBox="0 0 48 53" fill="none" xmlns="http://www.w3.org/2000/svg">
<path d="M24 41.9163C24.7319 41.9163 25.3455 41.6688 25.8406 41.1736C26.3358 40.6785 26.5833 40.065 26.5833 39.333C26.5833 38.6011 26.3358 37.9875 25.8406 37.4924C25.3455 36.9972 24.7319 36.7497 24 36.7497C23.2681 36.7497 22.6545 36.9972 22.1594 37.4924C21.6642 37.9875 21.4167 38.6011 21.4167 39.333C21.4167 40.065 21.6642 40.6785 22.1594 41.1736C22.6545 41.6688 23.2681 41.9163 24 41.9163ZM21.4167 31.583H26.5833V16.083H21.4167V31.583ZM5.91667 52.2497C4.49583 52.2497 3.27951 51.7438 2.26771 50.732C1.2559 49.7202 0.75 48.5038 0.75 47.083V10.9163C0.75 9.49551 1.2559 8.27919 2.26771 7.26738C3.27951 6.25558 4.49583 5.74967 5.91667 5.74967H16.7667C17.3264 4.19967 18.2628 2.95106 19.576 2.00384C20.8892 1.05662 22.3639 0.583008 24 0.583008C25.6361 0.583008 27.1108 1.05662 28.424 2.00384C29.7372 2.95106 30.6736 4.19967 31.2333 5.74967H42.0833C43.5042 5.74967 44.7205 6.25558 45.7323 7.26738C46.7441 8.27919 47.25 9.49551 47.25 10.9163V47.083C47.25 48.5038 46.7441 49.7202 45.7323 50.732C44.7205 51.7438 43.5042 52.2497 42.0833 52.2497H5.91667ZM5.91667 47.083H42.0833V10.9163H5.91667V47.083ZM24 8.97884C24.5597 8.97884 25.0226 8.79585 25.3885 8.42988C25.7545 8.06391 25.9375 7.60106 25.9375 7.04134C25.9375 6.48162 25.7545 6.01877 25.3885 5.6528C25.0226 5.28683 24.5597 5.10384 24 5.10384C23.4403 5.10384 22.9774 5.28683 22.6115 5.6528C22.2455 6.01877 22.0625 6.48162 22.0625 7.04134C22.0625 7.60106 22.2455 8.06391 22.6115 8.42988C22.9774 8.79585 23.4403 8.97884 24 8.97884Z" fill="#FF0000"/>
</svg>
