<svg width="62" height="62" viewBox="0 0 62 62" fill="none" xmlns="http://www.w3.org/2000/svg">
<path d="M31.0001 56.8327C27.4265 56.8327 24.0681 56.1546 20.9251 54.7983C17.782 53.4421 15.048 51.6014 12.723 49.2764C10.398 46.9514 8.55737 44.2174 7.20112 41.0743C5.84487 37.9313 5.16675 34.573 5.16675 30.9993C5.16675 27.4257 5.84487 24.0674 7.20112 20.9243C8.55737 17.7813 10.398 15.0473 12.723 12.7223C15.048 10.3973 17.782 8.55664 20.9251 7.20039C24.0681 5.84414 27.4265 5.16602 31.0001 5.16602C34.789 5.16602 38.3733 5.94102 41.7532 7.49102C45.1331 9.04102 48.0501 11.2368 50.5042 14.0785L31.0001 33.5827V10.3327C25.2306 10.3327 20.3438 12.3348 16.3397 16.3389C12.3355 20.3431 10.3334 25.2299 10.3334 30.9993C10.3334 36.7688 12.3355 41.6556 16.3397 45.6598C20.3438 49.6639 25.2306 51.666 31.0001 51.666C33.9709 51.666 36.8126 51.0525 39.5251 49.8254C42.2376 48.5983 44.5626 46.8438 46.5001 44.5618V51.666C44.2181 53.3021 41.764 54.5723 39.1376 55.4764C36.5112 56.3806 33.7987 56.8327 31.0001 56.8327ZM51.6667 46.4993V25.8327H56.8334V46.4993H51.6667ZM54.2501 56.8327C53.5181 56.8327 52.9046 56.5851 52.4095 56.09C51.9143 55.5948 51.6667 54.9813 51.6667 54.2493C51.6667 53.5174 51.9143 52.9039 52.4095 52.4087C52.9046 51.9136 53.5181 51.666 54.2501 51.666C54.982 51.666 55.5956 51.9136 56.0907 52.4087C56.5858 52.9039 56.8334 53.5174 56.8334 54.2493C56.8334 54.9813 56.5858 55.5948 56.0907 56.09C55.5956 56.5851 54.982 56.8327 54.2501 56.8327Z" fill="#FF0000"/>
</svg>
