<svg width="32" height="32" viewBox="0 0 32 32" fill="none" xmlns="http://www.w3.org/2000/svg">
<path d="M12.8 20.7987L14.6667 18.8654L11.8 15.9987L14.6667 13.132L12.8 11.1987L8 15.9987L12.8 20.7987ZM19.2 20.7987L24 15.9987L19.2 11.1987L17.3333 13.132L20.2 15.9987L17.3333 18.8654L19.2 20.7987ZM6.66667 27.9987C5.93333 27.9987 5.30556 27.7376 4.78333 27.2154C4.26111 26.6931 4 26.0654 4 25.332V6.66536C4 5.93203 4.26111 5.30425 4.78333 4.78203C5.30556 4.25981 5.93333 3.9987 6.66667 3.9987H12.2667C12.5556 3.1987 13.0389 2.55425 13.7167 2.06536C14.3944 1.57648 15.1556 1.33203 16 1.33203C16.8444 1.33203 17.6056 1.57648 18.2833 2.06536C18.9611 2.55425 19.4444 3.1987 19.7333 3.9987H25.3333C26.0667 3.9987 26.6944 4.25981 27.2167 4.78203C27.7389 5.30425 28 5.93203 28 6.66536V25.332C28 26.0654 27.7389 26.6931 27.2167 27.2154C26.6944 27.7376 26.0667 27.9987 25.3333 27.9987H6.66667ZM6.66667 25.332H25.3333V6.66536H6.66667V25.332ZM16 5.66536C16.2889 5.66536 16.5278 5.57092 16.7167 5.38203C16.9056 5.19314 17 4.95425 17 4.66536C17 4.37648 16.9056 4.13759 16.7167 3.9487C16.5278 3.75981 16.2889 3.66536 16 3.66536C15.7111 3.66536 15.4722 3.75981 15.2833 3.9487C15.0944 4.13759 15 4.37648 15 4.66536C15 4.95425 15.0944 5.19314 15.2833 5.38203C15.4722 5.57092 15.7111 5.66536 16 5.66536Z" fill="#218448"/>
</svg>
