<svg width="32" height="32" viewBox="0 0 32 32" fill="none" xmlns="http://www.w3.org/2000/svg">
<path d="M13.3332 26.6673H18.6665V25.334H13.3332V26.6673ZM9.33317 30.6673C8.59984 30.6673 7.97206 30.4062 7.44984 29.884C6.92761 29.3618 6.6665 28.734 6.6665 28.0007V4.00065C6.6665 3.26732 6.92761 2.63954 7.44984 2.11732C7.97206 1.5951 8.59984 1.33398 9.33317 1.33398H22.6665C23.3998 1.33398 24.0276 1.5951 24.5498 2.11732C25.0721 2.63954 25.3332 3.26732 25.3332 4.00065V28.0007C25.3332 28.734 25.0721 29.3618 24.5498 29.884C24.0276 30.4062 23.3998 30.6673 22.6665 30.6673H9.33317ZM9.33317 24.0007V28.0007H22.6665V24.0007H9.33317ZM9.33317 21.334H22.6665V8.00065H9.33317V21.334ZM9.33317 5.33398H22.6665V4.00065H9.33317V5.33398Z" fill="#218448"/>
</svg>
