<svg width="32" height="32" viewBox="0 0 32 32" fill="none" xmlns="http://www.w3.org/2000/svg">
<path d="M9.33319 26.667V11.967C9.33319 11.2337 9.59985 10.6115 10.1332 10.1003C10.6665 9.58923 11.2999 9.33368 12.0332 9.33368H26.6665C27.3999 9.33368 28.0276 9.59479 28.5499 10.117C29.0721 10.6392 29.3332 11.267 29.3332 12.0003V22.667L22.6665 29.3337H11.9999C11.2665 29.3337 10.6387 29.0726 10.1165 28.5503C9.5943 28.0281 9.33319 27.4003 9.33319 26.667ZM2.69986 8.33368C2.56652 7.60034 2.71097 6.93923 3.13319 6.35034C3.55541 5.76145 4.13319 5.40034 4.86652 5.26701L19.3332 2.70034C20.0665 2.56701 20.7276 2.71145 21.3165 3.13368C21.9054 3.5559 22.2665 4.13368 22.3999 4.86701L22.7332 6.66701H19.9999L19.7665 5.33368L5.33319 7.90034L6.66652 15.4337V24.7337C6.31097 24.5337 6.00541 24.267 5.74986 23.9337C5.4943 23.6003 5.33319 23.2226 5.26652 22.8003L2.69986 8.33368ZM11.9999 12.0003V26.667H21.3332V21.3337H26.6665V12.0003H11.9999Z" fill="#218448"/>
</svg>
