<svg width="32" height="32" viewBox="0 0 32 32" fill="none" xmlns="http://www.w3.org/2000/svg">
<path d="M6.6665 29.3337C5.55539 29.3337 4.61095 28.9448 3.83317 28.167C3.05539 27.3892 2.6665 26.4448 2.6665 25.3337C2.6665 24.467 2.9165 23.6948 3.4165 23.017C3.9165 22.3392 4.55539 21.8559 5.33317 21.567V10.4337C4.55539 10.1448 3.9165 9.66144 3.4165 8.98366C2.9165 8.30588 2.6665 7.53366 2.6665 6.66699C2.6665 5.55588 3.05539 4.61144 3.83317 3.83366C4.61095 3.05588 5.55539 2.66699 6.6665 2.66699C7.53317 2.66699 8.30539 2.91699 8.98317 3.41699C9.66095 3.91699 10.1443 4.55588 10.4332 5.33366H21.5665C21.8332 4.55588 22.3054 3.91699 22.9832 3.41699C23.6609 2.91699 24.4443 2.66699 25.3332 2.66699C26.4443 2.66699 27.3887 3.05588 28.1665 3.83366C28.9443 4.61144 29.3332 5.55588 29.3332 6.66699C29.3332 7.55588 29.0832 8.33921 28.5832 9.01699C28.0832 9.69477 27.4443 10.167 26.6665 10.4337V21.567C27.4443 21.8559 28.0832 22.3392 28.5832 23.017C29.0832 23.6948 29.3332 24.467 29.3332 25.3337C29.3332 26.4448 28.9443 27.3892 28.1665 28.167C27.3887 28.9448 26.4443 29.3337 25.3332 29.3337C24.4665 29.3337 23.6943 29.0837 23.0165 28.5837C22.3387 28.0837 21.8554 27.4448 21.5665 26.667H10.4332C10.1443 27.4448 9.66095 28.0837 8.98317 28.5837C8.30539 29.0837 7.53317 29.3337 6.6665 29.3337ZM6.6665 8.00033C7.04428 8.00033 7.36095 7.87255 7.6165 7.61699C7.87206 7.36144 7.99984 7.04477 7.99984 6.66699C7.99984 6.28921 7.87206 5.97255 7.6165 5.71699C7.36095 5.46144 7.04428 5.33366 6.6665 5.33366C6.28873 5.33366 5.97206 5.46144 5.7165 5.71699C5.46095 5.97255 5.33317 6.28921 5.33317 6.66699C5.33317 7.04477 5.46095 7.36144 5.7165 7.61699C5.97206 7.87255 6.28873 8.00033 6.6665 8.00033ZM25.3332 8.00033C25.7109 8.00033 26.0276 7.87255 26.2832 7.61699C26.5387 7.36144 26.6665 7.04477 26.6665 6.66699C26.6665 6.28921 26.5387 5.97255 26.2832 5.71699C26.0276 5.46144 25.7109 5.33366 25.3332 5.33366C24.9554 5.33366 24.6387 5.46144 24.3832 5.71699C24.1276 5.97255 23.9998 6.28921 23.9998 6.66699C23.9998 7.04477 24.1276 7.36144 24.3832 7.61699C24.6387 7.87255 24.9554 8.00033 25.3332 8.00033ZM10.4332 24.0003H21.5665C21.7665 23.4225 22.0776 22.9225 22.4998 22.5003C22.9221 22.0781 23.4221 21.767 23.9998 21.567V10.4337C23.4221 10.2337 22.9221 9.92255 22.4998 9.50033C22.0776 9.0781 21.7665 8.5781 21.5665 8.00033H10.4332C10.2332 8.5781 9.92206 9.0781 9.49984 9.50033C9.07761 9.92255 8.57761 10.2337 7.99984 10.4337V21.567C8.57761 21.767 9.07761 22.0781 9.49984 22.5003C9.92206 22.9225 10.2332 23.4225 10.4332 24.0003ZM25.3332 26.667C25.7109 26.667 26.0276 26.5392 26.2832 26.2837C26.5387 26.0281 26.6665 25.7114 26.6665 25.3337C26.6665 24.9559 26.5387 24.6392 26.2832 24.3837C26.0276 24.1281 25.7109 24.0003 25.3332 24.0003C24.9554 24.0003 24.6387 24.1281 24.3832 24.3837C24.1276 24.6392 23.9998 24.9559 23.9998 25.3337C23.9998 25.7114 24.1276 26.0281 24.3832 26.2837C24.6387 26.5392 24.9554 26.667 25.3332 26.667ZM6.6665 26.667C7.04428 26.667 7.36095 26.5392 7.6165 26.2837C7.87206 26.0281 7.99984 25.7114 7.99984 25.3337C7.99984 24.9559 7.87206 24.6392 7.6165 24.3837C7.36095 24.1281 7.04428 24.0003 6.6665 24.0003C6.28873 24.0003 5.97206 24.1281 5.7165 24.3837C5.46095 24.6392 5.33317 24.9559 5.33317 25.3337C5.33317 25.7114 5.46095 26.0281 5.7165 26.2837C5.97206 26.5392 6.28873 26.667 6.6665 26.667Z" fill="#218448"/>
</svg>
