<svg width="32" height="32" viewBox="0 0 32 32" fill="none" xmlns="http://www.w3.org/2000/svg">
<path d="M8.66667 14.667L16 2.66699L23.3333 14.667H8.66667ZM23.3333 29.3337C21.6667 29.3337 20.25 28.7503 19.0833 27.5837C17.9167 26.417 17.3333 25.0003 17.3333 23.3337C17.3333 21.667 17.9167 20.2503 19.0833 19.0837C20.25 17.917 21.6667 17.3337 23.3333 17.3337C25 17.3337 26.4167 17.917 27.5833 19.0837C28.75 20.2503 29.3333 21.667 29.3333 23.3337C29.3333 25.0003 28.75 26.417 27.5833 27.5837C26.4167 28.7503 25 29.3337 23.3333 29.3337ZM4 28.667V18.0003H14.6667V28.667H4ZM23.3333 26.667C24.2667 26.667 25.0556 26.3448 25.7 25.7003C26.3444 25.0559 26.6667 24.267 26.6667 23.3337C26.6667 22.4003 26.3444 21.6114 25.7 20.967C25.0556 20.3225 24.2667 20.0003 23.3333 20.0003C22.4 20.0003 21.6111 20.3225 20.9667 20.967C20.3222 21.6114 20 22.4003 20 23.3337C20 24.267 20.3222 25.0559 20.9667 25.7003C21.6111 26.3448 22.4 26.667 23.3333 26.667ZM6.66667 26.0003H12V20.667H6.66667V26.0003ZM13.4 12.0003H18.6L16 7.80033L13.4 12.0003Z" fill="#218448"/>
</svg>
