<svg width="32" height="32" viewBox="0 0 32 32" fill="none" xmlns="http://www.w3.org/2000/svg">
<g clip-path="url(#clip0_353_363)">
<path d="M9.60023 6.39974V3.19974C9.60023 2.02153 10.5554 1.06641 11.7336 1.06641H14.9336M25.6002 1.06641H28.8002C29.9785 1.06641 30.9336 2.02153 30.9336 3.19974V6.39974M17.0669 1.06641H23.4669M25.6002 22.3997H28.8002C29.9785 22.3997 30.9336 21.4446 30.9336 20.2664V17.0664M30.9336 8.53307V14.9331M6.40023 9.59974H3.20023C2.02202 9.59974 1.06689 10.5549 1.06689 11.7331V14.9331M1.06689 25.5997V28.7997C1.06689 29.978 2.02202 30.9331 3.20023 30.9331H6.40023M1.06689 17.0664V23.4664M17.0669 30.9331H20.2669C21.4451 30.9331 22.4002 29.978 22.4002 28.7997V25.5997M8.53356 30.9331H14.9336M9.60023 9.59974V22.3997H22.4002V9.59974H9.60023Z" stroke="#218448" stroke-width="2"/>
</g>
<defs>
<clipPath id="clip0_353_363">
<rect width="32" height="32" fill="white"/>
</clipPath>
</defs>
</svg>
