<svg width="32" height="32" viewBox="0 0 32 32" fill="none" xmlns="http://www.w3.org/2000/svg">
<path d="M15.9998 29.3337C14.1776 29.3337 12.4554 28.9837 10.8332 28.2837C9.21095 27.5837 7.79428 26.6281 6.58317 25.417C5.37206 24.2059 4.4165 22.7892 3.7165 21.167C3.0165 19.5448 2.6665 17.8225 2.6665 16.0003C2.6665 14.1559 3.02762 12.4225 3.74984 10.8003C4.47206 9.1781 5.44984 7.76699 6.68317 6.56699C7.9165 5.36699 9.35539 4.41699 10.9998 3.71699C12.6443 3.01699 14.3998 2.66699 16.2665 2.66699C18.0443 2.66699 19.7221 2.97255 21.2998 3.58366C22.8776 4.19477 24.2609 5.03921 25.4498 6.11699C26.6387 7.19477 27.5832 8.47255 28.2832 9.95033C28.9832 11.4281 29.3332 13.0225 29.3332 14.7337C29.3332 17.2892 28.5554 19.2503 26.9998 20.617C25.4443 21.9837 23.5554 22.667 21.3332 22.667H18.8665C18.6665 22.667 18.5276 22.7225 18.4498 22.8337C18.3721 22.9448 18.3332 23.067 18.3332 23.2003C18.3332 23.467 18.4998 23.8503 18.8332 24.3503C19.1665 24.8503 19.3332 25.4225 19.3332 26.067C19.3332 27.1781 19.0276 28.0003 18.4165 28.5337C17.8054 29.067 16.9998 29.3337 15.9998 29.3337ZM8.6665 17.3337C9.24428 17.3337 9.72206 17.1448 10.0998 16.767C10.4776 16.3892 10.6665 15.9114 10.6665 15.3337C10.6665 14.7559 10.4776 14.2781 10.0998 13.9003C9.72206 13.5225 9.24428 13.3337 8.6665 13.3337C8.08873 13.3337 7.61095 13.5225 7.23317 13.9003C6.85539 14.2781 6.6665 14.7559 6.6665 15.3337C6.6665 15.9114 6.85539 16.3892 7.23317 16.767C7.61095 17.1448 8.08873 17.3337 8.6665 17.3337ZM12.6665 12.0003C13.2443 12.0003 13.7221 11.8114 14.0998 11.4337C14.4776 11.0559 14.6665 10.5781 14.6665 10.0003C14.6665 9.42255 14.4776 8.94477 14.0998 8.56699C13.7221 8.18921 13.2443 8.00033 12.6665 8.00033C12.0887 8.00033 11.6109 8.18921 11.2332 8.56699C10.8554 8.94477 10.6665 9.42255 10.6665 10.0003C10.6665 10.5781 10.8554 11.0559 11.2332 11.4337C11.6109 11.8114 12.0887 12.0003 12.6665 12.0003ZM19.3332 12.0003C19.9109 12.0003 20.3887 11.8114 20.7665 11.4337C21.1443 11.0559 21.3332 10.5781 21.3332 10.0003C21.3332 9.42255 21.1443 8.94477 20.7665 8.56699C20.3887 8.18921 19.9109 8.00033 19.3332 8.00033C18.7554 8.00033 18.2776 8.18921 17.8998 8.56699C17.5221 8.94477 17.3332 9.42255 17.3332 10.0003C17.3332 10.5781 17.5221 11.0559 17.8998 11.4337C18.2776 11.8114 18.7554 12.0003 19.3332 12.0003ZM23.3332 17.3337C23.9109 17.3337 24.3887 17.1448 24.7665 16.767C25.1443 16.3892 25.3332 15.9114 25.3332 15.3337C25.3332 14.7559 25.1443 14.2781 24.7665 13.9003C24.3887 13.5225 23.9109 13.3337 23.3332 13.3337C22.7554 13.3337 22.2776 13.5225 21.8998 13.9003C21.5221 14.2781 21.3332 14.7559 21.3332 15.3337C21.3332 15.9114 21.5221 16.3892 21.8998 16.767C22.2776 17.1448 22.7554 17.3337 23.3332 17.3337ZM15.9998 26.667C16.1998 26.667 16.3609 26.6114 16.4832 26.5003C16.6054 26.3892 16.6665 26.2448 16.6665 26.067C16.6665 25.7559 16.4998 25.3892 16.1665 24.967C15.8332 24.5448 15.6665 23.9114 15.6665 23.067C15.6665 22.1337 15.9887 21.3892 16.6332 20.8337C17.2776 20.2781 18.0665 20.0003 18.9998 20.0003H21.3332C22.7998 20.0003 24.0554 19.5725 25.0998 18.717C26.1443 17.8614 26.6665 16.5337 26.6665 14.7337C26.6665 12.0448 25.6387 9.80588 23.5832 8.01699C21.5276 6.2281 19.0887 5.33366 16.2665 5.33366C13.2443 5.33366 10.6665 6.36699 8.53317 8.43366C6.39984 10.5003 5.33317 13.0225 5.33317 16.0003C5.33317 18.9559 6.37206 21.4725 8.44984 23.5503C10.5276 25.6281 13.0443 26.667 15.9998 26.667Z" fill="#218448"/>
</svg>
