<svg width="40" height="40" viewBox="0 0 40 40" fill="none" xmlns="http://www.w3.org/2000/svg">
<path d="M16.6666 36.6667V29.8333L28.9166 17.6667C29.25 17.3333 29.618 17.0833 30.0208 16.9167C30.4236 16.75 30.8472 16.6667 31.2916 16.6667C31.7361 16.6667 32.1597 16.75 32.5625 16.9167C32.9653 17.0833 33.3333 17.3333 33.6666 17.6667L35.7083 19.75C36.0139 20.0833 36.25 20.4514 36.4166 20.8542C36.5833 21.2569 36.6666 21.6667 36.6666 22.0833C36.6666 22.5 36.5764 22.9097 36.3958 23.3125C36.2153 23.7153 35.9722 24.0833 35.6666 24.4167L23.5 36.6667H16.6666ZM20 33.3333H22.0833L28.8333 26.5833L27.7916 25.5417L26.75 24.5L20 31.25V33.3333ZM17.9166 15.4167L15.5833 13.0417L18.625 10H13.0416C12.7916 10.7222 12.4028 11.3472 11.875 11.875C11.3472 12.4028 10.7222 12.7917 9.99998 13.0417V26.9583C10.9722 27.3194 11.7708 27.9236 12.3958 28.7708C13.0208 29.6181 13.3333 30.5833 13.3333 31.6667C13.3333 33.0556 12.8472 34.2361 11.875 35.2083C10.9028 36.1806 9.7222 36.6667 8.33331 36.6667C6.94442 36.6667 5.76387 36.1806 4.79165 35.2083C3.81942 34.2361 3.33331 33.0556 3.33331 31.6667C3.33331 30.5833 3.64581 29.625 4.27081 28.7917C4.89581 27.9583 5.69442 27.3611 6.66665 27V13.0417C5.69442 12.6806 4.89581 12.0764 4.27081 11.2292C3.64581 10.3819 3.33331 9.41667 3.33331 8.33333C3.33331 6.94444 3.81942 5.76389 4.79165 4.79167C5.76387 3.81944 6.94442 3.33333 8.33331 3.33333C9.41665 3.33333 10.3819 3.64583 11.2291 4.27083C12.0764 4.89583 12.6805 5.69444 13.0416 6.66667H18.625L15.5833 3.625L17.9166 1.25L25 8.33333L17.9166 15.4167ZM31.6666 3.33333C33.0555 3.33333 34.2361 3.81944 35.2083 4.79167C36.1805 5.76389 36.6666 6.94444 36.6666 8.33333C36.6666 9.72222 36.1805 10.9028 35.2083 11.875C34.2361 12.8472 33.0555 13.3333 31.6666 13.3333C30.2778 13.3333 29.0972 12.8472 28.125 11.875C27.1528 10.9028 26.6666 9.72222 26.6666 8.33333C26.6666 6.94444 27.1528 5.76389 28.125 4.79167C29.0972 3.81944 30.2778 3.33333 31.6666 3.33333ZM8.33331 33.3333C8.80553 33.3333 9.20137 33.1736 9.52081 32.8542C9.84026 32.5347 9.99998 32.1389 9.99998 31.6667C9.99998 31.1944 9.84026 30.7986 9.52081 30.4792C9.20137 30.1597 8.80553 30 8.33331 30C7.86109 30 7.46526 30.1597 7.14581 30.4792C6.82637 30.7986 6.66665 31.1944 6.66665 31.6667C6.66665 32.1389 6.82637 32.5347 7.14581 32.8542C7.46526 33.1736 7.86109 33.3333 8.33331 33.3333ZM8.33331 10C8.80553 10 9.20137 9.84028 9.52081 9.52083C9.84026 9.20139 9.99998 8.80556 9.99998 8.33333C9.99998 7.86111 9.84026 7.46528 9.52081 7.14583C9.20137 6.82639 8.80553 6.66667 8.33331 6.66667C7.86109 6.66667 7.46526 6.82639 7.14581 7.14583C6.82637 7.46528 6.66665 7.86111 6.66665 8.33333C6.66665 8.80556 6.82637 9.20139 7.14581 9.52083C7.46526 9.84028 7.86109 10 8.33331 10ZM31.6666 10C32.1389 10 32.5347 9.84028 32.8541 9.52083C33.1736 9.20139 33.3333 8.80556 33.3333 8.33333C33.3333 7.86111 33.1736 7.46528 32.8541 7.14583C32.5347 6.82639 32.1389 6.66667 31.6666 6.66667C31.1944 6.66667 30.7986 6.82639 30.4791 7.14583C30.1597 7.46528 30 7.86111 30 8.33333C30 8.80556 30.1597 9.20139 30.4791 9.52083C30.7986 9.84028 31.1944 10 31.6666 10Z" fill="#218448"/>
</svg>
