<svg width="32" height="32" viewBox="0 0 32 32" fill="none" xmlns="http://www.w3.org/2000/svg">
<path d="M13.3332 29.3333V23.8667L23.1332 14.1333C23.3998 13.8667 23.6943 13.6667 24.0165 13.5333C24.3387 13.4 24.6776 13.3333 25.0332 13.3333C25.3887 13.3333 25.7276 13.4 26.0498 13.5333C26.3721 13.6667 26.6665 13.8667 26.9332 14.1333L28.5665 15.8C28.8109 16.0667 28.9998 16.3611 29.1332 16.6833C29.2665 17.0056 29.3332 17.3333 29.3332 17.6667C29.3332 18 29.2609 18.3278 29.1165 18.65C28.9721 18.9722 28.7776 19.2667 28.5332 19.5333L18.7998 29.3333H13.3332ZM15.9998 26.6667H17.6665L23.0665 21.2667L22.2332 20.4333L21.3998 19.6L15.9998 25V26.6667ZM14.3332 12.3333L12.4665 10.4333L14.8998 8H10.4332C10.2332 8.57778 9.92206 9.07778 9.49984 9.5C9.07761 9.92222 8.57761 10.2333 7.99984 10.4333V21.5667C8.77761 21.8556 9.4165 22.3389 9.9165 23.0167C10.4165 23.6944 10.6665 24.4667 10.6665 25.3333C10.6665 26.4444 10.2776 27.3889 9.49984 28.1667C8.72206 28.9444 7.77761 29.3333 6.6665 29.3333C5.55539 29.3333 4.61095 28.9444 3.83317 28.1667C3.05539 27.3889 2.6665 26.4444 2.6665 25.3333C2.6665 24.4667 2.9165 23.7 3.4165 23.0333C3.9165 22.3667 4.55539 21.8889 5.33317 21.6V10.4333C4.55539 10.1444 3.9165 9.66111 3.4165 8.98333C2.9165 8.30556 2.6665 7.53333 2.6665 6.66667C2.6665 5.55556 3.05539 4.61111 3.83317 3.83333C4.61095 3.05556 5.55539 2.66667 6.6665 2.66667C7.53317 2.66667 8.30539 2.91667 8.98317 3.41667C9.66095 3.91667 10.1443 4.55556 10.4332 5.33333H14.8998L12.4665 2.9L14.3332 1L19.9998 6.66667L14.3332 12.3333ZM25.3332 2.66667C26.4443 2.66667 27.3887 3.05556 28.1665 3.83333C28.9443 4.61111 29.3332 5.55556 29.3332 6.66667C29.3332 7.77778 28.9443 8.72222 28.1665 9.5C27.3887 10.2778 26.4443 10.6667 25.3332 10.6667C24.2221 10.6667 23.2776 10.2778 22.4998 9.5C21.7221 8.72222 21.3332 7.77778 21.3332 6.66667C21.3332 5.55556 21.7221 4.61111 22.4998 3.83333C23.2776 3.05556 24.2221 2.66667 25.3332 2.66667ZM6.6665 26.6667C7.04428 26.6667 7.36095 26.5389 7.6165 26.2833C7.87206 26.0278 7.99984 25.7111 7.99984 25.3333C7.99984 24.9556 7.87206 24.6389 7.6165 24.3833C7.36095 24.1278 7.04428 24 6.6665 24C6.28873 24 5.97206 24.1278 5.7165 24.3833C5.46095 24.6389 5.33317 24.9556 5.33317 25.3333C5.33317 25.7111 5.46095 26.0278 5.7165 26.2833C5.97206 26.5389 6.28873 26.6667 6.6665 26.6667ZM6.6665 8C7.04428 8 7.36095 7.87222 7.6165 7.61667C7.87206 7.36111 7.99984 7.04444 7.99984 6.66667C7.99984 6.28889 7.87206 5.97222 7.6165 5.71667C7.36095 5.46111 7.04428 5.33333 6.6665 5.33333C6.28873 5.33333 5.97206 5.46111 5.7165 5.71667C5.46095 5.97222 5.33317 6.28889 5.33317 6.66667C5.33317 7.04444 5.46095 7.36111 5.7165 7.61667C5.97206 7.87222 6.28873 8 6.6665 8ZM25.3332 8C25.7109 8 26.0276 7.87222 26.2832 7.61667C26.5387 7.36111 26.6665 7.04444 26.6665 6.66667C26.6665 6.28889 26.5387 5.97222 26.2832 5.71667C26.0276 5.46111 25.7109 5.33333 25.3332 5.33333C24.9554 5.33333 24.6387 5.46111 24.3832 5.71667C24.1276 5.97222 23.9998 6.28889 23.9998 6.66667C23.9998 7.04444 24.1276 7.36111 24.3832 7.61667C24.6387 7.87222 24.9554 8 25.3332 8Z" fill="#218448"/>
</svg>
