<svg width="34" height="34" viewBox="0 0 34 34" fill="none" xmlns="http://www.w3.org/2000/svg">
<path d="M8.66661 30.3347V11.9597C8.66661 11.0431 8.99994 10.2653 9.66661 9.62641C10.3333 8.98752 11.1249 8.66807 12.0416 8.66807H30.3333C31.2499 8.66807 32.0347 8.99446 32.6874 9.64724C33.3402 10.3 33.6666 11.0847 33.6666 12.0014V25.3347L25.3333 33.6681H11.9999C11.0833 33.6681 10.2986 33.3417 9.64577 32.6889C8.993 32.0361 8.66661 31.2514 8.66661 30.3347ZM0.374941 7.41807C0.208275 6.50141 0.38883 5.67502 0.916608 4.93891C1.44439 4.2028 2.16661 3.75141 3.08327 3.58474L21.1666 0.376406C22.0833 0.20974 22.9097 0.390295 23.6458 0.918073C24.3819 1.44585 24.8333 2.16807 24.9999 3.08474L25.4166 5.33474H21.9999L21.7083 3.66807L3.66661 6.87641L5.33327 16.2931V27.9181C4.88883 27.6681 4.50689 27.3347 4.18744 26.9181C3.868 26.5014 3.66661 26.0292 3.58327 25.5014L0.374941 7.41807ZM11.9999 12.0014V30.3347H23.6666V23.6681H30.3333V12.0014H11.9999Z" fill="#218448"/>
</svg>
