<svg width="32" height="32" viewBox="0 0 32 32" fill="none" xmlns="http://www.w3.org/2000/svg">
<path d="M13.3333 29.3333V23.8667L23.1333 14.1333C23.4 13.8667 23.6944 13.6667 24.0166 13.5333C24.3388 13.4 24.6777 13.3333 25.0333 13.3333C25.3888 13.3333 25.7277 13.4 26.05 13.5333C26.3722 13.6667 26.6666 13.8667 26.9333 14.1333L28.5666 15.8C28.8111 16.0667 29 16.3611 29.1333 16.6833C29.2666 17.0056 29.3333 17.3333 29.3333 17.6667C29.3333 18 29.2611 18.3278 29.1166 18.65C28.9722 18.9722 28.7777 19.2667 28.5333 19.5333L18.8 29.3333H13.3333ZM16 26.6667H17.6666L23.0666 21.2667L22.2333 20.4333L21.4 19.6L16 25V26.6667ZM14.3333 12.3333L12.4666 10.4333L14.9 8H10.4333C10.2333 8.57778 9.92218 9.07778 9.49996 9.5C9.07774 9.92222 8.57774 10.2333 7.99996 10.4333V21.5667C8.77774 21.8556 9.41663 22.3389 9.91663 23.0167C10.4166 23.6944 10.6666 24.4667 10.6666 25.3333C10.6666 26.4444 10.2777 27.3889 9.49996 28.1667C8.72218 28.9444 7.77774 29.3333 6.66663 29.3333C5.55551 29.3333 4.61107 28.9444 3.83329 28.1667C3.05551 27.3889 2.66663 26.4444 2.66663 25.3333C2.66663 24.4667 2.91663 23.7 3.41663 23.0333C3.91663 22.3667 4.55551 21.8889 5.33329 21.6V10.4333C4.55551 10.1444 3.91663 9.66111 3.41663 8.98333C2.91663 8.30556 2.66663 7.53333 2.66663 6.66667C2.66663 5.55556 3.05551 4.61111 3.83329 3.83333C4.61107 3.05556 5.55551 2.66667 6.66663 2.66667C7.53329 2.66667 8.30551 2.91667 8.98329 3.41667C9.66107 3.91667 10.1444 4.55556 10.4333 5.33333H14.9L12.4666 2.9L14.3333 1L20 6.66667L14.3333 12.3333ZM25.3333 2.66667C26.4444 2.66667 27.3888 3.05556 28.1666 3.83333C28.9444 4.61111 29.3333 5.55556 29.3333 6.66667C29.3333 7.77778 28.9444 8.72222 28.1666 9.5C27.3888 10.2778 26.4444 10.6667 25.3333 10.6667C24.2222 10.6667 23.2777 10.2778 22.5 9.5C21.7222 8.72222 21.3333 7.77778 21.3333 6.66667C21.3333 5.55556 21.7222 4.61111 22.5 3.83333C23.2777 3.05556 24.2222 2.66667 25.3333 2.66667ZM6.66663 26.6667C7.0444 26.6667 7.36107 26.5389 7.61663 26.2833C7.87218 26.0278 7.99996 25.7111 7.99996 25.3333C7.99996 24.9556 7.87218 24.6389 7.61663 24.3833C7.36107 24.1278 7.0444 24 6.66663 24C6.28885 24 5.97218 24.1278 5.71663 24.3833C5.46107 24.6389 5.33329 24.9556 5.33329 25.3333C5.33329 25.7111 5.46107 26.0278 5.71663 26.2833C5.97218 26.5389 6.28885 26.6667 6.66663 26.6667ZM6.66663 8C7.0444 8 7.36107 7.87222 7.61663 7.61667C7.87218 7.36111 7.99996 7.04444 7.99996 6.66667C7.99996 6.28889 7.87218 5.97222 7.61663 5.71667C7.36107 5.46111 7.0444 5.33333 6.66663 5.33333C6.28885 5.33333 5.97218 5.46111 5.71663 5.71667C5.46107 5.97222 5.33329 6.28889 5.33329 6.66667C5.33329 7.04444 5.46107 7.36111 5.71663 7.61667C5.97218 7.87222 6.28885 8 6.66663 8ZM25.3333 8C25.7111 8 26.0277 7.87222 26.2833 7.61667C26.5388 7.36111 26.6666 7.04444 26.6666 6.66667C26.6666 6.28889 26.5388 5.97222 26.2833 5.71667C26.0277 5.46111 25.7111 5.33333 25.3333 5.33333C24.9555 5.33333 24.6388 5.46111 24.3833 5.71667C24.1277 5.97222 24 6.28889 24 6.66667C24 7.04444 24.1277 7.36111 24.3833 7.61667C24.6388 7.87222 24.9555 8 25.3333 8Z" fill="#218448"/>
</svg>
