<svg width="32" height="32" viewBox="0 0 32 32" fill="none" xmlns="http://www.w3.org/2000/svg">
<path d="M9.33317 11.332L11.9998 8.66536L9.33317 5.9987L6.6665 8.66536L9.33317 11.332ZM5.33317 18.6654C4.59984 18.6654 3.97206 18.4043 3.44984 17.882C2.92761 17.3598 2.6665 16.732 2.6665 15.9987V3.9987C2.6665 3.26536 2.92761 2.63759 3.44984 2.11536C3.97206 1.59314 4.59984 1.33203 5.33317 1.33203H26.6665C27.3998 1.33203 28.0276 1.59314 28.5498 2.11536C29.0721 2.63759 29.3332 3.26536 29.3332 3.9987V15.9987C29.3332 16.732 29.0721 17.3598 28.5498 17.882C28.0276 18.4043 27.3998 18.6654 26.6665 18.6654H22.3665C22.4998 18.2209 22.5887 17.7765 22.6332 17.332C22.6776 16.8876 22.6776 16.4431 22.6332 15.9987H26.6665V3.9987H5.33317V15.9987H9.3665C9.32206 16.4431 9.32206 16.8876 9.3665 17.332C9.41095 17.7765 9.49984 18.2209 9.63317 18.6654H5.33317ZM21.9998 9.33203C22.5554 9.33203 23.0276 9.13759 23.4165 8.7487C23.8054 8.35981 23.9998 7.88759 23.9998 7.33203C23.9998 6.77648 23.8054 6.30425 23.4165 5.91536C23.0276 5.52648 22.5554 5.33203 21.9998 5.33203C21.4443 5.33203 20.9721 5.52648 20.5832 5.91536C20.1943 6.30425 19.9998 6.77648 19.9998 7.33203C19.9998 7.88759 20.1943 8.35981 20.5832 8.7487C20.9721 9.13759 21.4443 9.33203 21.9998 9.33203ZM6.6665 30.6654V27.8654C6.6665 27.0876 6.88317 26.3654 7.3165 25.6987C7.74984 25.032 8.32206 24.532 9.03317 24.1987C10.1221 23.6876 11.2554 23.3043 12.4332 23.0487C13.6109 22.7931 14.7998 22.6654 15.9998 22.6654C17.1998 22.6654 18.3887 22.7931 19.5665 23.0487C20.7443 23.3043 21.8776 23.6876 22.9665 24.1987C23.6776 24.532 24.2498 25.032 24.6832 25.6987C25.1165 26.3654 25.3332 27.0876 25.3332 27.8654V30.6654H6.6665ZM9.33317 27.9987H22.6665V27.8654C22.6665 27.5987 22.5887 27.3543 22.4332 27.132C22.2776 26.9098 22.0776 26.7431 21.8332 26.632C20.8998 26.2098 19.9443 25.8876 18.9665 25.6654C17.9887 25.4431 16.9998 25.332 15.9998 25.332C14.9998 25.332 14.0109 25.4431 13.0332 25.6654C12.0554 25.8876 11.0998 26.2098 10.1665 26.632C9.92206 26.7431 9.72206 26.9098 9.5665 27.132C9.41095 27.3543 9.33317 27.5987 9.33317 27.8654V27.9987ZM15.9998 21.332C14.7109 21.332 13.6109 20.8765 12.6998 19.9654C11.7887 19.0543 11.3332 17.9543 11.3332 16.6654C11.3332 15.3765 11.7887 14.2765 12.6998 13.3654C13.6109 12.4543 14.7109 11.9987 15.9998 11.9987C17.2887 11.9987 18.3887 12.4543 19.2998 13.3654C20.2109 14.2765 20.6665 15.3765 20.6665 16.6654C20.6665 17.9543 20.2109 19.0543 19.2998 19.9654C18.3887 20.8765 17.2887 21.332 15.9998 21.332ZM15.9998 18.6654C16.5554 18.6654 17.0276 18.4709 17.4165 18.082C17.8054 17.6931 17.9998 17.2209 17.9998 16.6654C17.9998 16.1098 17.8054 15.6376 17.4165 15.2487C17.0276 14.8598 16.5554 14.6654 15.9998 14.6654C15.4443 14.6654 14.9721 14.8598 14.5832 15.2487C14.1943 15.6376 13.9998 16.1098 13.9998 16.6654C13.9998 17.2209 14.1943 17.6931 14.5832 18.082C14.9721 18.4709 15.4443 18.6654 15.9998 18.6654Z" fill="#218448"/>
</svg>
