<svg width="32" height="32" viewBox="0 0 32 32" fill="none" xmlns="http://www.w3.org/2000/svg">
<g clip-path="url(#clip0_321_666)">
<path d="M18.6667 30.9333V28.2666C21.2667 28.2666 23.4722 27.361 25.2833 25.5499C27.0944 23.7388 28 21.5333 28 18.9333H30.6667C30.6667 20.5999 30.35 22.161 29.7167 23.6166C29.0833 25.0722 28.2278 26.3388 27.15 27.4166C26.0722 28.4944 24.8056 29.3499 23.35 29.9833C21.8944 30.6166 20.3333 30.9333 18.6667 30.9333ZM18.6667 25.5999V22.9333C19.7778 22.9333 20.7222 22.5444 21.5 21.7666C22.2778 20.9888 22.6667 20.0444 22.6667 18.9333H25.3333C25.3333 20.7777 24.6833 22.3499 23.3833 23.6499C22.0833 24.9499 20.5111 25.5999 18.6667 25.5999ZM7.4 30.0999C7.06667 30.0999 6.73333 30.0333 6.4 29.8999C6.06667 29.7666 5.76667 29.5777 5.5 29.3333L0.766667 24.5999C0.522222 24.3333 0.333333 24.0333 0.2 23.6999C0.0666667 23.3666 0 23.0333 0 22.6999C0 22.3444 0.0666667 22.0055 0.2 21.6833C0.333333 21.361 0.522222 21.0777 0.766667 20.8333L5 16.5999C5.51111 16.0888 6.14444 15.8277 6.9 15.8166C7.65556 15.8055 8.28889 16.0555 8.8 16.5666L10.4667 18.2333L11.4 17.2999L9.73333 15.6333C9.22222 15.1222 8.96667 14.4999 8.96667 13.7666C8.96667 13.0333 9.22222 12.411 9.73333 11.8999L11.6333 9.99993C12.1444 9.48882 12.7722 9.23327 13.5167 9.23327C14.2611 9.23327 14.8889 9.48882 15.4 9.99993L17.0667 11.6666L18 10.7333L16.3333 9.0666C15.8222 8.55549 15.5667 7.92771 15.5667 7.18327C15.5667 6.43882 15.8222 5.81105 16.3333 5.29993L20.5667 1.0666C20.8333 0.799935 21.1333 0.599935 21.4667 0.466602C21.8 0.333268 22.1333 0.266602 22.4667 0.266602C22.8 0.266602 23.1278 0.333268 23.45 0.466602C23.7722 0.599935 24.0667 0.799935 24.3333 1.0666L29.0667 5.79993C29.3333 6.04438 29.5278 6.32771 29.65 6.64993C29.7722 6.97216 29.8333 7.31105 29.8333 7.6666C29.8333 7.99993 29.7722 8.33327 29.65 8.6666C29.5278 8.99993 29.3333 9.29993 29.0667 9.5666L24.8333 13.7999C24.3222 14.311 23.6944 14.5666 22.95 14.5666C22.2056 14.5666 21.5778 14.311 21.0667 13.7999L19.4 12.1333L18.4667 13.0666L20.1333 14.7333C20.6444 15.2444 20.8944 15.8722 20.8833 16.6166C20.8722 17.361 20.6111 17.9888 20.1 18.4999L18.2333 20.3666C17.7222 20.8777 17.0944 21.1333 16.35 21.1333C15.6056 21.1333 14.9778 20.8777 14.4667 20.3666L12.8 18.6999L11.8667 19.6333L13.5333 21.2999C14.0444 21.811 14.2944 22.4444 14.2833 23.1999C14.2722 23.9555 14.0111 24.5888 13.5 25.0999L9.26667 29.3333C9.02222 29.5777 8.73889 29.7666 8.41667 29.8999C8.09444 30.0333 7.75556 30.0999 7.4 30.0999ZM7.4 27.4666L8.8 26.0666L4.06667 21.3333L2.66667 22.7333L7.4 27.4666ZM10.2333 24.6333L11.6333 23.2333L6.9 18.4999L5.5 19.8999L10.2333 24.6333ZM16.3667 18.4999L18.2333 16.6333L13.5 11.8999L11.6333 13.7666L16.3667 18.4999ZM22.9667 11.8999L24.3667 10.4999L19.6333 5.7666L18.2333 7.1666L22.9667 11.8999ZM25.8 9.0666L27.2 7.6666L22.4667 2.93327L21.0667 4.33327L25.8 9.0666Z" fill="#218448"/>
</g>
<defs>
<clipPath id="clip0_321_666">
<rect width="32" height="32" fill="white"/>
</clipPath>
</defs>
</svg>
