<svg width="32" height="32" viewBox="0 0 32 32" fill="none" xmlns="http://www.w3.org/2000/svg">
<path d="M8.66667 14.668L16 2.66797L23.3333 14.668H8.66667ZM23.3333 29.3346C21.6667 29.3346 20.25 28.7513 19.0833 27.5846C17.9167 26.418 17.3333 25.0013 17.3333 23.3346C17.3333 21.668 17.9167 20.2513 19.0833 19.0846C20.25 17.918 21.6667 17.3346 23.3333 17.3346C25 17.3346 26.4167 17.918 27.5833 19.0846C28.75 20.2513 29.3333 21.668 29.3333 23.3346C29.3333 25.0013 28.75 26.418 27.5833 27.5846C26.4167 28.7513 25 29.3346 23.3333 29.3346ZM4 28.668V18.0013H14.6667V28.668H4ZM23.3333 26.668C24.2667 26.668 25.0556 26.3457 25.7 25.7013C26.3444 25.0569 26.6667 24.268 26.6667 23.3346C26.6667 22.4013 26.3444 21.6124 25.7 20.968C25.0556 20.3235 24.2667 20.0013 23.3333 20.0013C22.4 20.0013 21.6111 20.3235 20.9667 20.968C20.3222 21.6124 20 22.4013 20 23.3346C20 24.268 20.3222 25.0569 20.9667 25.7013C21.6111 26.3457 22.4 26.668 23.3333 26.668ZM6.66667 26.0013H12V20.668H6.66667V26.0013ZM13.4 12.0013H18.6L16 7.8013L13.4 12.0013Z" fill="#218448"/>
</svg>
