<svg width="40" height="40" viewBox="0 0 40 40" fill="none" xmlns="http://www.w3.org/2000/svg">
<path d="M11.6666 33.3338V14.9588C11.6666 14.0421 11.9999 13.2643 12.6666 12.6254C13.3333 11.9865 14.1249 11.6671 15.0416 11.6671H33.3333C34.2499 11.6671 35.0347 11.9935 35.6874 12.6463C36.3402 13.299 36.6666 14.0838 36.6666 15.0004V28.3338L28.3333 36.6671H14.9999C14.0833 36.6671 13.2986 36.3407 12.6458 35.6879C11.993 35.0352 11.6666 34.2504 11.6666 33.3338ZM3.37494 10.4171C3.20827 9.50043 3.38883 8.67404 3.91661 7.93793C4.44439 7.20182 5.16661 6.75043 6.08327 6.58376L24.1666 3.37543C25.0833 3.20876 25.9097 3.38932 26.6458 3.9171C27.3819 4.44487 27.8333 5.1671 27.9999 6.08376L28.4166 8.33376H24.9999L24.7083 6.6671L6.66661 9.87543L8.33327 19.2921V30.9171C7.88883 30.6671 7.50689 30.3338 7.18744 29.9171C6.868 29.5004 6.66661 29.0282 6.58327 28.5004L3.37494 10.4171ZM14.9999 15.0004V33.3338H26.6666V26.6671H33.3333V15.0004H14.9999Z" fill="#218448"/>
</svg>
