<svg width="32" height="32" viewBox="0 0 32 32" fill="none" xmlns="http://www.w3.org/2000/svg">
<g clip-path="url(#clip0_412_2188)">
<path d="M18.6667 30.9342V28.2676C21.2667 28.2676 23.4722 27.362 25.2833 25.5509C27.0944 23.7398 28 21.5342 28 18.9342H30.6667C30.6667 20.6009 30.35 22.162 29.7167 23.6176C29.0833 25.0731 28.2278 26.3398 27.15 27.4176C26.0722 28.4954 24.8056 29.3509 23.35 29.9842C21.8944 30.6176 20.3333 30.9342 18.6667 30.9342ZM18.6667 25.6009V22.9342C19.7778 22.9342 20.7222 22.5454 21.5 21.7676C22.2778 20.9898 22.6667 20.0454 22.6667 18.9342H25.3333C25.3333 20.7787 24.6833 22.3509 23.3833 23.6509C22.0833 24.9509 20.5111 25.6009 18.6667 25.6009ZM7.4 30.1009C7.06667 30.1009 6.73333 30.0342 6.4 29.9009C6.06667 29.7676 5.76667 29.5787 5.5 29.3342L0.766667 24.6009C0.522222 24.3342 0.333333 24.0342 0.2 23.7009C0.0666667 23.3676 0 23.0342 0 22.7009C0 22.3454 0.0666667 22.0065 0.2 21.6842C0.333333 21.362 0.522222 21.0787 0.766667 20.8342L5 16.6009C5.51111 16.0898 6.14444 15.8287 6.9 15.8176C7.65556 15.8065 8.28889 16.0565 8.8 16.5676L10.4667 18.2342L11.4 17.3009L9.73333 15.6342C9.22222 15.1231 8.96667 14.5009 8.96667 13.7676C8.96667 13.0342 9.22222 12.412 9.73333 11.9009L11.6333 10.0009C12.1444 9.4898 12.7722 9.23424 13.5167 9.23424C14.2611 9.23424 14.8889 9.4898 15.4 10.0009L17.0667 11.6676L18 10.7342L16.3333 9.06758C15.8222 8.55647 15.5667 7.92869 15.5667 7.18424C15.5667 6.4398 15.8222 5.81202 16.3333 5.30091L20.5667 1.06758C20.8333 0.800911 21.1333 0.600911 21.4667 0.467578C21.8 0.334245 22.1333 0.267578 22.4667 0.267578C22.8 0.267578 23.1278 0.334245 23.45 0.467578C23.7722 0.600911 24.0667 0.800911 24.3333 1.06758L29.0667 5.80091C29.3333 6.04536 29.5278 6.32869 29.65 6.65091C29.7722 6.97313 29.8333 7.31202 29.8333 7.66758C29.8333 8.00091 29.7722 8.33424 29.65 8.66758C29.5278 9.00091 29.3333 9.30091 29.0667 9.56758L24.8333 13.8009C24.3222 14.312 23.6944 14.5676 22.95 14.5676C22.2056 14.5676 21.5778 14.312 21.0667 13.8009L19.4 12.1342L18.4667 13.0676L20.1333 14.7342C20.6444 15.2454 20.8944 15.8731 20.8833 16.6176C20.8722 17.362 20.6111 17.9898 20.1 18.5009L18.2333 20.3676C17.7222 20.8787 17.0944 21.1342 16.35 21.1342C15.6056 21.1342 14.9778 20.8787 14.4667 20.3676L12.8 18.7009L11.8667 19.6342L13.5333 21.3009C14.0444 21.812 14.2944 22.4454 14.2833 23.2009C14.2722 23.9565 14.0111 24.5898 13.5 25.1009L9.26667 29.3342C9.02222 29.5787 8.73889 29.7676 8.41667 29.9009C8.09444 30.0342 7.75556 30.1009 7.4 30.1009ZM7.4 27.4676L8.8 26.0676L4.06667 21.3342L2.66667 22.7342L7.4 27.4676ZM10.2333 24.6342L11.6333 23.2342L6.9 18.5009L5.5 19.9009L10.2333 24.6342ZM16.3667 18.5009L18.2333 16.6342L13.5 11.9009L11.6333 13.7676L16.3667 18.5009ZM22.9667 11.9009L24.3667 10.5009L19.6333 5.76758L18.2333 7.16758L22.9667 11.9009ZM25.8 9.06758L27.2 7.66758L22.4667 2.93424L21.0667 4.33424L25.8 9.06758Z" fill="#218448"/>
</g>
<defs>
<clipPath id="clip0_412_2188">
<rect width="32" height="32" fill="white"/>
</clipPath>
</defs>
</svg>
