<svg width="32" height="32" viewBox="0 0 32 32" fill="none" xmlns="http://www.w3.org/2000/svg">
<path d="M13.6002 17.6004L12.2002 16.2004C12.3779 15.9559 12.5002 15.7059 12.5668 15.4504C12.6335 15.1948 12.6668 14.9337 12.6668 14.6671C12.6668 14.4004 12.6335 14.1393 12.5668 13.8837C12.5002 13.6282 12.3779 13.3893 12.2002 13.1671L13.6002 11.7337C13.9557 12.1559 14.2224 12.6226 14.4002 13.1337C14.5779 13.6448 14.6668 14.1559 14.6668 14.6671C14.6668 15.1782 14.5779 15.6837 14.4002 16.1837C14.2224 16.6837 13.9557 17.1559 13.6002 17.6004ZM16.4335 20.4671L15.0002 19.0337C15.5557 18.4115 15.9724 17.7226 16.2502 16.9671C16.5279 16.2115 16.6668 15.4448 16.6668 14.6671C16.6668 13.8893 16.5279 13.1282 16.2502 12.3837C15.9724 11.6393 15.5557 10.9559 15.0002 10.3337L16.4335 8.90039C17.1891 9.72261 17.7502 10.6282 18.1168 11.6171C18.4835 12.6059 18.6668 13.6226 18.6668 14.6671C18.6668 15.7115 18.4835 16.7337 18.1168 17.7337C17.7502 18.7337 17.1891 19.6448 16.4335 20.4671ZM6.66683 16.0004C5.9335 16.0004 5.30572 15.7393 4.7835 15.2171C4.26127 14.6948 4.00016 14.0671 4.00016 13.3337C4.00016 12.6004 4.26127 11.9726 4.7835 11.4504C5.30572 10.9282 5.9335 10.6671 6.66683 10.6671C7.40016 10.6671 8.02794 10.9282 8.55016 11.4504C9.07239 11.9726 9.3335 12.6004 9.3335 13.3337C9.3335 14.0671 9.07239 14.6948 8.55016 15.2171C8.02794 15.7393 7.40016 16.0004 6.66683 16.0004ZM1.3335 21.3337V20.5671C1.3335 20.0337 1.47794 19.5448 1.76683 19.1004C2.05572 18.6559 2.45572 18.3226 2.96683 18.1004C3.54461 17.8559 4.13905 17.6671 4.75016 17.5337C5.36127 17.4004 6.00016 17.3337 6.66683 17.3337C7.3335 17.3337 7.97239 17.4004 8.5835 17.5337C9.19461 17.6671 9.78905 17.8559 10.3668 18.1004C10.8779 18.3226 11.2779 18.6559 11.5668 19.1004C11.8557 19.5448 12.0002 20.0337 12.0002 20.5671V21.3337H1.3335ZM25.3335 16.0004C24.6002 16.0004 23.9724 15.7393 23.4502 15.2171C22.9279 14.6948 22.6668 14.0671 22.6668 13.3337C22.6668 12.6004 22.9279 11.9726 23.4502 11.4504C23.9724 10.9282 24.6002 10.6671 25.3335 10.6671C26.0668 10.6671 26.6946 10.9282 27.2168 11.4504C27.7391 11.9726 28.0002 12.6004 28.0002 13.3337C28.0002 14.0671 27.7391 14.6948 27.2168 15.2171C26.6946 15.7393 26.0668 16.0004 25.3335 16.0004ZM20.0002 21.3337V20.5671C20.0002 20.0337 20.1446 19.5448 20.4335 19.1004C20.7224 18.6559 21.1224 18.3226 21.6335 18.1004C22.2113 17.8559 22.8057 17.6671 23.4168 17.5337C24.0279 17.4004 24.6668 17.3337 25.3335 17.3337C26.0002 17.3337 26.6391 17.4004 27.2502 17.5337C27.8613 17.6671 28.4557 17.8559 29.0335 18.1004C29.5446 18.3226 29.9446 18.6559 30.2335 19.1004C30.5224 19.5448 30.6668 20.0337 30.6668 20.5671V21.3337H20.0002Z" fill="#218448"/>
</svg>
