<svg width="32" height="32" viewBox="0 0 32 32" fill="none" xmlns="http://www.w3.org/2000/svg">
<path d="M14.6666 30.6004V27.9337C11.8888 27.6226 9.50546 26.4726 7.51657 24.4837C5.52768 22.4948 4.37768 20.1115 4.06657 17.3337H1.3999V14.6671H4.06657C4.37768 11.8893 5.52768 9.50595 7.51657 7.51706C9.50546 5.52817 11.8888 4.37817 14.6666 4.06706V1.40039H17.3332V4.06706C20.111 4.37817 22.4943 5.52817 24.4832 7.51706C26.4721 9.50595 27.6221 11.8893 27.9332 14.6671H30.5999V17.3337H27.9332C27.6221 20.1115 26.4721 22.4948 24.4832 24.4837C22.4943 26.4726 20.111 27.6226 17.3332 27.9337V30.6004H14.6666ZM15.9999 25.3337C18.5777 25.3337 20.7777 24.4226 22.5999 22.6004C24.4221 20.7782 25.3332 18.5782 25.3332 16.0004C25.3332 13.4226 24.4221 11.2226 22.5999 9.40039C20.7777 7.57817 18.5777 6.66706 15.9999 6.66706C13.4221 6.66706 11.2221 7.57817 9.3999 9.40039C7.57768 11.2226 6.66657 13.4226 6.66657 16.0004C6.66657 18.5782 7.57768 20.7782 9.3999 22.6004C11.2221 24.4226 13.4221 25.3337 15.9999 25.3337ZM15.9999 21.3337C14.5332 21.3337 13.2777 20.8115 12.2332 19.7671C11.1888 18.7226 10.6666 17.4671 10.6666 16.0004C10.6666 14.5337 11.1888 13.2782 12.2332 12.2337C13.2777 11.1893 14.5332 10.6671 15.9999 10.6671C17.4666 10.6671 18.7221 11.1893 19.7666 12.2337C20.811 13.2782 21.3332 14.5337 21.3332 16.0004C21.3332 17.4671 20.811 18.7226 19.7666 19.7671C18.7221 20.8115 17.4666 21.3337 15.9999 21.3337ZM15.9999 18.6671C16.7332 18.6671 17.361 18.4059 17.8832 17.8837C18.4055 17.3615 18.6666 16.7337 18.6666 16.0004C18.6666 15.2671 18.4055 14.6393 17.8832 14.1171C17.361 13.5948 16.7332 13.3337 15.9999 13.3337C15.2666 13.3337 14.6388 13.5948 14.1166 14.1171C13.5943 14.6393 13.3332 15.2671 13.3332 16.0004C13.3332 16.7337 13.5943 17.3615 14.1166 17.8837C14.6388 18.4059 15.2666 18.6671 15.9999 18.6671Z" fill="#218448"/>
</svg>
