<svg width="40" height="40" viewBox="0 0 40 40" fill="none" xmlns="http://www.w3.org/2000/svg">
<path d="M23.3333 38.6654V35.332C26.5833 35.332 29.3403 34.2001 31.6042 31.9362C33.8681 29.6723 35 26.9154 35 23.6654H38.3333C38.3333 25.7487 37.9375 27.7001 37.1458 29.5195C36.3542 31.339 35.2847 32.9223 33.9375 34.2695C32.5903 35.6168 31.0069 36.6862 29.1875 37.4779C27.3681 38.2695 25.4167 38.6654 23.3333 38.6654ZM23.3333 31.9987V28.6654C24.7222 28.6654 25.9028 28.1793 26.875 27.207C27.8472 26.2348 28.3333 25.0543 28.3333 23.6654H31.6667C31.6667 25.9709 30.8542 27.9362 29.2292 29.5612C27.6042 31.1862 25.6389 31.9987 23.3333 31.9987ZM9.25 37.6237C8.83333 37.6237 8.41667 37.5404 8 37.3737C7.58333 37.207 7.20833 36.9709 6.875 36.6654L0.958333 30.7487C0.652778 30.4154 0.416667 30.0404 0.25 29.6237C0.0833333 29.207 0 28.7904 0 28.3737C0 27.9293 0.0833333 27.5056 0.25 27.1029C0.416667 26.7001 0.652778 26.3459 0.958333 26.0404L6.25 20.7487C6.88889 20.1098 7.68056 19.7834 8.625 19.7695C9.56944 19.7556 10.3611 20.0681 11 20.707L13.0833 22.7904L14.25 21.6237L12.1667 19.5404C11.5278 18.9015 11.2083 18.1237 11.2083 17.207C11.2083 16.2904 11.5278 15.5126 12.1667 14.8737L14.5417 12.4987C15.1806 11.8598 15.9653 11.5404 16.8958 11.5404C17.8264 11.5404 18.6111 11.8598 19.25 12.4987L21.3333 14.582L22.5 13.4154L20.4167 11.332C19.7778 10.6931 19.4583 9.90842 19.4583 8.97786C19.4583 8.04731 19.7778 7.26259 20.4167 6.6237L25.7083 1.33203C26.0417 0.998698 26.4167 0.748698 26.8333 0.582031C27.25 0.415365 27.6667 0.332031 28.0833 0.332031C28.5 0.332031 28.9097 0.415365 29.3125 0.582031C29.7153 0.748698 30.0833 0.998698 30.4167 1.33203L36.3333 7.2487C36.6667 7.55425 36.9097 7.90842 37.0625 8.3112C37.2153 8.71397 37.2917 9.13759 37.2917 9.58203C37.2917 9.9987 37.2153 10.4154 37.0625 10.832C36.9097 11.2487 36.6667 11.6237 36.3333 11.957L31.0417 17.2487C30.4028 17.8876 29.6181 18.207 28.6875 18.207C27.7569 18.207 26.9722 17.8876 26.3333 17.2487L24.25 15.1654L23.0833 16.332L25.1667 18.4154C25.8056 19.0543 26.1181 19.839 26.1042 20.7695C26.0903 21.7001 25.7639 22.4848 25.125 23.1237L22.7917 25.457C22.1528 26.0959 21.3681 26.4154 20.4375 26.4154C19.5069 26.4154 18.7222 26.0959 18.0833 25.457L16 23.3737L14.8333 24.5404L16.9167 26.6237C17.5556 27.2626 17.8681 28.0543 17.8542 28.9987C17.8403 29.9431 17.5139 30.7348 16.875 31.3737L11.5833 36.6654C11.2778 36.9709 10.9236 37.207 10.5208 37.3737C10.1181 37.5404 9.69444 37.6237 9.25 37.6237ZM9.25 34.332L11 32.582L5.08333 26.6654L3.33333 28.4154L9.25 34.332ZM12.7917 30.7904L14.5417 29.0404L8.625 23.1237L6.875 24.8737L12.7917 30.7904ZM20.4583 23.1237L22.7917 20.7904L16.875 14.8737L14.5417 17.207L20.4583 23.1237ZM28.7083 14.8737L30.4583 13.1237L24.5417 7.20703L22.7917 8.95703L28.7083 14.8737ZM32.25 11.332L34 9.58203L28.0833 3.66536L26.3333 5.41536L32.25 11.332Z" fill="#218448"/>
</svg>
