<svg width="30" height="30" viewBox="0 0 30 30" fill="none" xmlns="http://www.w3.org/2000/svg">
<path d="M13.6666 29.6004V26.9337C10.8888 26.6226 8.50546 25.4726 6.51657 23.4837C4.52768 21.4948 3.37768 19.1115 3.06657 16.3337H0.399902V13.6671H3.06657C3.37768 10.8893 4.52768 8.50595 6.51657 6.51706C8.50546 4.52817 10.8888 3.37817 13.6666 3.06706V0.400391H16.3332V3.06706C19.111 3.37817 21.4943 4.52817 23.4832 6.51706C25.4721 8.50595 26.6221 10.8893 26.9332 13.6671H29.5999V16.3337H26.9332C26.6221 19.1115 25.4721 21.4948 23.4832 23.4837C21.4943 25.4726 19.111 26.6226 16.3332 26.9337V29.6004H13.6666ZM14.9999 24.3337C17.5777 24.3337 19.7777 23.4226 21.5999 21.6004C23.4221 19.7782 24.3332 17.5782 24.3332 15.0004C24.3332 12.4226 23.4221 10.2226 21.5999 8.40039C19.7777 6.57817 17.5777 5.66706 14.9999 5.66706C12.4221 5.66706 10.2221 6.57817 8.3999 8.40039C6.57768 10.2226 5.66657 12.4226 5.66657 15.0004C5.66657 17.5782 6.57768 19.7782 8.3999 21.6004C10.2221 23.4226 12.4221 24.3337 14.9999 24.3337ZM14.9999 20.3337C13.5332 20.3337 12.2777 19.8115 11.2332 18.7671C10.1888 17.7226 9.66657 16.4671 9.66657 15.0004C9.66657 13.5337 10.1888 12.2782 11.2332 11.2337C12.2777 10.1893 13.5332 9.66706 14.9999 9.66706C16.4666 9.66706 17.7221 10.1893 18.7666 11.2337C19.811 12.2782 20.3332 13.5337 20.3332 15.0004C20.3332 16.4671 19.811 17.7226 18.7666 18.7671C17.7221 19.8115 16.4666 20.3337 14.9999 20.3337ZM14.9999 17.6671C15.7332 17.6671 16.361 17.4059 16.8832 16.8837C17.4055 16.3615 17.6666 15.7337 17.6666 15.0004C17.6666 14.2671 17.4055 13.6393 16.8832 13.1171C16.361 12.5948 15.7332 12.3337 14.9999 12.3337C14.2666 12.3337 13.6388 12.5948 13.1166 13.1171C12.5943 13.6393 12.3332 14.2671 12.3332 15.0004C12.3332 15.7337 12.5943 16.3615 13.1166 16.8837C13.6388 17.4059 14.2666 17.6671 14.9999 17.6671Z" fill="#218448"/>
</svg>
