<svg width="32" height="32" viewBox="0 0 32 32" fill="none" xmlns="http://www.w3.org/2000/svg">
<path d="M9.33317 11.333L11.9998 8.66634L9.33317 5.99967L6.6665 8.66634L9.33317 11.333ZM5.33317 18.6663C4.59984 18.6663 3.97206 18.4052 3.44984 17.883C2.92761 17.3608 2.6665 16.733 2.6665 15.9997V3.99967C2.6665 3.26634 2.92761 2.63856 3.44984 2.11634C3.97206 1.59412 4.59984 1.33301 5.33317 1.33301H26.6665C27.3998 1.33301 28.0276 1.59412 28.5498 2.11634C29.0721 2.63856 29.3332 3.26634 29.3332 3.99967V15.9997C29.3332 16.733 29.0721 17.3608 28.5498 17.883C28.0276 18.4052 27.3998 18.6663 26.6665 18.6663H22.3665C22.4998 18.2219 22.5887 17.7775 22.6332 17.333C22.6776 16.8886 22.6776 16.4441 22.6332 15.9997H26.6665V3.99967H5.33317V15.9997H9.3665C9.32206 16.4441 9.32206 16.8886 9.3665 17.333C9.41095 17.7775 9.49984 18.2219 9.63317 18.6663H5.33317ZM21.9998 9.33301C22.5554 9.33301 23.0276 9.13856 23.4165 8.74967C23.8054 8.36079 23.9998 7.88856 23.9998 7.33301C23.9998 6.77745 23.8054 6.30523 23.4165 5.91634C23.0276 5.52745 22.5554 5.33301 21.9998 5.33301C21.4443 5.33301 20.9721 5.52745 20.5832 5.91634C20.1943 6.30523 19.9998 6.77745 19.9998 7.33301C19.9998 7.88856 20.1943 8.36079 20.5832 8.74967C20.9721 9.13856 21.4443 9.33301 21.9998 9.33301ZM6.6665 30.6663V27.8663C6.6665 27.0886 6.88317 26.3663 7.3165 25.6997C7.74984 25.033 8.32206 24.533 9.03317 24.1997C10.1221 23.6886 11.2554 23.3052 12.4332 23.0497C13.6109 22.7941 14.7998 22.6663 15.9998 22.6663C17.1998 22.6663 18.3887 22.7941 19.5665 23.0497C20.7443 23.3052 21.8776 23.6886 22.9665 24.1997C23.6776 24.533 24.2498 25.033 24.6832 25.6997C25.1165 26.3663 25.3332 27.0886 25.3332 27.8663V30.6663H6.6665ZM9.33317 27.9997H22.6665V27.8663C22.6665 27.5997 22.5887 27.3552 22.4332 27.133C22.2776 26.9108 22.0776 26.7441 21.8332 26.633C20.8998 26.2108 19.9443 25.8886 18.9665 25.6663C17.9887 25.4441 16.9998 25.333 15.9998 25.333C14.9998 25.333 14.0109 25.4441 13.0332 25.6663C12.0554 25.8886 11.0998 26.2108 10.1665 26.633C9.92206 26.7441 9.72206 26.9108 9.5665 27.133C9.41095 27.3552 9.33317 27.5997 9.33317 27.8663V27.9997ZM15.9998 21.333C14.7109 21.333 13.6109 20.8775 12.6998 19.9663C11.7887 19.0552 11.3332 17.9552 11.3332 16.6663C11.3332 15.3775 11.7887 14.2775 12.6998 13.3663C13.6109 12.4552 14.7109 11.9997 15.9998 11.9997C17.2887 11.9997 18.3887 12.4552 19.2998 13.3663C20.2109 14.2775 20.6665 15.3775 20.6665 16.6663C20.6665 17.9552 20.2109 19.0552 19.2998 19.9663C18.3887 20.8775 17.2887 21.333 15.9998 21.333ZM15.9998 18.6663C16.5554 18.6663 17.0276 18.4719 17.4165 18.083C17.8054 17.6941 17.9998 17.2219 17.9998 16.6663C17.9998 16.1108 17.8054 15.6386 17.4165 15.2497C17.0276 14.8608 16.5554 14.6663 15.9998 14.6663C15.4443 14.6663 14.9721 14.8608 14.5832 15.2497C14.1943 15.6386 13.9998 16.1108 13.9998 16.6663C13.9998 17.2219 14.1943 17.6941 14.5832 18.083C14.9721 18.4719 15.4443 18.6663 15.9998 18.6663Z" fill="#218448"/>
</svg>
