<svg width="32" height="32" viewBox="0 0 32 32" fill="none" xmlns="http://www.w3.org/2000/svg">
<path d="M10.4146 7.68945C12.3443 7.12118 14.4077 7.24608 16.2495 8.03418L16.6147 8.2002C18.5462 9.13513 20.0603 10.7565 20.8618 12.7471V12.7461C21.2214 13.6528 21.4285 14.6116 21.4761 15.584L21.4868 16.002C21.4797 18.0114 20.7721 19.9513 19.4927 21.4902L19.229 21.793C17.8725 23.2785 16.0428 24.2398 14.0591 24.5195L13.6606 24.5664C11.6577 24.7544 9.65626 24.2369 7.99951 23.1104L7.67236 22.877C5.95609 21.5893 4.78069 19.7086 4.37549 17.6016C3.99562 15.6262 4.31817 13.5845 5.27979 11.8271L5.48096 11.4795C6.52775 9.7614 8.13911 8.46609 10.0327 7.81152L10.4146 7.68945Z" stroke="#218448" stroke-width="3" stroke-miterlimit="10" stroke-linecap="square"/>
<path d="M12.827 13.6855C14.1046 13.6856 15.1405 14.7215 15.1405 15.999C15.1404 17.2765 14.1045 18.3124 12.827 18.3125C11.5495 18.3125 10.5136 17.2766 10.5135 15.999C10.5135 14.7214 11.5494 13.6855 12.827 13.6855Z" stroke="#218448" stroke-width="3" stroke-miterlimit="10" stroke-linecap="square"/>
<path d="M27.2544 7.33984L26.6431 9.18066L26.4478 9.76953L26.7251 10.3242L26.9058 10.6865H23.2114C22.5618 9.42218 21.6885 8.2884 20.6343 7.33984H27.2544Z" stroke="#218448" stroke-width="3" stroke-miterlimit="10" stroke-linecap="square"/>
</svg>
