<svg width="40" height="40" viewBox="0 0 40 40" fill="none" xmlns="http://www.w3.org/2000/svg">
<g clip-path="url(#clip0_348_252)">
<path d="M23.3333 38.6663V35.333C26.5833 35.333 29.3403 34.2011 31.6042 31.9372C33.8681 29.6733 35 26.9163 35 23.6663H38.3333C38.3333 25.7497 37.9375 27.7011 37.1458 29.5205C36.3542 31.34 35.2847 32.9233 33.9375 34.2705C32.5903 35.6177 31.0069 36.6872 29.1875 37.4788C27.3681 38.2705 25.4167 38.6663 23.3333 38.6663ZM23.3333 31.9997V28.6663C24.7222 28.6663 25.9028 28.1802 26.875 27.208C27.8472 26.2358 28.3333 25.0552 28.3333 23.6663H31.6667C31.6667 25.9719 30.8542 27.9372 29.2292 29.5622C27.6042 31.1872 25.6389 31.9997 23.3333 31.9997ZM9.25 37.6247C8.83333 37.6247 8.41667 37.5413 8 37.3747C7.58333 37.208 7.20833 36.9719 6.875 36.6663L0.958333 30.7497C0.652778 30.4163 0.416667 30.0413 0.25 29.6247C0.0833333 29.208 0 28.7913 0 28.3747C0 27.9302 0.0833333 27.5066 0.25 27.1038C0.416667 26.7011 0.652778 26.3469 0.958333 26.0413L6.25 20.7497C6.88889 20.1108 7.68056 19.7844 8.625 19.7705C9.56944 19.7566 10.3611 20.0691 11 20.708L13.0833 22.7913L14.25 21.6247L12.1667 19.5413C11.5278 18.9025 11.2083 18.1247 11.2083 17.208C11.2083 16.2913 11.5278 15.5136 12.1667 14.8747L14.5417 12.4997C15.1806 11.8608 15.9653 11.5413 16.8958 11.5413C17.8264 11.5413 18.6111 11.8608 19.25 12.4997L21.3333 14.583L22.5 13.4163L20.4167 11.333C19.7778 10.6941 19.4583 9.9094 19.4583 8.97884C19.4583 8.04829 19.7778 7.26356 20.4167 6.62467L25.7083 1.33301C26.0417 0.999674 26.4167 0.749674 26.8333 0.583008C27.25 0.416341 27.6667 0.333008 28.0833 0.333008C28.5 0.333008 28.9097 0.416341 29.3125 0.583008C29.7153 0.749674 30.0833 0.999674 30.4167 1.33301L36.3333 7.24967C36.6667 7.55523 36.9097 7.9094 37.0625 8.31217C37.2153 8.71495 37.2917 9.13856 37.2917 9.58301C37.2917 9.99967 37.2153 10.4163 37.0625 10.833C36.9097 11.2497 36.6667 11.6247 36.3333 11.958L31.0417 17.2497C30.4028 17.8886 29.6181 18.208 28.6875 18.208C27.7569 18.208 26.9722 17.8886 26.3333 17.2497L24.25 15.1663L23.0833 16.333L25.1667 18.4163C25.8056 19.0552 26.1181 19.84 26.1042 20.7705C26.0903 21.7011 25.7639 22.4858 25.125 23.1247L22.7917 25.458C22.1528 26.0969 21.3681 26.4163 20.4375 26.4163C19.5069 26.4163 18.7222 26.0969 18.0833 25.458L16 23.3747L14.8333 24.5413L16.9167 26.6247C17.5556 27.2636 17.8681 28.0552 17.8542 28.9997C17.8403 29.9441 17.5139 30.7358 16.875 31.3747L11.5833 36.6663C11.2778 36.9719 10.9236 37.208 10.5208 37.3747C10.1181 37.5413 9.69444 37.6247 9.25 37.6247ZM9.25 34.333L11 32.583L5.08333 26.6663L3.33333 28.4163L9.25 34.333ZM12.7917 30.7913L14.5417 29.0413L8.625 23.1247L6.875 24.8747L12.7917 30.7913ZM20.4583 23.1247L22.7917 20.7913L16.875 14.8747L14.5417 17.208L20.4583 23.1247ZM28.7083 14.8747L30.4583 13.1247L24.5417 7.20801L22.7917 8.95801L28.7083 14.8747ZM32.25 11.333L34 9.58301L28.0833 3.66634L26.3333 5.41634L32.25 11.333Z" fill="#218448"/>
</g>
<defs>
<clipPath id="clip0_348_252">
<rect width="40" height="40" fill="white"/>
</clipPath>
</defs>
</svg>
