<svg width="32" height="32" viewBox="0 0 32 32" fill="none" xmlns="http://www.w3.org/2000/svg">
<g clip-path="url(#clip0_453_2834)">
<path d="M25.3333 12.0007L27 8.33398L30.6667 6.66732L27 5.00065L25.3333 1.33398L23.6667 5.00065L20 6.66732L23.6667 8.33398L25.3333 12.0007Z" fill="#218448"/>
<path d="M25.3333 20L23.6667 23.6667L20 25.3333L23.6667 27L25.3333 30.6667L27 27L30.6667 25.3333L27 23.6667L25.3333 20Z" fill="#218448"/>
<path d="M15.333 12.6673L11.9997 5.33398L8.66634 12.6673L1.33301 16.0007L8.66634 19.334L11.9997 26.6673L15.333 19.334L22.6663 16.0007L15.333 12.6673ZM13.3197 17.3207L11.9997 20.2273L10.6797 17.3207L7.77301 16.0007L10.6797 14.6807L11.9997 11.774L13.3197 14.6807L16.2263 16.0007L13.3197 17.3207Z" fill="#218448"/>
</g>
<defs>
<clipPath id="clip0_453_2834">
<rect width="32" height="32" fill="white"/>
</clipPath>
</defs>
</svg>
