<svg width="32" height="32" viewBox="0 0 32 32" fill="none" xmlns="http://www.w3.org/2000/svg">
<g clip-path="url(#clip0_453_2922)">
<path d="M17.3604 26.5721V29.2654C20.0404 28.9988 22.4804 27.9321 24.4537 26.3188L22.5604 24.4121C21.0804 25.5588 19.307 26.3321 17.3604 26.5721Z" fill="#218448"/>
<path d="M5.3737 15.9991C5.3737 10.5991 9.4137 6.11909 14.6404 5.42576V2.73242C7.9337 3.43909 2.70703 9.11909 2.70703 15.9991C2.70703 22.8791 7.9337 28.5591 14.6404 29.2658V26.5724C9.4137 25.8791 5.3737 21.3991 5.3737 15.9991Z" fill="#218448"/>
<path d="M26.6004 14.6656H29.2938C29.0271 11.9856 27.9604 9.5456 26.3471 7.57227L24.4404 9.47893C25.5871 10.9456 26.3604 12.7189 26.6004 14.6656Z" fill="#218448"/>
<path d="M24.4537 5.67909C22.4804 4.06576 20.027 2.99909 17.3604 2.73242V5.42576C19.307 5.66576 21.0804 6.43909 22.5604 7.58576L24.4537 5.67909Z" fill="#218448"/>
<path d="M24.4404 22.532L26.3471 24.4254C27.9604 22.452 29.0271 20.012 29.2938 17.332H26.6004C26.3604 19.2787 25.5871 21.052 24.4404 22.532Z" fill="#218448"/>
<path d="M21.3337 14.7987C21.3337 11.4787 18.8003 9.33203 16.0003 9.33203C13.2003 9.33203 10.667 11.4787 10.667 14.7987C10.667 17.012 12.4403 19.6387 16.0003 22.6654C19.5603 19.6387 21.3337 17.012 21.3337 14.7987ZM16.0003 15.9987C15.2137 15.9987 14.5737 15.3587 14.5737 14.572C14.5737 13.7854 15.2137 13.1454 16.0003 13.1454C16.787 13.1454 17.427 13.7854 17.427 14.572C17.427 15.3587 16.787 15.9987 16.0003 15.9987Z" fill="#218448"/>
</g>
<defs>
<clipPath id="clip0_453_2922">
<rect width="32" height="32" fill="white"/>
</clipPath>
</defs>
</svg>
