<svg width="32" height="32" viewBox="0 0 32 32" fill="none" xmlns="http://www.w3.org/2000/svg">
<path d="M9.33331 26.667V11.967C9.33331 11.2337 9.59998 10.6115 10.1333 10.1003C10.6666 9.58923 11.3 9.33368 12.0333 9.33368H26.6666C27.4 9.33368 28.0278 9.59479 28.55 10.117C29.0722 10.6392 29.3333 11.267 29.3333 12.0003V22.667L22.6666 29.3337H12C11.2666 29.3337 10.6389 29.0726 10.1166 28.5503C9.59442 28.0281 9.33331 27.4003 9.33331 26.667ZM2.69998 8.33368C2.56664 7.60034 2.71109 6.93923 3.13331 6.35034C3.55553 5.76145 4.13331 5.40034 4.86664 5.26701L19.3333 2.70034C20.0666 2.56701 20.7278 2.71145 21.3166 3.13368C21.9055 3.5559 22.2666 4.13368 22.4 4.86701L22.7333 6.66701H20L19.7666 5.33368L5.33331 7.90034L6.66664 15.4337V24.7337C6.31109 24.5337 6.00553 24.267 5.74998 23.9337C5.49442 23.6003 5.33331 23.2226 5.26664 22.8003L2.69998 8.33368ZM12 12.0003V26.667H21.3333V21.3337H26.6666V12.0003H12Z" fill="#218448"/>
</svg>
