<svg width="32" height="32" viewBox="0 0 32 32" fill="none" xmlns="http://www.w3.org/2000/svg">
<path d="M5.30001 28.0007V24.0007H9.43334L6.03334 12.8673C5.43334 12.534 4.9389 12.0451 4.55001 11.4007C4.16112 10.7562 3.96667 10.0673 3.96667 9.33401C3.96667 8.2229 4.35556 7.27846 5.13334 6.50068C5.91112 5.7229 6.85556 5.33401 7.96668 5.33401C8.83334 5.33401 9.60556 5.58401 10.2833 6.08401C10.9611 6.58401 11.4333 7.2229 11.7 8.00068H15.9667V6.66735C15.9667 6.28957 16.0945 5.9729 16.35 5.71735C16.6056 5.46179 16.9222 5.33401 17.3 5.33401C17.5 5.33401 17.6945 5.37846 17.8833 5.46735C18.0722 5.55624 18.2333 5.68957 18.3667 5.86735L20.6333 3.73401C20.8333 3.53402 21.0722 3.40624 21.35 3.35068C21.6278 3.29513 21.9 3.33402 22.1667 3.46735L27.3667 5.86735C27.6333 6.00068 27.8167 6.19513 27.9167 6.45068C28.0167 6.70624 28.0111 6.95624 27.9 7.20068C27.7667 7.46735 27.5722 7.63957 27.3167 7.71735C27.0611 7.79513 26.8111 7.77846 26.5667 7.66735L21.7667 5.46735L18.6333 8.40068V10.2673L21.7667 13.134L26.5667 10.934C26.8111 10.8229 27.0667 10.8118 27.3333 10.9007C27.6 10.9896 27.7889 11.1562 27.9 11.4007C28.0333 11.6673 28.0445 11.9229 27.9333 12.1673C27.8222 12.4118 27.6333 12.6007 27.3667 12.734L22.1667 15.2007C21.9 15.334 21.6278 15.3729 21.35 15.3173C21.0722 15.2618 20.8333 15.134 20.6333 14.934L18.3667 12.8007C18.2333 12.934 18.0722 13.0562 17.8833 13.1673C17.6945 13.2785 17.5 13.334 17.3 13.334C16.9222 13.334 16.6056 13.2062 16.35 12.9507C16.0945 12.6951 15.9667 12.3785 15.9667 12.0007V10.6673H11.7C11.6333 10.8451 11.5611 11.0118 11.4833 11.1673C11.4056 11.3229 11.3 11.4896 11.1667 11.6673L17.8333 24.0007H22.6333V28.0007H5.30001ZM7.96668 10.6673C8.34445 10.6673 8.66112 10.5396 8.91668 10.284C9.17223 10.0285 9.30001 9.71179 9.30001 9.33401C9.30001 8.95624 9.17223 8.63957 8.91668 8.38401C8.66112 8.12846 8.34445 8.00068 7.96668 8.00068C7.5889 8.00068 7.27223 8.12846 7.01667 8.38401C6.76112 8.63957 6.63334 8.95624 6.63334 9.33401C6.63334 9.71179 6.76112 10.0285 7.01667 10.284C7.27223 10.5396 7.5889 10.6673 7.96668 10.6673ZM12.1667 24.0007H14.7667L9.03334 13.334H8.90001L12.1667 24.0007Z" fill="#218448"/>
</svg>
