<svg width="32" height="32" viewBox="0 0 32 32" fill="none" xmlns="http://www.w3.org/2000/svg">
<path d="M6.66683 29.3346V26.668H14.6668V21.3346H12.0002C10.1557 21.3346 8.5835 20.6846 7.2835 19.3846C5.9835 18.0846 5.3335 16.5124 5.3335 14.668C5.3335 13.3346 5.70016 12.1069 6.4335 10.9846C7.16683 9.86241 8.15572 9.04575 9.40016 8.53464C9.60016 6.86797 10.3279 5.47352 11.5835 4.3513C12.8391 3.22908 14.3113 2.66797 16.0002 2.66797C17.6891 2.66797 19.1613 3.22908 20.4168 4.3513C21.6724 5.47352 22.4002 6.86797 22.6002 8.53464C23.8446 9.04575 24.8335 9.86241 25.5668 10.9846C26.3002 12.1069 26.6668 13.3346 26.6668 14.668C26.6668 16.5124 26.0168 18.0846 24.7168 19.3846C23.4168 20.6846 21.8446 21.3346 20.0002 21.3346H17.3335V26.668H25.3335V29.3346H6.66683ZM12.0002 18.668H20.0002C21.1113 18.668 22.0557 18.2791 22.8335 17.5013C23.6113 16.7235 24.0002 15.7791 24.0002 14.668C24.0002 13.868 23.7724 13.1346 23.3168 12.468C22.8613 11.8013 22.2668 11.3124 21.5335 11.0013L20.1335 10.4013L19.9335 8.86797C19.8002 7.86797 19.3613 7.02908 18.6168 6.3513C17.8724 5.67352 17.0002 5.33464 16.0002 5.33464C15.0002 5.33464 14.1279 5.67352 13.3835 6.3513C12.6391 7.02908 12.2002 7.86797 12.0668 8.86797L11.8668 10.4013L10.4668 11.0013C9.7335 11.3124 9.13905 11.8013 8.6835 12.468C8.22794 13.1346 8.00016 13.868 8.00016 14.668C8.00016 15.7791 8.38905 16.7235 9.16683 17.5013C9.94461 18.2791 10.8891 18.668 12.0002 18.668Z" fill="#218448"/>
<rect x="16" width="16" height="16" rx="8" fill="#555555"/>
<path d="M23.3335 11.8987L21.6168 13.582C21.4946 13.7043 21.3418 13.7654 21.1585 13.7654C20.9752 13.7654 20.8224 13.6987 20.7002 13.5654C20.5668 13.4431 20.5002 13.2904 20.5002 13.107C20.5002 12.9237 20.5668 12.7654 20.7002 12.632L23.3335 9.9987V8.66536H22.0002L19.3502 11.3154C19.2279 11.4376 19.0752 11.4987 18.8918 11.4987C18.7085 11.4987 18.5502 11.432 18.4168 11.2987C18.2946 11.1765 18.2335 11.0237 18.2335 10.8404C18.2335 10.657 18.2946 10.5043 18.4168 10.382L20.1002 8.66536H17.9835C17.7946 8.66536 17.6391 8.60148 17.5168 8.4737C17.3946 8.34592 17.3335 8.18759 17.3335 7.9987C17.3335 7.80981 17.3974 7.65148 17.5252 7.5237C17.6529 7.39592 17.8113 7.33203 18.0002 7.33203H20.1002L18.4168 5.63203C18.2946 5.50981 18.2335 5.35703 18.2335 5.1737C18.2335 4.99036 18.3002 4.83203 18.4335 4.6987C18.5557 4.57648 18.7085 4.51536 18.8918 4.51536C19.0752 4.51536 19.2335 4.57648 19.3668 4.6987L22.0002 7.33203H23.3335V5.9987L20.6835 3.36536C20.5613 3.24314 20.5002 3.09036 20.5002 2.90703C20.5002 2.7237 20.5668 2.56536 20.7002 2.43203C20.8224 2.30981 20.9752 2.2487 21.1585 2.2487C21.3418 2.2487 21.4946 2.30981 21.6168 2.43203L23.3335 4.0987V1.9987C23.3335 1.80981 23.3974 1.65148 23.5252 1.5237C23.6529 1.39592 23.8113 1.33203 24.0002 1.33203C24.1891 1.33203 24.3474 1.39592 24.4752 1.5237C24.6029 1.65148 24.6668 1.80981 24.6668 1.9987V4.0987L26.3668 2.43203C26.4891 2.30981 26.6418 2.2487 26.8252 2.2487C27.0085 2.2487 27.1668 2.30981 27.3002 2.43203C27.4224 2.56536 27.4835 2.7237 27.4835 2.90703C27.4835 3.09036 27.4224 3.24314 27.3002 3.36536L24.6668 5.9987V7.33203H26.0002L28.6335 4.6987C28.7557 4.57648 28.9085 4.51536 29.0918 4.51536C29.2752 4.51536 29.4335 4.58203 29.5668 4.71536C29.6891 4.83759 29.7502 4.99036 29.7502 5.1737C29.7502 5.35703 29.6891 5.50981 29.5668 5.63203L27.9002 7.33203H30.0002C30.1891 7.33203 30.3474 7.39592 30.4752 7.5237C30.6029 7.65148 30.6668 7.80981 30.6668 7.9987C30.6668 8.18759 30.6029 8.34592 30.4752 8.4737C30.3474 8.60148 30.1891 8.66536 30.0002 8.66536H27.9002L29.5668 10.382C29.6891 10.5043 29.7502 10.657 29.7502 10.8404C29.7502 11.0237 29.6891 11.1765 29.5668 11.2987C29.4335 11.432 29.2752 11.4987 29.0918 11.4987C28.9085 11.4987 28.7557 11.432 28.6335 11.2987L26.0002 8.66536H24.6668V9.9987L27.3002 12.6487C27.4224 12.7709 27.4835 12.9237 27.4835 13.107C27.4835 13.2904 27.4168 13.4487 27.2835 13.582C27.1613 13.7043 27.0085 13.7654 26.8252 13.7654C26.6418 13.7654 26.4891 13.7043 26.3668 13.582L24.6668 11.8987V14.0154C24.6668 14.2043 24.6029 14.3598 24.4752 14.482C24.3474 14.6043 24.1891 14.6654 24.0002 14.6654C23.8113 14.6654 23.6529 14.6015 23.5252 14.4737C23.3974 14.3459 23.3335 14.1876 23.3335 13.9987V11.8987Z" fill="white"/>
</svg>
