<svg width="40" height="40" viewBox="0 0 40 40" fill="none" xmlns="http://www.w3.org/2000/svg">
<path d="M16.6668 36.6667V29.8333L28.9168 17.6667C29.2502 17.3333 29.6182 17.0833 30.021 16.9167C30.4238 16.75 30.8474 16.6667 31.2918 16.6667C31.7363 16.6667 32.1599 16.75 32.5627 16.9167C32.9654 17.0833 33.3335 17.3333 33.6668 17.6667L35.7085 19.75C36.014 20.0833 36.2502 20.4514 36.4168 20.8542C36.5835 21.2569 36.6668 21.6667 36.6668 22.0833C36.6668 22.5 36.5765 22.9097 36.396 23.3125C36.2154 23.7153 35.9724 24.0833 35.6668 24.4167L23.5002 36.6667H16.6668ZM20.0002 33.3333H22.0835L28.8335 26.5833L27.7918 25.5417L26.7502 24.5L20.0002 31.25V33.3333ZM17.9168 15.4167L15.5835 13.0417L18.6252 10H13.0418C12.7918 10.7222 12.4029 11.3472 11.8752 11.875C11.3474 12.4028 10.7224 12.7917 10.0002 13.0417V26.9583C10.9724 27.3194 11.771 27.9236 12.396 28.7708C13.021 29.6181 13.3335 30.5833 13.3335 31.6667C13.3335 33.0556 12.8474 34.2361 11.8752 35.2083C10.9029 36.1806 9.72238 36.6667 8.3335 36.6667C6.94461 36.6667 5.76405 36.1806 4.79183 35.2083C3.81961 34.2361 3.3335 33.0556 3.3335 31.6667C3.3335 30.5833 3.646 29.625 4.271 28.7917C4.896 27.9583 5.69461 27.3611 6.66683 27V13.0417C5.69461 12.6806 4.896 12.0764 4.271 11.2292C3.646 10.3819 3.3335 9.41667 3.3335 8.33333C3.3335 6.94444 3.81961 5.76389 4.79183 4.79167C5.76405 3.81944 6.94461 3.33333 8.3335 3.33333C9.41683 3.33333 10.3821 3.64583 11.2293 4.27083C12.0766 4.89583 12.6807 5.69444 13.0418 6.66667H18.6252L15.5835 3.625L17.9168 1.25L25.0002 8.33333L17.9168 15.4167ZM31.6668 3.33333C33.0557 3.33333 34.2363 3.81944 35.2085 4.79167C36.1807 5.76389 36.6668 6.94444 36.6668 8.33333C36.6668 9.72222 36.1807 10.9028 35.2085 11.875C34.2363 12.8472 33.0557 13.3333 31.6668 13.3333C30.2779 13.3333 29.0974 12.8472 28.1252 11.875C27.1529 10.9028 26.6668 9.72222 26.6668 8.33333C26.6668 6.94444 27.1529 5.76389 28.1252 4.79167C29.0974 3.81944 30.2779 3.33333 31.6668 3.33333ZM8.3335 33.3333C8.80572 33.3333 9.20155 33.1736 9.521 32.8542C9.84044 32.5347 10.0002 32.1389 10.0002 31.6667C10.0002 31.1944 9.84044 30.7986 9.521 30.4792C9.20155 30.1597 8.80572 30 8.3335 30C7.86127 30 7.46544 30.1597 7.146 30.4792C6.82655 30.7986 6.66683 31.1944 6.66683 31.6667C6.66683 32.1389 6.82655 32.5347 7.146 32.8542C7.46544 33.1736 7.86127 33.3333 8.3335 33.3333ZM8.3335 10C8.80572 10 9.20155 9.84028 9.521 9.52083C9.84044 9.20139 10.0002 8.80556 10.0002 8.33333C10.0002 7.86111 9.84044 7.46528 9.521 7.14583C9.20155 6.82639 8.80572 6.66667 8.3335 6.66667C7.86127 6.66667 7.46544 6.82639 7.146 7.14583C6.82655 7.46528 6.66683 7.86111 6.66683 8.33333C6.66683 8.80556 6.82655 9.20139 7.146 9.52083C7.46544 9.84028 7.86127 10 8.3335 10ZM31.6668 10C32.139 10 32.5349 9.84028 32.8543 9.52083C33.1738 9.20139 33.3335 8.80556 33.3335 8.33333C33.3335 7.86111 33.1738 7.46528 32.8543 7.14583C32.5349 6.82639 32.139 6.66667 31.6668 6.66667C31.1946 6.66667 30.7988 6.82639 30.4793 7.14583C30.1599 7.46528 30.0002 7.86111 30.0002 8.33333C30.0002 8.80556 30.1599 9.20139 30.4793 9.52083C30.7988 9.84028 31.1946 10 31.6668 10Z" fill="#218448"/>
</svg>
