<svg width="32" height="32" viewBox="0 0 32 32" fill="none" xmlns="http://www.w3.org/2000/svg">
<path d="M12.8 20.7997L14.6667 18.8663L11.8 15.9997L14.6667 13.133L12.8 11.1997L8 15.9997L12.8 20.7997ZM19.2 20.7997L24 15.9997L19.2 11.1997L17.3333 13.133L20.2 15.9997L17.3333 18.8663L19.2 20.7997ZM6.66667 27.9997C5.93333 27.9997 5.30556 27.7386 4.78333 27.2163C4.26111 26.6941 4 26.0663 4 25.333V6.66634C4 5.93301 4.26111 5.30523 4.78333 4.78301C5.30556 4.26079 5.93333 3.99967 6.66667 3.99967H12.2667C12.5556 3.19967 13.0389 2.55523 13.7167 2.06634C14.3944 1.57745 15.1556 1.33301 16 1.33301C16.8444 1.33301 17.6056 1.57745 18.2833 2.06634C18.9611 2.55523 19.4444 3.19967 19.7333 3.99967H25.3333C26.0667 3.99967 26.6944 4.26079 27.2167 4.78301C27.7389 5.30523 28 5.93301 28 6.66634V25.333C28 26.0663 27.7389 26.6941 27.2167 27.2163C26.6944 27.7386 26.0667 27.9997 25.3333 27.9997H6.66667ZM6.66667 25.333H25.3333V6.66634H6.66667V25.333ZM16 5.66634C16.2889 5.66634 16.5278 5.5719 16.7167 5.38301C16.9056 5.19412 17 4.95523 17 4.66634C17 4.37745 16.9056 4.13856 16.7167 3.94967C16.5278 3.76079 16.2889 3.66634 16 3.66634C15.7111 3.66634 15.4722 3.76079 15.2833 3.94967C15.0944 4.13856 15 4.37745 15 4.66634C15 4.95523 15.0944 5.19412 15.2833 5.38301C15.4722 5.5719 15.7111 5.66634 16 5.66634Z" fill="#218448"/>
</svg>
