<svg width="40" height="40" viewBox="0 0 40 40" fill="none" xmlns="http://www.w3.org/2000/svg">
<path d="M20.667 16V18.333C20.667 18.8853 21.1147 19.333 21.667 19.333H26.333C26.5982 19.333 26.8525 19.2276 27.04 19.04L30.0811 16H33.333C33.4657 16 33.5944 16.0398 33.7031 16.1123L33.8047 16.1953C33.9297 16.3203 34 16.4902 34 16.667V33.333C34 33.4657 33.9602 33.5944 33.8877 33.7031L33.8047 33.8047C33.6797 33.9297 33.5098 34 33.333 34H8.33301C7.79164 33.9999 7.26961 33.8118 6.85449 33.4717L6.68359 33.3164C6.30076 32.9336 6.06479 32.4315 6.01172 31.8975L6 31.667C6 31.1254 6.18802 30.6027 6.52832 30.1875L6.68359 30.0166C7.12109 29.5792 7.71436 29.3331 8.33301 29.333H11.667C12.1846 29.3328 12.6099 28.9397 12.6611 28.4355L12.667 28.333V16H20.667ZM8.33301 11H10.667V27.333H8.33301C7.4997 27.3331 6.69136 27.5738 6 28.0156V13.333C6.00008 12.7916 6.18819 12.2696 6.52832 11.8545L6.68359 11.6836C7.06643 11.3008 7.56846 11.0648 8.10254 11.0117L8.33301 11Z" stroke="#218448" stroke-width="2" stroke-linecap="round" stroke-linejoin="round"/>
<path d="M31.0163 6.00781C31.1472 6.00781 31.2746 6.04636 31.3825 6.11719L31.4831 6.19824L33.8024 8.51758L33.8835 8.61816C33.9544 8.72613 33.9929 8.85333 33.9929 8.98438C33.9928 9.15707 33.9252 9.3221 33.8054 9.44629L25.9196 17.334H22.6667V14.082L30.5505 6.19824C30.6438 6.10686 30.7611 6.04549 30.8874 6.02051L31.0163 6.00781Z" stroke="#218448" stroke-width="2" stroke-linecap="round" stroke-linejoin="round"/>
</svg>
