<svg width="32" height="32" viewBox="0 0 32 32" fill="none" xmlns="http://www.w3.org/2000/svg">
<path d="M6.6665 29.3346C5.55539 29.3346 4.61095 28.9457 3.83317 28.168C3.05539 27.3902 2.6665 26.4457 2.6665 25.3346C2.6665 24.468 2.9165 23.6957 3.4165 23.018C3.9165 22.3402 4.55539 21.8569 5.33317 21.568V10.4346C4.55539 10.1457 3.9165 9.66241 3.4165 8.98463C2.9165 8.30686 2.6665 7.53464 2.6665 6.66797C2.6665 5.55686 3.05539 4.61241 3.83317 3.83464C4.61095 3.05686 5.55539 2.66797 6.6665 2.66797C7.53317 2.66797 8.30539 2.91797 8.98317 3.41797C9.66095 3.91797 10.1443 4.55686 10.4332 5.33464H21.5665C21.8332 4.55686 22.3054 3.91797 22.9832 3.41797C23.6609 2.91797 24.4443 2.66797 25.3332 2.66797C26.4443 2.66797 27.3887 3.05686 28.1665 3.83464C28.9443 4.61241 29.3332 5.55686 29.3332 6.66797C29.3332 7.55686 29.0832 8.34019 28.5832 9.01797C28.0832 9.69575 27.4443 10.168 26.6665 10.4346V21.568C27.4443 21.8569 28.0832 22.3402 28.5832 23.018C29.0832 23.6957 29.3332 24.468 29.3332 25.3346C29.3332 26.4457 28.9443 27.3902 28.1665 28.168C27.3887 28.9457 26.4443 29.3346 25.3332 29.3346C24.4665 29.3346 23.6943 29.0846 23.0165 28.5846C22.3387 28.0846 21.8554 27.4457 21.5665 26.668H10.4332C10.1443 27.4457 9.66095 28.0846 8.98317 28.5846C8.30539 29.0846 7.53317 29.3346 6.6665 29.3346ZM6.6665 8.0013C7.04428 8.0013 7.36095 7.87352 7.6165 7.61797C7.87206 7.36241 7.99984 7.04575 7.99984 6.66797C7.99984 6.29019 7.87206 5.97352 7.6165 5.71797C7.36095 5.46241 7.04428 5.33464 6.6665 5.33464C6.28873 5.33464 5.97206 5.46241 5.7165 5.71797C5.46095 5.97352 5.33317 6.29019 5.33317 6.66797C5.33317 7.04575 5.46095 7.36241 5.7165 7.61797C5.97206 7.87352 6.28873 8.0013 6.6665 8.0013ZM25.3332 8.0013C25.7109 8.0013 26.0276 7.87352 26.2832 7.61797C26.5387 7.36241 26.6665 7.04575 26.6665 6.66797C26.6665 6.29019 26.5387 5.97352 26.2832 5.71797C26.0276 5.46241 25.7109 5.33464 25.3332 5.33464C24.9554 5.33464 24.6387 5.46241 24.3832 5.71797C24.1276 5.97352 23.9998 6.29019 23.9998 6.66797C23.9998 7.04575 24.1276 7.36241 24.3832 7.61797C24.6387 7.87352 24.9554 8.0013 25.3332 8.0013ZM10.4332 24.0013H21.5665C21.7665 23.4235 22.0776 22.9235 22.4998 22.5013C22.9221 22.0791 23.4221 21.768 23.9998 21.568V10.4346C23.4221 10.2346 22.9221 9.92352 22.4998 9.5013C22.0776 9.07908 21.7665 8.57908 21.5665 8.0013H10.4332C10.2332 8.57908 9.92206 9.07908 9.49984 9.5013C9.07761 9.92352 8.57761 10.2346 7.99984 10.4346V21.568C8.57761 21.768 9.07761 22.0791 9.49984 22.5013C9.92206 22.9235 10.2332 23.4235 10.4332 24.0013ZM25.3332 26.668C25.7109 26.668 26.0276 26.5402 26.2832 26.2846C26.5387 26.0291 26.6665 25.7124 26.6665 25.3346C26.6665 24.9569 26.5387 24.6402 26.2832 24.3846C26.0276 24.1291 25.7109 24.0013 25.3332 24.0013C24.9554 24.0013 24.6387 24.1291 24.3832 24.3846C24.1276 24.6402 23.9998 24.9569 23.9998 25.3346C23.9998 25.7124 24.1276 26.0291 24.3832 26.2846C24.6387 26.5402 24.9554 26.668 25.3332 26.668ZM6.6665 26.668C7.04428 26.668 7.36095 26.5402 7.6165 26.2846C7.87206 26.0291 7.99984 25.7124 7.99984 25.3346C7.99984 24.9569 7.87206 24.6402 7.6165 24.3846C7.36095 24.1291 7.04428 24.0013 6.6665 24.0013C6.28873 24.0013 5.97206 24.1291 5.7165 24.3846C5.46095 24.6402 5.33317 24.9569 5.33317 25.3346C5.33317 25.7124 5.46095 26.0291 5.7165 26.2846C5.97206 26.5402 6.28873 26.668 6.6665 26.668Z" fill="#218448"/>
</svg>
