<svg width="32" height="32" viewBox="0 0 32 32" fill="none" xmlns="http://www.w3.org/2000/svg">
<path d="M15.9998 29.3346C14.1776 29.3346 12.4554 28.9846 10.8332 28.2846C9.21095 27.5846 7.79428 26.6291 6.58317 25.418C5.37206 24.2069 4.4165 22.7902 3.7165 21.168C3.0165 19.5457 2.6665 17.8235 2.6665 16.0013C2.6665 14.1569 3.02762 12.4235 3.74984 10.8013C4.47206 9.17908 5.44984 7.76797 6.68317 6.56797C7.9165 5.36797 9.35539 4.41797 10.9998 3.71797C12.6443 3.01797 14.3998 2.66797 16.2665 2.66797C18.0443 2.66797 19.7221 2.97352 21.2998 3.58464C22.8776 4.19575 24.2609 5.04019 25.4498 6.11797C26.6387 7.19575 27.5832 8.47352 28.2832 9.9513C28.9832 11.4291 29.3332 13.0235 29.3332 14.7346C29.3332 17.2902 28.5554 19.2513 26.9998 20.618C25.4443 21.9846 23.5554 22.668 21.3332 22.668H18.8665C18.6665 22.668 18.5276 22.7235 18.4498 22.8346C18.3721 22.9457 18.3332 23.068 18.3332 23.2013C18.3332 23.468 18.4998 23.8513 18.8332 24.3513C19.1665 24.8513 19.3332 25.4235 19.3332 26.068C19.3332 27.1791 19.0276 28.0013 18.4165 28.5346C17.8054 29.068 16.9998 29.3346 15.9998 29.3346ZM8.6665 17.3346C9.24428 17.3346 9.72206 17.1457 10.0998 16.768C10.4776 16.3902 10.6665 15.9124 10.6665 15.3346C10.6665 14.7569 10.4776 14.2791 10.0998 13.9013C9.72206 13.5235 9.24428 13.3346 8.6665 13.3346C8.08873 13.3346 7.61095 13.5235 7.23317 13.9013C6.85539 14.2791 6.6665 14.7569 6.6665 15.3346C6.6665 15.9124 6.85539 16.3902 7.23317 16.768C7.61095 17.1457 8.08873 17.3346 8.6665 17.3346ZM12.6665 12.0013C13.2443 12.0013 13.7221 11.8124 14.0998 11.4346C14.4776 11.0569 14.6665 10.5791 14.6665 10.0013C14.6665 9.42352 14.4776 8.94575 14.0998 8.56797C13.7221 8.19019 13.2443 8.0013 12.6665 8.0013C12.0887 8.0013 11.6109 8.19019 11.2332 8.56797C10.8554 8.94575 10.6665 9.42352 10.6665 10.0013C10.6665 10.5791 10.8554 11.0569 11.2332 11.4346C11.6109 11.8124 12.0887 12.0013 12.6665 12.0013ZM19.3332 12.0013C19.9109 12.0013 20.3887 11.8124 20.7665 11.4346C21.1443 11.0569 21.3332 10.5791 21.3332 10.0013C21.3332 9.42352 21.1443 8.94575 20.7665 8.56797C20.3887 8.19019 19.9109 8.0013 19.3332 8.0013C18.7554 8.0013 18.2776 8.19019 17.8998 8.56797C17.5221 8.94575 17.3332 9.42352 17.3332 10.0013C17.3332 10.5791 17.5221 11.0569 17.8998 11.4346C18.2776 11.8124 18.7554 12.0013 19.3332 12.0013ZM23.3332 17.3346C23.9109 17.3346 24.3887 17.1457 24.7665 16.768C25.1443 16.3902 25.3332 15.9124 25.3332 15.3346C25.3332 14.7569 25.1443 14.2791 24.7665 13.9013C24.3887 13.5235 23.9109 13.3346 23.3332 13.3346C22.7554 13.3346 22.2776 13.5235 21.8998 13.9013C21.5221 14.2791 21.3332 14.7569 21.3332 15.3346C21.3332 15.9124 21.5221 16.3902 21.8998 16.768C22.2776 17.1457 22.7554 17.3346 23.3332 17.3346ZM15.9998 26.668C16.1998 26.668 16.3609 26.6124 16.4832 26.5013C16.6054 26.3902 16.6665 26.2457 16.6665 26.068C16.6665 25.7569 16.4998 25.3902 16.1665 24.968C15.8332 24.5457 15.6665 23.9124 15.6665 23.068C15.6665 22.1346 15.9887 21.3902 16.6332 20.8346C17.2776 20.2791 18.0665 20.0013 18.9998 20.0013H21.3332C22.7998 20.0013 24.0554 19.5735 25.0998 18.718C26.1443 17.8624 26.6665 16.5346 26.6665 14.7346C26.6665 12.0457 25.6387 9.80686 23.5832 8.01797C21.5276 6.22908 19.0887 5.33464 16.2665 5.33464C13.2443 5.33464 10.6665 6.36797 8.53317 8.43464C6.39984 10.5013 5.33317 13.0235 5.33317 16.0013C5.33317 18.9569 6.37206 21.4735 8.44984 23.5513C10.5276 25.6291 13.0443 26.668 15.9998 26.668Z" fill="#218448"/>
</svg>
