<svg width="32" height="32" viewBox="0 0 32 32" fill="none" xmlns="http://www.w3.org/2000/svg">
<path fill-rule="evenodd" clip-rule="evenodd" d="M21.0589 1.60261C20.945 1.60361 20.8326 1.62892 20.7293 1.67685L10.9331 6.22757L1.13696 1.67717C0.60672 1.43045 0 1.81765 0 2.40261V24.8954C2.55836e-05 25.0479 0.0436238 25.1972 0.125659 25.3257C0.207695 25.4542 0.324751 25.5566 0.46304 25.6208L10.5962 30.328C10.7018 30.3772 10.8169 30.4026 10.9334 30.4026C11.05 30.4026 11.1651 30.3772 11.2707 30.328L21.0669 25.7776L30.863 30.328C31.3933 30.5744 32 30.1872 32 29.6026V7.10981C32 6.95733 31.9564 6.80804 31.8743 6.67952C31.7923 6.55099 31.6752 6.44859 31.537 6.38437L30.7526 6.02021C30.4873 6.50335 30.1449 6.93992 29.7389 7.31269L30.4 7.61989V14.2189C31.3811 15.7389 31.5862 17.7754 30.4157 19.3044L30.4 19.3277V28.3488L21.543 24.2346L21.4976 16.2983C21.2208 16.0557 20.8877 15.8532 20.5344 15.6656L20.583 24.2375L11.4067 28.5008L11.2886 7.82693L20.465 3.56421L20.4746 5.25285C20.7923 5.01157 21.1098 4.77253 21.4307 4.56357L21.4243 3.45093L22.1299 3.77925C22.1597 3.22981 22.3043 2.69733 22.5357 2.20293L21.4038 1.67717C21.2958 1.62694 21.178 1.60147 21.0589 1.60261ZM1.6 3.65637L10.328 7.71077L10.4467 28.4948L1.6 24.384V3.65637Z" fill="#218448"/>
<path d="M26.6707 0.800781C25.8058 0.800781 24.9762 1.1444 24.3646 1.75603C23.7529 2.36767 23.4093 3.19723 23.4093 4.06222C23.4101 4.33673 23.4456 4.61004 23.5149 4.87566L18.3315 8.02606C17.7249 7.44195 16.9158 7.11514 16.0736 7.11406C15.6453 7.1141 15.2212 7.19851 14.8255 7.36248C14.4298 7.52644 14.0702 7.76674 13.7674 8.06965C13.4646 8.37257 13.2244 8.73217 13.0605 9.12792C12.8967 9.52367 12.8124 9.94782 12.8125 10.3761C12.8126 11.241 13.1561 12.0703 13.7676 12.6819C14.3791 13.2934 15.2085 13.6371 16.0733 13.6373C16.8606 13.6359 17.6209 13.3499 18.2138 12.8318L23.4762 16.0312C23.4316 16.2475 23.4091 16.4679 23.409 16.6888C23.409 17.5538 23.7526 18.3833 24.3642 18.995C24.9759 19.6066 25.8054 19.9502 26.6704 19.9502C27.0987 19.9503 27.5229 19.8659 27.9186 19.7021C28.3144 19.5382 28.6739 19.2979 28.9768 18.9951C29.2797 18.6922 29.52 18.3327 29.6839 17.937C29.8478 17.5412 29.9322 17.1171 29.9322 16.6888C29.9322 16.2605 29.8479 15.8363 29.684 15.4406C29.5201 15.0449 29.2799 14.6853 28.977 14.3824C28.6742 14.0795 28.3146 13.8392 27.9189 13.6753C27.5232 13.5114 27.0991 13.427 26.6707 13.427C26.2328 13.4276 25.7995 13.5164 25.3966 13.6881C24.9937 13.8598 24.6295 14.1109 24.3258 14.4264L19.1978 11.3102C19.2887 11.0071 19.3351 10.6923 19.3354 10.3758C19.3343 10.1129 19.3014 9.85103 19.2375 9.59598L24.4375 6.4347C25.0416 7.00454 25.8403 7.32248 26.6707 7.32366C27.099 7.32366 27.5231 7.2393 27.9188 7.0754C28.3145 6.9115 28.6741 6.67126 28.9769 6.36841C29.2798 6.06555 29.52 5.70602 29.6839 5.31032C29.8478 4.91462 29.9322 4.49052 29.9322 4.06222C29.9322 3.63392 29.8478 3.20982 29.6839 2.81412C29.52 2.41843 29.2798 2.05889 28.9769 1.75603C28.6741 1.45318 28.3145 1.21295 27.9188 1.04904C27.5231 0.885141 27.099 0.800781 26.6707 0.800781Z" fill="#218448"/>
</svg>
