<svg width="32" height="32" viewBox="0 0 32 32" fill="none" xmlns="http://www.w3.org/2000/svg">
<path d="M15.9998 21.967C18.1998 20.1892 19.8609 18.4781 20.9832 16.8337C22.1054 15.1892 22.6665 13.6448 22.6665 12.2003C22.6665 10.2003 22.0443 8.55588 20.7998 7.26699C19.5554 5.9781 17.9554 5.33366 15.9998 5.33366C14.0443 5.33366 12.4443 5.9781 11.1998 7.26699C9.95539 8.55588 9.33317 10.2003 9.33317 12.2003C9.33317 13.6448 9.89428 15.1892 11.0165 16.8337C12.1387 18.4781 13.7998 20.1892 15.9998 21.967ZM15.9998 25.3337C12.8665 23.0225 10.5276 20.7781 8.98317 18.6003C7.43873 16.4225 6.6665 14.2892 6.6665 12.2003C6.6665 9.42255 7.53317 7.13921 9.2665 5.35033C10.9998 3.56144 13.2443 2.66699 15.9998 2.66699C18.7554 2.66699 20.9998 3.56144 22.7332 5.35033C24.4665 7.13921 25.3332 9.42255 25.3332 12.2003C25.3332 14.2892 24.5609 16.4225 23.0165 18.6003C21.4721 20.7781 19.1332 23.0225 15.9998 25.3337ZM15.9998 14.667C16.7332 14.667 17.3609 14.4059 17.8832 13.8837C18.4054 13.3614 18.6665 12.7337 18.6665 12.0003C18.6665 11.267 18.4054 10.6392 17.8832 10.117C17.3609 9.59477 16.7332 9.33366 15.9998 9.33366C15.2665 9.33366 14.6387 9.59477 14.1165 10.117C13.5943 10.6392 13.3332 11.267 13.3332 12.0003C13.3332 12.7337 13.5943 13.3614 14.1165 13.8837C14.6387 14.4059 15.2665 14.667 15.9998 14.667ZM6.6665 29.3337V26.667H25.3332V29.3337H6.6665Z" fill="#218448"/>
</svg>
