<svg width="32" height="32" viewBox="0 0 32 32" fill="none" xmlns="http://www.w3.org/2000/svg">
<path d="M21.0837 20.0586C18.5756 20.0586 16.5352 22.0991 16.5352 24.6071C16.5352 27.1152 18.5756 29.1556 21.0837 29.1556C23.5916 29.1556 25.6321 27.1152 25.6321 24.6071C25.6321 22.0991 23.5916 20.0586 21.0837 20.0586ZM22.8495 25.6238H22.1004V26.3729C22.1004 26.9345 21.6451 27.3896 21.0837 27.3896C20.5221 27.3896 20.0669 26.9344 20.0669 26.3729V25.6238H19.3178C18.7562 25.6238 18.301 25.1686 18.301 24.607C18.301 24.0454 18.7562 23.5903 19.3178 23.5903H20.0669V22.8412C20.0669 22.2796 20.5221 21.8244 21.0837 21.8244C21.6452 21.8244 22.1004 22.2796 22.1004 22.8412V23.5903H22.8495C23.4111 23.5903 23.8663 24.0456 23.8663 24.607C23.8663 25.1685 23.4111 25.6238 22.8495 25.6238Z" fill="#218448"/>
<path d="M1.19434 3.30273L9.00684 5.0498C9.35666 5.12827 9.66699 5.51572 9.66699 5.87402V27.9863C9.66691 28.145 9.60721 28.239 9.5459 28.2881C9.49991 28.3249 9.42949 28.355 9.33203 28.3535L9.22461 28.3408L0.946289 26.4893H0.945312C0.685052 26.4309 0.5 26.1996 0.5 25.9326V3.85938C0.5 3.72979 0.543901 3.60485 0.623047 3.50488L0.713867 3.41406C0.815182 3.33308 0.940162 3.28976 1.06738 3.28906L1.19434 3.30273Z" fill="#218448" stroke="#FCFCFC"/>
<path d="M19.3877 3.6416C19.5424 3.60785 19.6483 3.64602 19.7109 3.69629C19.7736 3.74672 19.834 3.84225 19.834 4.00098V18.1865C16.8198 18.7715 14.5361 21.4266 14.5361 24.6104C14.5361 25.7531 14.8317 26.8281 15.3486 27.7637L12.6113 28.3613C12.4565 28.3951 12.3508 28.357 12.2881 28.3066C12.2255 28.2562 12.165 28.1606 12.165 28.002V5.89258L12.1787 5.75781C12.2337 5.48861 12.4441 5.22729 12.6953 5.11621L12.8242 5.07422L19.3877 3.6416Z" fill="#218448" stroke="#FCFCFC"/>
<path d="M22.7754 3.6582L31.0547 5.50879C31.3152 5.56721 31.5001 5.79864 31.5 6.06543V28.1387C31.5 28.2684 31.4561 28.3933 31.377 28.4932L31.2861 28.584C31.1844 28.6655 31.0581 28.709 30.9297 28.709L30.8057 28.6953L26.7969 27.7988C27.327 26.8544 27.6308 25.7657 27.6309 24.6074C27.6309 21.4236 25.3473 18.7676 22.333 18.1826V4.01172C22.3331 3.8535 22.393 3.76013 22.4541 3.71094C22.5002 3.67401 22.571 3.64286 22.6689 3.64453L22.7754 3.6582Z" fill="#218448" stroke="#FCFCFC"/>
</svg>
