<svg width="32" height="32" viewBox="0 0 32 32" fill="none" xmlns="http://www.w3.org/2000/svg">
<path d="M9.33368 26.667V11.967C9.33368 11.2337 9.60034 10.6115 10.1337 10.1003C10.667 9.58923 11.3003 9.33368 12.0337 9.33368H26.667C27.4003 9.33368 28.0281 9.59479 28.5503 10.117C29.0726 10.6392 29.3337 11.267 29.3337 12.0003V22.667L22.667 29.3337H12.0003C11.267 29.3337 10.6392 29.0726 10.117 28.5503C9.59479 28.0281 9.33368 27.4003 9.33368 26.667ZM2.70034 8.33368C2.56701 7.60034 2.71145 6.93923 3.13368 6.35034C3.5559 5.76145 4.13368 5.40034 4.86701 5.26701L19.3337 2.70034C20.067 2.56701 20.7281 2.71145 21.317 3.13368C21.9059 3.5559 22.267 4.13368 22.4003 4.86701L22.7337 6.66701H20.0003L19.767 5.33368L5.33368 7.90034L6.66701 15.4337V24.7337C6.31145 24.5337 6.0059 24.267 5.75034 23.9337C5.49479 23.6003 5.33368 23.2226 5.26701 22.8003L2.70034 8.33368ZM12.0003 12.0003V26.667H21.3337V21.3337H26.667V12.0003H12.0003Z" fill="#218448"/>
</svg>
