<svg width="32" height="32" viewBox="0 0 32 32" fill="none" xmlns="http://www.w3.org/2000/svg">
<path fill-rule="evenodd" clip-rule="evenodd" d="M21.0589 1.60065C20.945 1.60166 20.8326 1.62697 20.7293 1.67489L10.9331 6.22561L1.13696 1.67521C0.60672 1.42849 0 1.81569 0 2.40065V24.8935C2.55836e-05 25.0459 0.0436238 25.1952 0.125659 25.3237C0.207695 25.4523 0.324751 25.5547 0.46304 25.6189L10.5962 30.3261C10.7018 30.3752 10.8169 30.4007 10.9334 30.4007C11.05 30.4007 11.1651 30.3752 11.2707 30.3261L21.0669 25.7757L30.863 30.3261C31.3933 30.5725 32 30.1853 32 29.6007V7.10785C32 6.95538 31.9564 6.80609 31.8743 6.67757C31.7923 6.54904 31.6752 6.44664 31.537 6.38241L30.7526 6.01825C30.4873 6.5014 30.1449 6.93797 29.7389 7.31073L30.4 7.61794V14.217C31.3811 15.737 31.5862 17.7735 30.4157 19.3024L30.4 19.3258V28.3469L21.543 24.2327L21.4976 16.2963C21.2208 16.0538 20.8877 15.8512 20.5344 15.6637L20.583 24.2355L11.4067 28.4989L11.2886 7.82498L20.465 3.56225L20.4746 5.25089C20.7923 5.00961 21.1098 4.77057 21.4307 4.56161L21.4243 3.44897L22.1299 3.77729C22.1597 3.22785 22.3043 2.69537 22.5357 2.20097L21.4038 1.67521C21.2958 1.62499 21.178 1.59952 21.0589 1.60065ZM1.6 3.65441L10.328 7.70881L10.4467 28.4928L1.6 24.3821V3.65441Z" fill="#218448"/>
<path d="M26.6712 0.800781C25.8062 0.800781 24.9767 1.1444 24.365 1.75603C23.7534 2.36767 23.4098 3.19723 23.4098 4.06222C23.4106 4.33673 23.4461 4.61004 23.5154 4.87566L18.332 8.02606C17.7254 7.44195 16.9163 7.11514 16.0741 7.11406C15.6458 7.1141 15.2217 7.19851 14.826 7.36248C14.4303 7.52644 14.0707 7.76674 13.7679 8.06965C13.4651 8.37257 13.2249 8.73217 13.061 9.12792C12.8972 9.52367 12.8129 9.94782 12.813 10.3761C12.8131 11.241 13.1566 12.0703 13.7681 12.6819C14.3796 13.2934 15.209 13.6371 16.0738 13.6373C16.8611 13.6359 17.6214 13.3499 18.2143 12.8318L23.4767 16.0312C23.4321 16.2475 23.4095 16.4679 23.4095 16.6888C23.4095 17.5538 23.7531 18.3833 24.3647 18.995C24.9764 19.6066 25.8059 19.9502 26.6709 19.9502C27.0992 19.9503 27.5234 19.8659 27.9191 19.7021C28.3148 19.5382 28.6744 19.2979 28.9773 18.9951C29.2802 18.6922 29.5205 18.3327 29.6844 17.937C29.8483 17.5412 29.9327 17.1171 29.9327 16.6888C29.9327 16.2605 29.8484 15.8363 29.6845 15.4406C29.5206 15.0449 29.2804 14.6853 28.9775 14.3824C28.6747 14.0795 28.3151 13.8392 27.9194 13.6753C27.5237 13.5114 27.0996 13.427 26.6712 13.427C26.2333 13.4276 25.8 13.5164 25.3971 13.6881C24.9942 13.8598 24.63 14.1109 24.3263 14.4264L19.1983 11.3102C19.2892 11.0071 19.3356 10.6923 19.3359 10.3758C19.3348 10.1129 19.3019 9.85103 19.2379 9.59598L24.4379 6.4347C25.042 7.00454 25.8408 7.32248 26.6712 7.32366C27.0995 7.32366 27.5236 7.2393 27.9193 7.0754C28.315 6.9115 28.6746 6.67126 28.9774 6.36841C29.2803 6.06555 29.5205 5.70602 29.6844 5.31032C29.8483 4.91462 29.9327 4.49052 29.9327 4.06222C29.9327 3.63392 29.8483 3.20982 29.6844 2.81412C29.5205 2.41843 29.2803 2.05889 28.9774 1.75603C28.6746 1.45318 28.315 1.21295 27.9193 1.04904C27.5236 0.885141 27.0995 0.800781 26.6712 0.800781Z" fill="#218448"/>
</svg>
