<svg width="32" height="32" viewBox="0 0 32 32" fill="none" xmlns="http://www.w3.org/2000/svg">
<path d="M13.3327 26.6693H18.666V25.3359H13.3327V26.6693ZM9.33268 30.6693C8.59935 30.6693 7.97157 30.4082 7.44935 29.8859C6.92713 29.3637 6.66602 28.7359 6.66602 28.0026V4.0026C6.66602 3.26927 6.92713 2.64149 7.44935 2.11927C7.97157 1.59705 8.59935 1.33594 9.33268 1.33594H22.666C23.3993 1.33594 24.0271 1.59705 24.5493 2.11927C25.0716 2.64149 25.3327 3.26927 25.3327 4.0026V28.0026C25.3327 28.7359 25.0716 29.3637 24.5493 29.8859C24.0271 30.4082 23.3993 30.6693 22.666 30.6693H9.33268ZM9.33268 24.0026V28.0026H22.666V24.0026H9.33268ZM9.33268 21.3359H22.666V8.0026H9.33268V21.3359ZM9.33268 5.33594H22.666V4.0026H9.33268V5.33594Z" fill="#218448"/>
</svg>
