<svg width="32" height="32" viewBox="0 0 32 32" fill="none" xmlns="http://www.w3.org/2000/svg">
<path d="M9.33268 11.332L11.9993 8.66536L9.33268 5.9987L6.66602 8.66536L9.33268 11.332ZM5.33268 18.6654C4.59935 18.6654 3.97157 18.4043 3.44935 17.882C2.92713 17.3598 2.66602 16.732 2.66602 15.9987V3.9987C2.66602 3.26536 2.92713 2.63759 3.44935 2.11536C3.97157 1.59314 4.59935 1.33203 5.33268 1.33203H26.666C27.3993 1.33203 28.0271 1.59314 28.5493 2.11536C29.0716 2.63759 29.3327 3.26536 29.3327 3.9987V15.9987C29.3327 16.732 29.0716 17.3598 28.5493 17.882C28.0271 18.4043 27.3993 18.6654 26.666 18.6654H22.366C22.4993 18.2209 22.5882 17.7765 22.6327 17.332C22.6771 16.8876 22.6771 16.4431 22.6327 15.9987H26.666V3.9987H5.33268V15.9987H9.36602C9.32157 16.4431 9.32157 16.8876 9.36602 17.332C9.41046 17.7765 9.49935 18.2209 9.63268 18.6654H5.33268ZM21.9993 9.33203C22.5549 9.33203 23.0271 9.13759 23.416 8.7487C23.8049 8.35981 23.9993 7.88759 23.9993 7.33203C23.9993 6.77648 23.8049 6.30425 23.416 5.91536C23.0271 5.52648 22.5549 5.33203 21.9993 5.33203C21.4438 5.33203 20.9716 5.52648 20.5827 5.91536C20.1938 6.30425 19.9993 6.77648 19.9993 7.33203C19.9993 7.88759 20.1938 8.35981 20.5827 8.7487C20.9716 9.13759 21.4438 9.33203 21.9993 9.33203ZM6.66602 30.6654V27.8654C6.66602 27.0876 6.88268 26.3654 7.31602 25.6987C7.74935 25.032 8.32157 24.532 9.03268 24.1987C10.1216 23.6876 11.2549 23.3043 12.4327 23.0487C13.6105 22.7931 14.7993 22.6654 15.9993 22.6654C17.1993 22.6654 18.3882 22.7931 19.566 23.0487C20.7438 23.3043 21.8771 23.6876 22.966 24.1987C23.6771 24.532 24.2493 25.032 24.6827 25.6987C25.116 26.3654 25.3327 27.0876 25.3327 27.8654V30.6654H6.66602ZM9.33268 27.9987H22.666V27.8654C22.666 27.5987 22.5882 27.3543 22.4327 27.132C22.2771 26.9098 22.0771 26.7431 21.8327 26.632C20.8993 26.2098 19.9438 25.8876 18.966 25.6654C17.9882 25.4431 16.9993 25.332 15.9993 25.332C14.9993 25.332 14.0105 25.4431 13.0327 25.6654C12.0549 25.8876 11.0993 26.2098 10.166 26.632C9.92157 26.7431 9.72157 26.9098 9.56602 27.132C9.41046 27.3543 9.33268 27.5987 9.33268 27.8654V27.9987ZM15.9993 21.332C14.7105 21.332 13.6105 20.8765 12.6993 19.9654C11.7882 19.0543 11.3327 17.9543 11.3327 16.6654C11.3327 15.3765 11.7882 14.2765 12.6993 13.3654C13.6105 12.4543 14.7105 11.9987 15.9993 11.9987C17.2882 11.9987 18.3882 12.4543 19.2993 13.3654C20.2105 14.2765 20.666 15.3765 20.666 16.6654C20.666 17.9543 20.2105 19.0543 19.2993 19.9654C18.3882 20.8765 17.2882 21.332 15.9993 21.332ZM15.9993 18.6654C16.5549 18.6654 17.0271 18.4709 17.416 18.082C17.8049 17.6931 17.9993 17.2209 17.9993 16.6654C17.9993 16.1098 17.8049 15.6376 17.416 15.2487C17.0271 14.8598 16.5549 14.6654 15.9993 14.6654C15.4438 14.6654 14.9716 14.8598 14.5827 15.2487C14.1938 15.6376 13.9993 16.1098 13.9993 16.6654C13.9993 17.2209 14.1938 17.6931 14.5827 18.082C14.9716 18.4709 15.4438 18.6654 15.9993 18.6654Z" fill="#218448"/>
</svg>
