<svg width="37" height="37" viewBox="0 0 37 37" fill="none" xmlns="http://www.w3.org/2000/svg">
<path d="M15.7253 20.3523L14.1066 18.7336C14.3121 18.451 14.4535 18.1619 14.5305 17.8664C14.6076 17.5709 14.6462 17.269 14.6462 16.9607C14.6462 16.6523 14.6076 16.3504 14.5305 16.0549C14.4535 15.7595 14.3121 15.4832 14.1066 15.2263L15.7253 13.569C16.1364 14.0572 16.4448 14.5968 16.6503 15.1878C16.8559 15.7787 16.9587 16.3697 16.9587 16.9607C16.9587 17.5516 16.8559 18.1362 16.6503 18.7143C16.4448 19.2924 16.1364 19.8385 15.7253 20.3523ZM19.0014 23.6669L17.3441 22.0096C17.9864 21.2902 18.4682 20.4937 18.7894 19.6201C19.1106 18.7464 19.2712 17.86 19.2712 16.9607C19.2712 16.0614 19.1106 15.1813 18.7894 14.3206C18.4682 13.4598 17.9864 12.6697 17.3441 11.9503L19.0014 10.293C19.875 11.2437 20.5238 12.2907 20.9477 13.4341C21.3717 14.5775 21.5837 15.753 21.5837 16.9607C21.5837 18.1683 21.3717 19.3503 20.9477 20.5065C20.5238 21.6628 19.875 22.7162 19.0014 23.6669ZM7.70866 18.5023C6.86074 18.5023 6.13487 18.2004 5.53105 17.5966C4.92724 16.9928 4.62533 16.2669 4.62533 15.419C4.62533 14.5711 4.92724 13.8452 5.53105 13.2414C6.13487 12.6376 6.86074 12.3357 7.70866 12.3357C8.55658 12.3357 9.28244 12.6376 9.88626 13.2414C10.4901 13.8452 10.792 14.5711 10.792 15.419C10.792 16.2669 10.4901 16.9928 9.88626 17.5966C9.28244 18.2004 8.55658 18.5023 7.70866 18.5023ZM1.54199 24.669V23.7825C1.54199 23.1659 1.70901 22.6006 2.04303 22.0867C2.37706 21.5728 2.83956 21.1874 3.43053 20.9305C4.09859 20.6478 4.78592 20.4294 5.49251 20.2753C6.19911 20.1211 6.93783 20.044 7.70866 20.044C8.47949 20.044 9.21821 20.1211 9.9248 20.2753C10.6314 20.4294 11.3187 20.6478 11.9868 20.9305C12.5778 21.1874 13.0403 21.5728 13.3743 22.0867C13.7083 22.6006 13.8753 23.1659 13.8753 23.7825V24.669H1.54199ZM29.292 18.5023C28.4441 18.5023 27.7182 18.2004 27.1144 17.5966C26.5106 16.9928 26.2087 16.2669 26.2087 15.419C26.2087 14.5711 26.5106 13.8452 27.1144 13.2414C27.7182 12.6376 28.4441 12.3357 29.292 12.3357C30.1399 12.3357 30.8658 12.6376 31.4696 13.2414C32.0734 13.8452 32.3753 14.5711 32.3753 15.419C32.3753 16.2669 32.0734 16.9928 31.4696 17.5966C30.8658 18.2004 30.1399 18.5023 29.292 18.5023ZM23.1253 24.669V23.7825C23.1253 23.1659 23.2923 22.6006 23.6264 22.0867C23.9604 21.5728 24.4229 21.1874 25.0139 20.9305C25.6819 20.6478 26.3692 20.4294 27.0758 20.2753C27.7824 20.1211 28.5212 20.044 29.292 20.044C30.0628 20.044 30.8015 20.1211 31.5081 20.2753C32.2147 20.4294 32.9021 20.6478 33.5701 20.9305C34.1611 21.1874 34.6236 21.5728 34.9576 22.0867C35.2916 22.6006 35.4587 23.1659 35.4587 23.7825V24.669H23.1253Z" fill="#218448"/>
</svg>
