<svg width="32" height="32" viewBox="0 0 32 32" fill="none" xmlns="http://www.w3.org/2000/svg">
<path d="M13.3337 29.3333V23.8667L23.1337 14.1333C23.4003 13.8667 23.6948 13.6667 24.017 13.5333C24.3392 13.4 24.6781 13.3333 25.0337 13.3333C25.3892 13.3333 25.7281 13.4 26.0503 13.5333C26.3725 13.6667 26.667 13.8667 26.9337 14.1333L28.567 15.8C28.8114 16.0667 29.0003 16.3611 29.1337 16.6833C29.267 17.0056 29.3337 17.3333 29.3337 17.6667C29.3337 18 29.2614 18.3278 29.117 18.65C28.9725 18.9722 28.7781 19.2667 28.5337 19.5333L18.8003 29.3333H13.3337ZM16.0003 26.6667H17.667L23.067 21.2667L22.2337 20.4333L21.4003 19.6L16.0003 25V26.6667ZM14.3337 12.3333L12.467 10.4333L14.9003 8H10.4337C10.2337 8.57778 9.92255 9.07778 9.50033 9.5C9.0781 9.92222 8.5781 10.2333 8.00033 10.4333V21.5667C8.7781 21.8556 9.41699 22.3389 9.91699 23.0167C10.417 23.6944 10.667 24.4667 10.667 25.3333C10.667 26.4444 10.2781 27.3889 9.50033 28.1667C8.72255 28.9444 7.7781 29.3333 6.66699 29.3333C5.55588 29.3333 4.61144 28.9444 3.83366 28.1667C3.05588 27.3889 2.66699 26.4444 2.66699 25.3333C2.66699 24.4667 2.91699 23.7 3.41699 23.0333C3.91699 22.3667 4.55588 21.8889 5.33366 21.6V10.4333C4.55588 10.1444 3.91699 9.66111 3.41699 8.98333C2.91699 8.30556 2.66699 7.53333 2.66699 6.66667C2.66699 5.55556 3.05588 4.61111 3.83366 3.83333C4.61144 3.05556 5.55588 2.66667 6.66699 2.66667C7.53366 2.66667 8.30588 2.91667 8.98366 3.41667C9.66144 3.91667 10.1448 4.55556 10.4337 5.33333H14.9003L12.467 2.9L14.3337 1L20.0003 6.66667L14.3337 12.3333ZM25.3337 2.66667C26.4448 2.66667 27.3892 3.05556 28.167 3.83333C28.9448 4.61111 29.3337 5.55556 29.3337 6.66667C29.3337 7.77778 28.9448 8.72222 28.167 9.5C27.3892 10.2778 26.4448 10.6667 25.3337 10.6667C24.2225 10.6667 23.2781 10.2778 22.5003 9.5C21.7225 8.72222 21.3337 7.77778 21.3337 6.66667C21.3337 5.55556 21.7225 4.61111 22.5003 3.83333C23.2781 3.05556 24.2225 2.66667 25.3337 2.66667ZM6.66699 26.6667C7.04477 26.6667 7.36144 26.5389 7.61699 26.2833C7.87255 26.0278 8.00033 25.7111 8.00033 25.3333C8.00033 24.9556 7.87255 24.6389 7.61699 24.3833C7.36144 24.1278 7.04477 24 6.66699 24C6.28921 24 5.97255 24.1278 5.71699 24.3833C5.46144 24.6389 5.33366 24.9556 5.33366 25.3333C5.33366 25.7111 5.46144 26.0278 5.71699 26.2833C5.97255 26.5389 6.28921 26.6667 6.66699 26.6667ZM6.66699 8C7.04477 8 7.36144 7.87222 7.61699 7.61667C7.87255 7.36111 8.00033 7.04444 8.00033 6.66667C8.00033 6.28889 7.87255 5.97222 7.61699 5.71667C7.36144 5.46111 7.04477 5.33333 6.66699 5.33333C6.28921 5.33333 5.97255 5.46111 5.71699 5.71667C5.46144 5.97222 5.33366 6.28889 5.33366 6.66667C5.33366 7.04444 5.46144 7.36111 5.71699 7.61667C5.97255 7.87222 6.28921 8 6.66699 8ZM25.3337 8C25.7114 8 26.0281 7.87222 26.2837 7.61667C26.5392 7.36111 26.667 7.04444 26.667 6.66667C26.667 6.28889 26.5392 5.97222 26.2837 5.71667C26.0281 5.46111 25.7114 5.33333 25.3337 5.33333C24.9559 5.33333 24.6392 5.46111 24.3837 5.71667C24.1281 5.97222 24.0003 6.28889 24.0003 6.66667C24.0003 7.04444 24.1281 7.36111 24.3837 7.61667C24.6392 7.87222 24.9559 8 25.3337 8Z" fill="#218448"/>
</svg>
