<svg width="32" height="32" viewBox="0 0 32 32" fill="none" xmlns="http://www.w3.org/2000/svg">
<path d="M15.9993 29.3346C14.1771 29.3346 12.4549 28.9846 10.8327 28.2846C9.21046 27.5846 7.79379 26.6291 6.58268 25.418C5.37157 24.2069 4.41602 22.7902 3.71602 21.168C3.01602 19.5457 2.66602 17.8235 2.66602 16.0013C2.66602 14.1569 3.02713 12.4235 3.74935 10.8013C4.47157 9.17908 5.44935 7.76797 6.68268 6.56797C7.91602 5.36797 9.3549 4.41797 10.9993 3.71797C12.6438 3.01797 14.3993 2.66797 16.266 2.66797C18.0438 2.66797 19.7216 2.97352 21.2993 3.58464C22.8771 4.19575 24.2605 5.04019 25.4493 6.11797C26.6382 7.19575 27.5827 8.47352 28.2827 9.9513C28.9827 11.4291 29.3327 13.0235 29.3327 14.7346C29.3327 17.2902 28.5549 19.2513 26.9993 20.618C25.4438 21.9846 23.5549 22.668 21.3327 22.668H18.866C18.666 22.668 18.5271 22.7235 18.4493 22.8346C18.3716 22.9457 18.3327 23.068 18.3327 23.2013C18.3327 23.468 18.4993 23.8513 18.8327 24.3513C19.166 24.8513 19.3327 25.4235 19.3327 26.068C19.3327 27.1791 19.0271 28.0013 18.416 28.5346C17.8049 29.068 16.9993 29.3346 15.9993 29.3346ZM8.66602 17.3346C9.24379 17.3346 9.72157 17.1457 10.0993 16.768C10.4771 16.3902 10.666 15.9124 10.666 15.3346C10.666 14.7569 10.4771 14.2791 10.0993 13.9013C9.72157 13.5235 9.24379 13.3346 8.66602 13.3346C8.08824 13.3346 7.61046 13.5235 7.23268 13.9013C6.8549 14.2791 6.66602 14.7569 6.66602 15.3346C6.66602 15.9124 6.8549 16.3902 7.23268 16.768C7.61046 17.1457 8.08824 17.3346 8.66602 17.3346ZM12.666 12.0013C13.2438 12.0013 13.7216 11.8124 14.0993 11.4346C14.4771 11.0569 14.666 10.5791 14.666 10.0013C14.666 9.42352 14.4771 8.94575 14.0993 8.56797C13.7216 8.19019 13.2438 8.0013 12.666 8.0013C12.0882 8.0013 11.6105 8.19019 11.2327 8.56797C10.8549 8.94575 10.666 9.42352 10.666 10.0013C10.666 10.5791 10.8549 11.0569 11.2327 11.4346C11.6105 11.8124 12.0882 12.0013 12.666 12.0013ZM19.3327 12.0013C19.9105 12.0013 20.3882 11.8124 20.766 11.4346C21.1438 11.0569 21.3327 10.5791 21.3327 10.0013C21.3327 9.42352 21.1438 8.94575 20.766 8.56797C20.3882 8.19019 19.9105 8.0013 19.3327 8.0013C18.7549 8.0013 18.2771 8.19019 17.8993 8.56797C17.5216 8.94575 17.3327 9.42352 17.3327 10.0013C17.3327 10.5791 17.5216 11.0569 17.8993 11.4346C18.2771 11.8124 18.7549 12.0013 19.3327 12.0013ZM23.3327 17.3346C23.9105 17.3346 24.3882 17.1457 24.766 16.768C25.1438 16.3902 25.3327 15.9124 25.3327 15.3346C25.3327 14.7569 25.1438 14.2791 24.766 13.9013C24.3882 13.5235 23.9105 13.3346 23.3327 13.3346C22.7549 13.3346 22.2771 13.5235 21.8993 13.9013C21.5216 14.2791 21.3327 14.7569 21.3327 15.3346C21.3327 15.9124 21.5216 16.3902 21.8993 16.768C22.2771 17.1457 22.7549 17.3346 23.3327 17.3346ZM15.9993 26.668C16.1993 26.668 16.3605 26.6124 16.4827 26.5013C16.6049 26.3902 16.666 26.2457 16.666 26.068C16.666 25.7569 16.4993 25.3902 16.166 24.968C15.8327 24.5457 15.666 23.9124 15.666 23.068C15.666 22.1346 15.9882 21.3902 16.6327 20.8346C17.2771 20.2791 18.066 20.0013 18.9993 20.0013H21.3327C22.7993 20.0013 24.0549 19.5735 25.0993 18.718C26.1438 17.8624 26.666 16.5346 26.666 14.7346C26.666 12.0457 25.6382 9.80686 23.5827 8.01797C21.5271 6.22908 19.0882 5.33464 16.266 5.33464C13.2438 5.33464 10.666 6.36797 8.53268 8.43464C6.39935 10.5013 5.33268 13.0235 5.33268 16.0013C5.33268 18.9569 6.37157 21.4735 8.44935 23.5513C10.5271 25.6291 13.0438 26.668 15.9993 26.668Z" fill="#218448"/>
</svg>
