<svg width="32" height="32" viewBox="0 0 32 32" fill="none" xmlns="http://www.w3.org/2000/svg">
<path d="M14.6671 30.5984V27.9318C11.8893 27.6207 9.50595 26.4707 7.51706 24.4818C5.52817 22.4929 4.37817 20.1095 4.06706 17.3318H1.40039V14.6651H4.06706C4.37817 11.8873 5.52817 9.50399 7.51706 7.5151C9.50595 5.52622 11.8893 4.37621 14.6671 4.0651V1.39844H17.3337V4.0651C20.1115 4.37621 22.4948 5.52622 24.4837 7.5151C26.4726 9.50399 27.6226 11.8873 27.9337 14.6651H30.6004V17.3318H27.9337C27.6226 20.1095 26.4726 22.4929 24.4837 24.4818C22.4948 26.4707 20.1115 27.6207 17.3337 27.9318V30.5984H14.6671ZM16.0004 25.3318C18.5782 25.3318 20.7782 24.4207 22.6004 22.5984C24.4226 20.7762 25.3337 18.5762 25.3337 15.9984C25.3337 13.4207 24.4226 11.2207 22.6004 9.39844C20.7782 7.57621 18.5782 6.6651 16.0004 6.6651C13.4226 6.6651 11.2226 7.57621 9.40039 9.39844C7.57817 11.2207 6.66706 13.4207 6.66706 15.9984C6.66706 18.5762 7.57817 20.7762 9.40039 22.5984C11.2226 24.4207 13.4226 25.3318 16.0004 25.3318ZM16.0004 21.3318C14.5337 21.3318 13.2782 20.8095 12.2337 19.7651C11.1893 18.7207 10.6671 17.4651 10.6671 15.9984C10.6671 14.5318 11.1893 13.2762 12.2337 12.2318C13.2782 11.1873 14.5337 10.6651 16.0004 10.6651C17.4671 10.6651 18.7226 11.1873 19.7671 12.2318C20.8115 13.2762 21.3337 14.5318 21.3337 15.9984C21.3337 17.4651 20.8115 18.7207 19.7671 19.7651C18.7226 20.8095 17.4671 21.3318 16.0004 21.3318ZM16.0004 18.6651C16.7337 18.6651 17.3615 18.404 17.8837 17.8818C18.4059 17.3595 18.6671 16.7318 18.6671 15.9984C18.6671 15.2651 18.4059 14.6373 17.8837 14.1151C17.3615 13.5929 16.7337 13.3318 16.0004 13.3318C15.2671 13.3318 14.6393 13.5929 14.1171 14.1151C13.5948 14.6373 13.3337 15.2651 13.3337 15.9984C13.3337 16.7318 13.5948 17.3595 14.1171 17.8818C14.6393 18.404 15.2671 18.6651 16.0004 18.6651Z" fill="#218448"/>
</svg>
