<svg width="32" height="32" viewBox="0 0 32 32" fill="none" xmlns="http://www.w3.org/2000/svg">
<path d="M10.415 7.68945C12.3448 7.12118 14.4082 7.24608 16.25 8.03418L16.6152 8.2002C18.5467 9.13513 20.0608 10.7565 20.8623 12.7471V12.7461C21.2219 13.6528 21.429 14.6116 21.4766 15.584L21.4873 16.002C21.4802 18.0114 20.7726 19.9513 19.4932 21.4902L19.2295 21.793C17.873 23.2785 16.0433 24.2398 14.0596 24.5195L13.6611 24.5664C11.6581 24.7544 9.65675 24.2369 8 23.1104L7.67285 22.877C5.95658 21.5893 4.78118 19.7086 4.37598 17.6016C3.99611 15.6262 4.31866 13.5845 5.28027 11.8271L5.48145 11.4795C6.52823 9.7614 8.1396 8.46609 10.0332 7.81152L10.415 7.68945Z" stroke="#218448" stroke-width="3" stroke-miterlimit="10" stroke-linecap="square"/>
<path d="M12.8271 13.6855C14.1047 13.6856 15.1406 14.7215 15.1406 15.999C15.1405 17.2765 14.1047 18.3124 12.8271 18.3125C11.5496 18.3125 10.5137 17.2766 10.5137 15.999C10.5137 14.7214 11.5495 13.6855 12.8271 13.6855Z" stroke="#218448" stroke-width="3" stroke-miterlimit="10" stroke-linecap="square"/>
<path d="M27.2549 7.33984L26.6436 9.18066L26.4482 9.76953L26.7256 10.3242L26.9062 10.6865H23.2119C22.5623 9.42218 21.689 8.2884 20.6348 7.33984H27.2549Z" stroke="#218448" stroke-width="3" stroke-miterlimit="10" stroke-linecap="square"/>
</svg>
