<svg width="40" height="40" viewBox="0 0 40 40" fill="none" xmlns="http://www.w3.org/2000/svg">
<path d="M11.6666 33.3347V14.9597C11.6666 14.0431 11.9999 13.2653 12.6666 12.6264C13.3333 11.9875 14.1249 11.6681 15.0416 11.6681H33.3333C34.2499 11.6681 35.0347 11.9945 35.6874 12.6472C36.3402 13.3 36.6666 14.0847 36.6666 15.0014V28.3347L28.3333 36.6681H14.9999C14.0833 36.6681 13.2986 36.3417 12.6458 35.6889C11.993 35.0361 11.6666 34.2514 11.6666 33.3347ZM3.37494 10.4181C3.20827 9.50141 3.38883 8.67502 3.91661 7.93891C4.44439 7.2028 5.16661 6.75141 6.08327 6.58474L24.1666 3.37641C25.0833 3.20974 25.9097 3.3903 26.6458 3.91807C27.3819 4.44585 27.8333 5.16807 27.9999 6.08474L28.4166 8.33474H24.9999L24.7083 6.66807L6.66661 9.87641L8.33327 19.2931V30.9181C7.88883 30.6681 7.50689 30.3347 7.18744 29.9181C6.868 29.5014 6.66661 29.0292 6.58327 28.5014L3.37494 10.4181ZM14.9999 15.0014V33.3347H26.6666V26.6681H33.3333V15.0014H14.9999Z" fill="#218448"/>
</svg>
