<svg width="62" height="62" viewBox="0 0 62 62" fill="none" xmlns="http://www.w3.org/2000/svg">
<path d="M15.5 56.8337V45.7253C13.0458 43.4864 11.1406 40.8708 9.78437 37.8784C8.42812 34.8861 7.75 31.7323 7.75 28.417C7.75 21.9587 10.0104 16.4691 14.5312 11.9482C19.0521 7.42741 24.5417 5.16699 31 5.16699C36.3819 5.16699 41.1503 6.74928 45.3052 9.91387C49.4601 13.0785 52.1618 17.201 53.4104 22.2816L56.7687 35.5212C56.984 36.3392 56.8333 37.0819 56.3167 37.7493C55.8 38.4166 55.1111 38.7503 54.25 38.7503H49.0833V46.5003C49.0833 47.9212 48.5774 49.1375 47.5656 50.1493C46.5538 51.1611 45.3375 51.667 43.9167 51.667H38.75V56.8337H33.5833V46.5003H43.9167V33.5837H50.8917L48.4375 23.5732C47.4472 19.6552 45.3375 16.4691 42.1083 14.0149C38.8792 11.5607 35.1764 10.3337 31 10.3337C26.0056 10.3337 21.7431 12.0774 18.2125 15.5649C14.6819 19.0524 12.9167 23.2934 12.9167 28.2878C12.9167 30.8712 13.4441 33.3253 14.499 35.6503C15.5538 37.9753 17.05 40.042 18.9875 41.8503L20.6667 43.4003V56.8337H15.5ZM31 41.3337C31.7319 41.3337 32.3455 41.0861 32.8406 40.591C33.3358 40.0958 33.5833 39.4823 33.5833 38.7503C33.5833 38.0184 33.3358 37.4048 32.8406 36.9097C32.3455 36.4146 31.7319 36.167 31 36.167C30.2681 36.167 29.6545 36.4146 29.1594 36.9097C28.6642 37.4048 28.4167 38.0184 28.4167 38.7503C28.4167 39.4823 28.6642 40.0958 29.1594 40.591C29.6545 41.0861 30.2681 41.3337 31 41.3337ZM29.0625 33.067H33.0021C33.0021 31.9906 33.142 31.1187 33.4219 30.4514C33.7017 29.784 34.2722 28.9767 35.1333 28.0295C35.9083 27.1684 36.6618 26.2965 37.3937 25.4139C38.1257 24.5312 38.4917 23.3795 38.4917 21.9587C38.4917 20.1503 37.792 18.6219 36.3927 17.3732C34.9934 16.1246 33.2604 15.5003 31.1937 15.5003C29.4715 15.5003 27.9108 15.9955 26.5115 16.9857C25.1122 17.976 24.1326 19.2677 23.5729 20.8607L27.125 22.3462C27.4264 21.3989 27.9538 20.6347 28.7073 20.0534C29.4608 19.4722 30.2896 19.1816 31.1937 19.1816C32.141 19.1816 32.9267 19.4399 33.551 19.9566C34.1753 20.4732 34.4875 21.1406 34.4875 21.9587C34.4875 22.8628 34.2184 23.6701 33.6802 24.3805C33.142 25.091 32.5069 25.8121 31.775 26.5441C30.9139 27.4482 30.2465 28.3524 29.7729 29.2566C29.2993 30.1607 29.0625 31.4309 29.0625 33.067Z" fill="#FF0000"/>
</svg>
