<svg width="50" height="50" viewBox="0 0 50 50" fill="none" xmlns="http://www.w3.org/2000/svg">
<rect width="50" height="50" rx="25" fill="#218448" fill-opacity="0.2"/>
<g clip-path="url(#clip0_533_2411)">
<path d="M32.4964 15.5C31.6223 15.5 30.9112 16.2111 30.9112 17.0852C30.9112 17.2895 30.9504 17.4846 31.0211 17.6641C30.4071 18.3723 30.0078 19.327 29.8241 20.0607C29.5903 20.0068 29.3473 19.9774 29.0975 19.9774C28.8476 19.9774 28.6046 20.0068 28.3709 20.0607C28.1872 19.327 27.7879 18.3723 27.1739 17.6641C27.2446 17.4846 27.2838 17.2895 27.2838 17.0852C27.2838 16.2111 26.5726 15.5 25.6986 15.5C24.8245 15.5 24.1133 16.2111 24.1133 17.0852C24.1133 17.9593 24.8244 18.6705 25.6986 18.6705C25.9398 18.6705 26.1685 18.6161 26.3735 18.5192C26.8721 19.142 27.1838 20.0151 27.287 20.5332C26.625 20.9824 26.1384 21.6706 25.9503 22.4727C25.1322 22.1313 24.2461 21.9533 23.3458 21.9533C20.1967 21.9533 17.5016 24.1019 16.8899 27.0796C16.6458 27.4645 16.4568 27.897 16.3301 28.3645C16.0735 28.7191 15.9185 29.1758 15.9185 29.6738C15.9185 30.1469 16.0585 30.5826 16.2924 30.9289C16.7365 32.7899 18.157 34.0797 19.7823 34.0797C19.9785 34.0797 20.172 34.0611 20.3617 34.0251C20.7841 34.2426 21.3833 34.5001 22.251 34.5001H27.5549C29.3526 34.5001 30.6093 34.1152 31.3968 33.3236C32.3434 32.372 32.3367 31.0822 32.3322 30.2288C32.3319 30.1708 32.3316 30.1141 32.3316 30.0589L32.3306 23.2106C32.3306 22.0982 31.7658 21.1153 30.908 20.5333C31.0112 20.0152 31.3229 19.1421 31.8215 18.5194C32.0264 18.6162 32.2552 18.6706 32.4965 18.6706C33.3706 18.6706 34.0817 17.9595 34.0817 17.0853C34.0817 16.2112 33.3705 15.5 32.4964 15.5ZM25.6986 17.5072C25.4659 17.5072 25.2766 17.3179 25.2766 17.0852C25.2766 16.8525 25.4659 16.6632 25.6986 16.6632C25.9312 16.6632 26.1205 16.8525 26.1205 17.0852C26.1205 17.3179 25.9312 17.5072 25.6986 17.5072ZM17.0817 29.6737C17.0817 29.2069 17.36 28.7973 17.6773 28.7973C17.9945 28.7973 18.2729 29.2069 18.2729 29.6737C18.2729 30.1406 17.9945 30.5501 17.6773 30.5501C17.36 30.5501 17.0817 30.1405 17.0817 29.6737ZM19.7823 32.9162C19.0148 32.9163 18.3087 32.4506 17.8497 31.7034C18.7389 31.6026 19.4361 30.7309 19.4361 29.6737C19.4361 28.6398 18.7691 27.7836 17.908 27.6522C18.3701 26.9571 19.0539 26.5253 19.7823 26.5253C21.1431 26.5253 22.2503 27.9588 22.2503 29.7208C22.2503 31.4827 21.1431 32.9162 19.7823 32.9162ZM25.2681 32.503C24.7179 33.0562 23.7027 33.3367 22.2509 33.3367C22.1058 33.3367 21.9729 33.3267 21.8491 33.3097C22.0422 33.1489 22.2238 32.9643 22.3912 32.757C23.0504 31.9405 23.4135 30.8623 23.4135 29.7208C23.4135 28.5794 23.0504 27.5011 22.3912 26.6846C21.7026 25.8318 20.7761 25.3621 19.7822 25.3621C19.4339 25.3621 19.094 25.4201 18.7689 25.5323C19.738 24.0643 21.4404 23.1165 23.3458 23.1165C24.2273 23.1165 25.0911 23.3223 25.8644 23.7134V30.0588C25.8644 30.1159 25.8647 30.1745 25.865 30.2347C25.8691 31.0126 25.8737 31.8943 25.2681 32.503ZM31.1673 23.2105L31.1683 30.0588C31.1683 30.1159 31.1686 30.1746 31.169 30.2347C31.1731 31.0127 31.1777 31.8943 30.5721 32.503C30.0219 33.0562 29.0067 33.3367 27.5549 33.3367H26.0796C26.084 33.3322 26.0884 33.3278 26.0928 33.3234C27.0395 32.3718 27.0327 31.0821 27.0283 30.2286C27.028 30.1706 27.0276 30.1139 27.0276 30.0587V23.2104C27.0276 22.0691 27.9561 21.1406 29.0975 21.1406C30.2388 21.1406 31.1673 22.0691 31.1673 23.2105ZM32.4964 17.5072C32.2638 17.5072 32.0744 17.3179 32.0744 17.0852C32.0744 16.8525 32.2637 16.6632 32.4964 16.6632C32.729 16.6632 32.9184 16.8525 32.9184 17.0852C32.9184 17.3179 32.729 17.5072 32.4964 17.5072Z" fill="#218448"/>
</g>
<defs>
<clipPath id="clip0_533_2411">
<rect width="18.1633" height="19.0001" fill="white" transform="translate(15.9185 15.5)"/>
</clipPath>
</defs>
</svg>
