<svg width="50" height="50" viewBox="0 0 50 50" fill="none" xmlns="http://www.w3.org/2000/svg">
<rect width="50" height="50" rx="25" fill="#218448" fill-opacity="0.2"/>
<path d="M17.875 28.959V21.0423C17.875 20.6069 18.03 20.2342 18.3401 19.9241C18.6502 19.614 19.0229 19.459 19.4583 19.459H30.5417C30.9771 19.459 31.3498 19.614 31.6599 19.9241C31.97 20.2342 32.125 20.6069 32.125 21.0423V28.959C32.125 29.3944 31.97 29.7671 31.6599 30.0772C31.3498 30.3873 30.9771 30.5423 30.5417 30.5423H19.4583C19.0229 30.5423 18.6502 30.3873 18.3401 30.0772C18.03 29.7671 17.875 29.3944 17.875 28.959ZM23.674 24.209H30.5417V21.0423H23.674V24.209ZM27.9094 28.959H30.5417V25.7923H27.9094V28.959ZM23.674 28.959H26.326V25.7923H23.674V28.959ZM19.4583 28.959H22.0906V21.0423H19.4583V28.959Z" fill="#218448"/>
</svg>
