<svg width="50" height="50" viewBox="0 0 50 50" fill="none" xmlns="http://www.w3.org/2000/svg">
<rect width="50" height="50" rx="25" fill="#218448" fill-opacity="0.2"/>
<path d="M28.9583 32.916C27.8632 32.916 26.9297 32.5301 26.1578 31.7582C25.3859 30.9863 25 30.0528 25 28.9577C25 27.8625 25.3859 26.929 26.1578 26.1572C26.9297 25.3853 27.8632 24.9993 28.9583 24.9993C30.0535 24.9993 30.987 25.3853 31.7589 26.1572C32.5307 26.929 32.9167 27.8625 32.9167 28.9577C32.9167 30.0528 32.5307 30.9863 31.7589 31.7582C30.987 32.5301 30.0535 32.916 28.9583 32.916ZM30.2844 30.8379L30.8385 30.2837L29.3542 28.7993V26.5827H28.5625V29.116L30.2844 30.8379ZM19.4583 32.1243C19.0229 32.1243 18.6502 31.9693 18.3401 31.6592C18.03 31.3492 17.875 30.9764 17.875 30.541V19.4577C17.875 19.0223 18.03 18.6495 18.3401 18.3395C18.6502 18.0294 19.0229 17.8743 19.4583 17.8743H22.7635C22.9087 17.4125 23.1924 17.0332 23.6146 16.7363C24.0368 16.4395 24.4986 16.291 25 16.291C25.5278 16.291 25.9995 16.4395 26.4151 16.7363C26.8307 17.0332 27.1111 17.4125 27.2562 17.8743H30.5417C30.9771 17.8743 31.3498 18.0294 31.6599 18.3395C31.97 18.6495 32.125 19.0223 32.125 19.4577V24.4056C31.8875 24.2341 31.6368 24.0889 31.3729 23.9702C31.109 23.8514 30.8319 23.7459 30.5417 23.6535V19.4577H28.9583V21.8327H21.0417V19.4577H19.4583V30.541H23.6542C23.7465 30.8313 23.8521 31.1084 23.9708 31.3723C24.0896 31.6362 24.2347 31.8868 24.4062 32.1243H19.4583ZM25 19.4577C25.2243 19.4577 25.4123 19.3818 25.5641 19.2301C25.7158 19.0783 25.7917 18.8903 25.7917 18.666C25.7917 18.4417 25.7158 18.2537 25.5641 18.102C25.4123 17.9502 25.2243 17.8743 25 17.8743C24.7757 17.8743 24.5877 17.9502 24.4359 18.102C24.2842 18.2537 24.2083 18.4417 24.2083 18.666C24.2083 18.8903 24.2842 19.0783 24.4359 19.2301C24.5877 19.3818 24.7757 19.4577 25 19.4577Z" fill="#218448"/>
</svg>
