<svg width="38" height="38" viewBox="0 0 38 38" fill="none" xmlns="http://www.w3.org/2000/svg">
<rect width="38" height="38" rx="19" fill="#218448" fill-opacity="0.4"/>
<path d="M21.75 27.25L16.25 25.325L11.9875 26.975C11.6819 27.0972 11.3993 27.0628 11.1396 26.8719C10.8799 26.6809 10.75 26.425 10.75 26.1042V13.2708C10.75 13.0722 10.8073 12.8965 10.9219 12.7438C11.0365 12.591 11.1931 12.4764 11.3917 12.4L16.25 10.75L21.75 12.675L26.0125 11.025C26.3181 10.9028 26.6007 10.9372 26.8604 11.1281C27.1201 11.3191 27.25 11.575 27.25 11.8958V24.7292C27.25 24.9278 27.1927 25.1035 27.0781 25.2563C26.9635 25.409 26.8069 25.5236 26.6083 25.6L21.75 27.25ZM20.8333 25.0042V14.2792L17.1667 12.9958V23.7208L20.8333 25.0042ZM22.6667 25.0042L25.4167 24.0875V13.225L22.6667 14.2792V25.0042ZM12.5833 24.775L15.3333 23.7208V12.9958L12.5833 13.9125V24.775Z" fill="#218448"/>
</svg>
