<svg width="137" height="24" viewBox="0 0 137 24" fill="none" xmlns="http://www.w3.org/2000/svg">
<g clip-path="url(#clip0_1_564)">
<g clip-path="url(#clip1_1_564)">
<mask id="mask0_1_564" style="mask-type:luminance" maskUnits="userSpaceOnUse" x="0" y="0" width="158" height="24">
<path d="M158 0.476562H6.10352e-05V23.7244H158V0.476562Z" fill="white"/>
</mask>
<g mask="url(#mask0_1_564)">
<path d="M54.7822 2.84328C54.7822 2.29329 55.0045 1.76582 55.4003 1.37691C55.796 0.988015 56.3328 0.769531 56.8925 0.769531C57.4522 0.769531 57.9889 0.988015 58.3846 1.37691C58.7804 1.76582 59.0027 2.29329 59.0027 2.84328C58.9823 3.37988 58.7511 3.88782 58.3576 4.26037C57.964 4.63292 57.4389 4.84107 56.8925 4.84107C56.3461 4.84107 55.8209 4.63292 55.4274 4.26037C55.0339 3.88782 54.8026 3.37988 54.7822 2.84328Z" fill="#B9BEC7"/>
<path d="M88.0782 16.6747C88.0782 15.5237 89.0216 14.5938 90.184 14.5938C90.7452 14.5938 91.2835 14.8129 91.6804 15.2029C92.0772 15.5929 92.3001 16.1217 92.3001 16.6733C92.3001 17.2248 92.0772 17.7537 91.6804 18.1437C91.2835 18.5337 90.7452 18.7528 90.184 18.7528C89.0231 18.7528 88.0782 17.8213 88.0782 16.6733" fill="#B9BEC7"/>
<path d="M20.1491 15.7719C18.3328 15.7719 17.069 14.3537 17.069 12.3262C17.069 10.3001 18.3328 8.88341 20.1506 8.88341C21.9772 8.88341 23.2542 10.3001 23.2542 12.3262C23.2542 14.3855 22.0051 15.7719 20.1491 15.7719ZM20.1491 5.8551C16.3048 5.8551 13.5142 8.57726 13.5142 12.3262C13.5142 16.0766 16.3063 18.7973 20.1491 18.7973C24.0096 18.7973 26.8105 16.0766 26.8105 12.3276C26.8105 8.57726 24.0096 5.8551 20.1506 5.8551H20.1491ZM50.6948 12.6511C50.561 12.3968 50.3919 12.1621 50.1922 11.9536L50.0746 11.8338L50.1981 11.7182C50.3745 11.5348 50.5552 11.3182 50.7286 11.0669L54.1232 6.11071H50.0027L47.453 9.98816C47.309 10.1961 47.0181 10.3001 46.5816 10.3001H46.0011V2.96976C46.0011 1.50398 45.0709 1.30469 44.0672 1.30469H42.3478L42.3522 18.6067H46.0025V13.4165H46.345C46.7609 13.4165 47.043 13.4642 47.1738 13.6866L49.187 17.421C49.7498 18.4348 50.3097 18.6067 51.3648 18.6067H54.1614L52.0776 15.2217L50.6963 12.6511H50.6948ZM68.4144 5.82622C66.5569 5.82622 65.3725 6.63781 64.7082 7.32377L64.4879 7.54327L64.4085 7.24434C64.2145 6.50929 63.5562 6.10638 62.5672 6.10638H60.9315L60.9418 18.6023H64.5671V12.8432C64.5671 12.28 64.6406 11.7919 64.7934 11.3456C65.1961 9.99538 66.3218 9.15635 67.7281 9.15635C68.8596 9.15635 69.302 9.74411 69.302 11.2604V16.7033C69.302 17.9972 69.9118 18.6023 71.23 18.6023H72.9552L72.9494 10.6539C72.9494 7.49706 71.3814 5.82766 68.4144 5.82766V5.82622ZM56.9359 6.11071H55.218L55.2297 15.7733V18.6067H57.0622L57.1269 18.6095L57.9822 18.6067H58.8316V18.6023H58.8375L58.8448 8.00972C58.8448 6.73168 58.2232 6.11215 56.9374 6.11215L56.9359 6.11071ZM34.3874 15.7719C32.571 15.7719 31.3058 14.3537 31.3058 12.3262C31.3058 10.3001 32.5711 8.88341 34.3889 8.88341C36.2111 8.88341 37.4926 10.3001 37.4926 12.3262C37.4926 14.3855 36.2434 15.7719 34.3889 15.7719H34.3874ZM34.3874 5.8551C30.5401 5.8551 27.748 8.57726 27.748 12.3262C27.748 16.0766 30.5402 18.7973 34.3889 18.7973C38.2435 18.7973 41.0502 16.0766 41.0502 12.3276C41.0502 8.57726 38.2435 5.8551 34.3889 5.8551" fill="#B9BEC7"/>
<path d="M112.087 15.7722C110.271 15.7722 109.004 14.3541 109.004 12.3265C109.004 10.3005 110.271 8.88378 112.087 8.88378C113.912 8.88378 115.192 10.3005 115.192 12.3265C115.192 14.3859 113.943 15.7722 112.087 15.7722ZM112.087 5.85547C108.24 5.85547 105.449 8.57762 105.449 12.3265C105.449 16.0769 108.24 18.7976 112.087 18.7976C115.943 18.7976 118.748 16.0769 118.748 12.328C118.748 8.57762 115.941 5.85547 112.087 5.85547Z" fill="#B9BEC7"/>
<path d="M80.5919 15.2237C78.6095 15.2237 77.9042 13.5254 77.9042 11.9325C77.9042 11.2307 78.0849 8.94462 80.4023 8.94462C81.553 8.94462 83.0857 9.2681 83.0857 12.0495C83.0857 14.6735 81.7293 15.2237 80.5919 15.2237ZM84.9681 6.07949C84.2804 6.07949 83.7514 6.34954 83.4854 6.84198L83.3855 7.03261L83.218 6.8882C82.6331 6.39142 81.5838 5.80078 79.8807 5.80078C76.4905 5.80078 74.2083 8.30343 74.2083 12.025C74.2083 15.745 76.5697 18.3444 79.9482 18.3444C81.1018 18.3444 82.0144 18.0787 82.7374 17.5415L83.0166 17.335V17.6816C83.0166 19.351 81.9189 20.2723 79.9277 20.2723C78.9592 20.2723 78.079 20.0412 77.4883 19.8304C76.7212 19.6022 76.2685 19.7914 75.9585 20.5496L75.6705 21.2485L75.2634 22.271L75.5147 22.4024C76.7902 23.0667 78.4493 23.4638 79.9482 23.4638C83.0343 23.4638 86.6405 21.9114 86.6405 17.5415L86.6537 6.07949H84.9681Z" fill="#B9BEC7"/>
<path d="M6.87479 15.6309L3.92397 15.628V12.1622C3.92397 11.4199 4.21641 11.0357 4.86153 10.9462H6.87479C8.31052 10.9462 9.23924 11.8358 9.24071 13.2756C9.23924 14.7543 8.33403 15.6295 6.87479 15.6295V15.6309ZM3.92397 6.27881V5.36613C3.92397 4.56754 4.26786 4.18773 5.02173 4.13863H6.53243C7.82709 4.13863 8.60299 4.89968 8.60299 6.17484C8.60299 7.14528 8.071 8.27891 6.57943 8.27891H3.92397V6.27881ZM10.6427 9.73892L10.1092 9.44431L10.575 9.05296C11.1173 8.59517 12.024 7.56552 12.024 5.78926C12.024 3.06854 9.87854 1.3125 6.55593 1.3125H2.33246C1.85723 1.32952 1.40691 1.52558 1.07478 1.86003C0.74265 2.19448 0.554185 2.64169 0.548462 3.10898V18.5466H6.63082C10.3237 18.5466 12.7073 16.571 12.7073 13.511C12.7073 11.8632 11.9373 10.4552 10.6427 9.73892Z" fill="#B9BEC7"/>
<path d="M135.169 5.87109C134.42 5.8738 133.682 6.0417 133.008 6.36239C132.335 6.68308 131.743 7.14837 131.277 7.72389L131.016 8.05026L130.81 7.6849C130.137 6.48195 128.982 5.87109 127.376 5.87109C125.69 5.87109 124.56 6.79532 124.035 7.34409L123.692 7.70945L123.559 7.22856C123.368 6.53538 122.741 6.15558 121.792 6.15558H120.268L120.253 18.6039H123.714V13.109C123.714 12.6267 123.775 12.1516 123.897 11.6533C124.228 10.3248 125.136 8.89651 126.663 9.03948C127.603 9.12902 128.065 9.84385 128.065 11.2244V18.6039H131.551V13.109C131.551 12.5068 131.608 12.0563 131.746 11.6057C132.025 10.3378 132.975 9.03804 134.447 9.03804C135.514 9.03804 135.908 9.63013 135.908 11.2244V16.7843C135.908 18.0407 136.478 18.6039 137.758 18.6039H139.386L139.389 10.6569C139.389 7.48128 137.967 5.87109 135.169 5.87109ZM103.671 14.2816C103.66 14.2946 102.172 15.8369 100.21 15.8369C98.4231 15.8369 96.6185 14.7596 96.6185 12.3552C96.6185 10.2785 98.0175 8.8272 100.022 8.8272C100.671 8.8272 101.412 9.05537 101.528 9.44095L101.544 9.50593C101.618 9.77139 101.779 10.0054 102.003 10.1717C102.226 10.3381 102.499 10.4274 102.779 10.4258L104.674 10.4287V8.79976C104.674 6.65091 101.893 5.87109 100.022 5.87109C96.0189 5.87109 93.1151 8.60913 93.1151 12.3812C93.1151 16.1503 95.9866 18.8855 99.9485 18.8855C103.384 18.8855 105.253 16.6659 105.271 16.6442L105.371 16.5229L103.869 14.0751L103.671 14.2816Z" fill="#B9BEC7"/>
</g>
</g>
</g>
<defs>
<clipPath id="clip0_1_564">
<rect width="140" height="24" fill="white"/>
</clipPath>
<clipPath id="clip1_1_564">
<rect width="140" height="24" fill="white"/>
</clipPath>
</defs>
</svg>
