<svg width="308" height="68" viewBox="0 0 308 68" fill="none" xmlns="http://www.w3.org/2000/svg">
<rect x="134" width="40" height="40" rx="20" fill="#218448"/>
<path d="M146 29V24.75L159.175 11.6C159.375 11.4 159.6 11.25 159.85 11.15C160.1 11.05 160.35 11 160.6 11C160.867 11 161.121 11.05 161.363 11.15C161.604 11.25 161.817 11.4 162 11.6L163.4 13C163.6 13.1833 163.75 13.3958 163.85 13.6375C163.95 13.8792 164 14.1333 164 14.4C164 14.65 163.95 14.9 163.85 15.15C163.75 15.4 163.6 15.625 163.4 15.825L150.25 29H146ZM148 27H149.4L159.225 17.2L158.525 16.475L157.8 15.775L148 25.6V27ZM158.525 16.475L157.8 15.775L159.225 17.2L158.525 16.475ZM156 29C157.233 29 158.375 28.6917 159.425 28.075C160.475 27.4583 161 26.6 161 25.5C161 24.9 160.842 24.3833 160.525 23.95C160.208 23.5167 159.783 23.1417 159.25 22.825L157.775 24.3C158.158 24.4667 158.458 24.65 158.675 24.85C158.892 25.05 159 25.2667 159 25.5C159 25.8833 158.696 26.2292 158.088 26.5375C157.479 26.8458 156.783 27 156 27C155.717 27 155.479 27.0958 155.288 27.2875C155.096 27.4792 155 27.7167 155 28C155 28.2833 155.096 28.5208 155.288 28.7125C155.479 28.9042 155.717 29 156 29ZM146.575 21.35L148.075 19.85C147.742 19.7167 147.479 19.5792 147.288 19.4375C147.096 19.2958 147 19.15 147 19C147 18.8 147.15 18.6 147.45 18.4C147.75 18.2 148.383 17.8917 149.35 17.475C150.817 16.8417 151.792 16.2667 152.275 15.75C152.758 15.2333 153 14.65 153 14C153 13.0833 152.633 12.3542 151.9 11.8125C151.167 11.2708 150.2 11 149 11C148.25 11 147.579 11.1333 146.988 11.4C146.396 11.6667 145.942 11.9917 145.625 12.375C145.442 12.5917 145.367 12.8333 145.4 13.1C145.433 13.3667 145.558 13.5833 145.775 13.75C145.992 13.9333 146.233 14.0083 146.5 13.975C146.767 13.9417 146.992 13.8333 147.175 13.65C147.408 13.4167 147.667 13.25 147.95 13.15C148.233 13.05 148.583 13 149 13C149.683 13 150.188 13.1 150.513 13.3C150.838 13.5 151 13.7333 151 14C151 14.2333 150.854 14.4458 150.562 14.6375C150.271 14.8292 149.6 15.1667 148.55 15.65C147.217 16.2333 146.292 16.7625 145.775 17.2375C145.258 17.7125 145 18.3 145 19C145 19.5333 145.142 19.9875 145.425 20.3625C145.708 20.7375 146.092 21.0667 146.575 21.35Z" fill="white"/>
<path d="M9.478 62.53L10.906 64H9.058L8.47 63.398C7.658 63.916 6.678 64.21 5.6 64.21C2.688 64.21 0.49 62.11 0.49 59.1C0.49 56.09 2.688 53.99 5.6 53.99C8.512 53.99 10.71 56.09 10.71 59.1C10.71 60.472 10.248 61.662 9.478 62.53ZM5.6 62.726C6.272 62.726 6.874 62.572 7.378 62.278L5.292 60.15H7.154L8.386 61.41C8.848 60.794 9.114 59.996 9.114 59.1C9.114 57 7.672 55.474 5.6 55.474C3.528 55.474 2.086 57 2.086 59.1C2.086 61.2 3.528 62.726 5.6 62.726ZM14.3196 64.21C13.0456 64.21 11.9536 63.44 11.9536 61.452V57.532H13.3536V61.312C13.3536 62.376 13.8856 62.88 14.7116 62.88C15.6636 62.88 16.3356 62.264 16.3356 60.626V57.532H17.7076V64H16.3356V63.02H16.3076C15.9856 63.664 15.3696 64.21 14.3196 64.21ZM19.3087 54.34H20.9887V56.02H19.3087V54.34ZM20.8347 64H19.4627V57.532H20.8347V64ZM25.7143 64.21C23.6283 64.21 22.1583 62.824 22.1583 60.766C22.1583 58.708 23.6283 57.322 25.7143 57.322C26.5543 57.322 27.2683 57.546 27.9263 57.98L27.2823 59.142C26.8343 58.862 26.2743 58.652 25.6723 58.652C24.4263 58.652 23.6143 59.548 23.6143 60.766C23.6143 61.984 24.4263 62.88 25.6723 62.88C26.2743 62.88 26.8343 62.67 27.2823 62.39L27.9263 63.552C27.2683 63.986 26.5543 64.21 25.7143 64.21ZM31.8187 60.472L34.8287 64H33.0227L30.4187 60.822V64H29.0467V54.2H30.4187V60.29L32.7287 57.532H34.5347L31.8187 60.472ZM35.8143 54.2H37.1863V64H35.8143V54.2ZM41.4391 61.774L43.1611 57.532H44.6731L40.6411 66.8H39.1851L40.7391 63.412L38.0231 57.532H39.6611L41.4391 61.774ZM52.1052 64.21C50.3972 64.21 48.9552 62.922 48.9552 60.766C48.9552 58.61 50.3972 57.322 52.1052 57.322C53.1692 57.322 53.8832 57.784 54.2892 58.484H54.3172V57.532H55.6892V64H54.3172V63.048H54.2892C53.8832 63.748 53.1692 64.21 52.1052 64.21ZM52.3992 62.866C53.6032 62.866 54.3872 61.998 54.3872 60.766C54.3872 59.534 53.6032 58.666 52.3992 58.666C51.1952 58.666 50.4112 59.534 50.4112 60.766C50.4112 61.998 51.1952 62.866 52.3992 62.866ZM60.1032 64.21C58.3952 64.21 56.9532 62.922 56.9532 60.766C56.9532 58.61 58.3952 57.322 60.1032 57.322C61.1672 57.322 61.8812 57.784 62.2872 58.484H62.3152V54.2H63.6872V64H62.3152V63.048H62.2872C61.8812 63.748 61.1672 64.21 60.1032 64.21ZM60.3972 62.866C61.6012 62.866 62.3852 61.998 62.3852 60.766C62.3852 59.534 61.6012 58.666 60.3972 58.666C59.1932 58.666 58.4092 59.534 58.4092 60.766C58.4092 61.998 59.1932 62.866 60.3972 62.866ZM68.1696 64.21C66.4616 64.21 65.0196 62.922 65.0196 60.766C65.0196 58.61 66.4616 57.322 68.1696 57.322C69.2336 57.322 69.9476 57.784 70.3536 58.484H70.3816V54.2H71.7536V64H70.3816V63.048H70.3536C69.9476 63.748 69.2336 64.21 68.1696 64.21ZM68.4636 62.866C69.6676 62.866 70.4516 61.998 70.4516 60.766C70.4516 59.534 69.6676 58.666 68.4636 58.666C67.2596 58.666 66.4756 59.534 66.4756 60.766C66.4756 61.998 67.2596 62.866 68.4636 62.866ZM78.9386 64H77.5666V57.532H78.9386V58.54H78.9666C79.3446 57.672 80.0866 57.322 80.9126 57.322C81.8366 57.322 82.4946 57.728 82.8726 58.638H82.9006C83.2926 57.714 84.1186 57.322 84.9306 57.322C86.1486 57.322 87.1426 58.078 87.1426 59.996V64H85.7706V60.066C85.7706 59.17 85.3226 58.694 84.4966 58.694C83.6566 58.694 83.0406 59.24 83.0406 60.64V64H81.6686V60.066C81.6686 59.17 81.2206 58.694 80.3806 58.694C79.5546 58.694 78.9386 59.24 78.9386 60.654V64ZM91.4802 64.21C89.7722 64.21 88.3302 62.922 88.3302 60.766C88.3302 58.61 89.7722 57.322 91.4802 57.322C92.5442 57.322 93.2582 57.784 93.6642 58.484H93.6922V57.532H95.0642V64H93.6922V63.048H93.6642C93.2582 63.748 92.5442 64.21 91.4802 64.21ZM91.7742 62.866C92.9782 62.866 93.7622 61.998 93.7622 60.766C93.7622 59.534 92.9782 58.666 91.7742 58.666C90.5702 58.666 89.7862 59.534 89.7862 60.766C89.7862 61.998 90.5702 62.866 91.7742 62.866ZM100.29 57.336H100.388V58.946H100.178C98.8342 58.946 98.1202 59.59 98.1202 61.13V64H96.7482V57.532H98.1202V58.946H98.1482C98.4562 57.98 99.1982 57.336 100.29 57.336ZM104.211 60.472L107.221 64H105.415L102.811 60.822V64H101.439V54.2H102.811V60.29L105.121 57.532H106.927L104.211 60.472ZM110.46 57.322C112.434 57.322 113.554 58.68 113.554 60.766V60.99H108.542C108.598 62.138 109.396 62.894 110.502 62.894C111.566 62.894 112.168 62.194 112.49 61.76L113.456 62.67C112.98 63.328 112.126 64.21 110.53 64.21C108.472 64.21 107.156 62.824 107.156 60.78C107.156 58.82 108.388 57.322 110.46 57.322ZM110.376 58.582C109.452 58.582 108.78 59.058 108.612 59.996H112.07C112.014 59.1 111.356 58.582 110.376 58.582ZM118.351 57.336H118.449V58.946H118.239C116.895 58.946 116.181 59.59 116.181 61.13V64H114.809V57.532H116.181V58.946H116.209C116.517 57.98 117.259 57.336 118.351 57.336ZM121.158 64.21C120.234 64.21 119.268 63.958 118.526 63.524L119.142 62.306C119.744 62.656 120.43 62.922 121.2 62.922C121.858 62.922 122.208 62.726 122.208 62.32C122.208 62.054 122.068 61.858 121.522 61.592L120.346 61.018C119.366 60.556 118.988 59.898 118.988 59.156C118.988 57.966 119.87 57.322 121.284 57.322C122.026 57.322 122.838 57.518 123.524 57.826L122.964 59.016C122.474 58.806 121.872 58.596 121.242 58.596C120.64 58.596 120.444 58.792 120.444 59.086C120.444 59.394 120.626 59.59 121.186 59.856L122.39 60.43C123.23 60.822 123.678 61.382 123.678 62.25C123.678 63.566 122.67 64.21 121.158 64.21ZM124.747 62.334H126.413V64L125.419 66.002H124.733L125.475 64H124.747V62.334ZM134.82 64.21C133.112 64.21 131.67 62.922 131.67 60.766C131.67 58.61 133.112 57.322 134.82 57.322C135.884 57.322 136.598 57.784 137.004 58.484H137.032V54.2H138.404V64H137.032V63.048H137.004C136.598 63.748 135.884 64.21 134.82 64.21ZM135.114 62.866C136.318 62.866 137.102 61.998 137.102 60.766C137.102 59.534 136.318 58.666 135.114 58.666C133.91 58.666 133.126 59.534 133.126 60.766C133.126 61.998 133.91 62.866 135.114 62.866ZM143.698 57.336H143.796V58.946H143.586C142.242 58.946 141.528 59.59 141.528 61.13V64H140.156V57.532H141.528V58.946H141.556C141.864 57.98 142.606 57.336 143.698 57.336ZM147.152 64.21C145.444 64.21 144.002 62.922 144.002 60.766C144.002 58.61 145.444 57.322 147.152 57.322C148.216 57.322 148.93 57.784 149.336 58.484H149.364V57.532H150.736V64H149.364V63.048H149.336C148.93 63.748 148.216 64.21 147.152 64.21ZM147.446 62.866C148.65 62.866 149.434 61.998 149.434 60.766C149.434 59.534 148.65 58.666 147.446 58.666C146.242 58.666 145.458 59.534 145.458 60.766C145.458 61.998 146.242 62.866 147.446 62.866ZM158.653 62.194L159.955 57.532H161.467L159.297 64H158.037L156.497 59.366L154.943 64H153.683L151.513 57.532H153.025L154.327 62.194L155.825 57.532H157.155L158.653 62.194ZM167.532 66.8H166.16V57.532H167.532V58.484H167.56C167.966 57.784 168.68 57.322 169.744 57.322C171.452 57.322 172.894 58.61 172.894 60.766C172.894 62.922 171.452 64.21 169.744 64.21C168.68 64.21 167.966 63.748 167.56 63.048H167.532V66.8ZM169.45 62.866C170.654 62.866 171.438 61.998 171.438 60.766C171.438 59.534 170.654 58.666 169.45 58.666C168.246 58.666 167.462 59.534 167.462 60.766C167.462 61.998 168.246 62.866 169.45 62.866ZM176.888 64.21C175.18 64.21 173.738 62.922 173.738 60.766C173.738 58.61 175.18 57.322 176.888 57.322C177.952 57.322 178.666 57.784 179.072 58.484H179.1V57.532H180.472V64H179.1V63.048H179.072C178.666 63.748 177.952 64.21 176.888 64.21ZM177.182 62.866C178.386 62.866 179.17 61.998 179.17 60.766C179.17 59.534 178.386 58.666 177.182 58.666C175.978 58.666 175.194 59.534 175.194 60.766C175.194 61.998 175.978 62.866 177.182 62.866ZM185.362 57.532V58.694H184.046V62.082C184.046 62.544 184.242 62.754 184.718 62.754H185.054V64.014H184.424C183.29 64.014 182.674 63.412 182.674 62.348V58.694H181.526V57.532H182.674V54.942H184.046V57.532H185.362ZM186.547 54.2H187.919V58.512H187.947C188.367 57.77 189.067 57.322 190.061 57.322C191.433 57.322 192.497 58.064 192.497 60.024V64H191.125V60.262C191.125 59.156 190.565 58.694 189.641 58.694C188.633 58.694 187.919 59.296 187.919 60.906V64H186.547V54.2ZM196.108 64.21C195.184 64.21 194.218 63.958 193.476 63.524L194.092 62.306C194.694 62.656 195.38 62.922 196.15 62.922C196.808 62.922 197.158 62.726 197.158 62.32C197.158 62.054 197.018 61.858 196.472 61.592L195.296 61.018C194.316 60.556 193.938 59.898 193.938 59.156C193.938 57.966 194.82 57.322 196.234 57.322C196.976 57.322 197.788 57.518 198.474 57.826L197.914 59.016C197.424 58.806 196.822 58.596 196.192 58.596C195.59 58.596 195.394 58.792 195.394 59.086C195.394 59.394 195.576 59.59 196.136 59.856L197.34 60.43C198.18 60.822 198.628 61.382 198.628 62.25C198.628 63.566 197.62 64.21 196.108 64.21ZM199.696 62.334H201.362V64L200.368 66.002H199.682L200.424 64H199.696V62.334ZM209.769 64.21C208.061 64.21 206.619 62.922 206.619 60.766C206.619 58.61 208.061 57.322 209.769 57.322C210.833 57.322 211.547 57.784 211.953 58.484H211.981V57.532H213.353V64H211.981V63.048H211.953C211.547 63.748 210.833 64.21 209.769 64.21ZM210.063 62.866C211.267 62.866 212.051 61.998 212.051 60.766C212.051 59.534 211.267 58.666 210.063 58.666C208.859 58.666 208.075 59.534 208.075 60.766C208.075 61.998 208.859 62.866 210.063 62.866ZM218.551 57.322C219.937 57.322 220.987 58.064 220.987 60.024V64H219.615V60.262C219.615 59.156 219.055 58.694 218.131 58.694C217.123 58.694 216.409 59.296 216.409 60.906V64H215.037V57.532H216.409V58.512H216.437C216.857 57.77 217.557 57.322 218.551 57.322ZM225.328 64.21C223.62 64.21 222.178 62.922 222.178 60.766C222.178 58.61 223.62 57.322 225.328 57.322C226.392 57.322 227.106 57.784 227.512 58.484H227.54V54.2H228.912V64H227.54V63.048H227.512C227.106 63.748 226.392 64.21 225.328 64.21ZM225.622 62.866C226.826 62.866 227.61 61.998 227.61 60.766C227.61 59.534 226.826 58.666 225.622 58.666C224.418 58.666 223.634 59.534 223.634 60.766C223.634 61.998 224.418 62.866 225.622 62.866ZM237.455 64.21C235.747 64.21 234.305 62.922 234.305 60.766C234.305 58.61 235.747 57.322 237.455 57.322C238.519 57.322 239.233 57.784 239.639 58.484H239.667V57.532H241.039V64H239.667V63.048H239.639C239.233 63.748 238.519 64.21 237.455 64.21ZM237.749 62.866C238.953 62.866 239.737 61.998 239.737 60.766C239.737 59.534 238.953 58.666 237.749 58.666C236.545 58.666 235.761 59.534 235.761 60.766C235.761 61.998 236.545 62.866 237.749 62.866ZM245.453 64.21C243.745 64.21 242.303 62.922 242.303 60.766C242.303 58.61 243.745 57.322 245.453 57.322C246.517 57.322 247.231 57.784 247.637 58.484H247.665V54.2H249.037V64H247.665V63.048H247.637C247.231 63.748 246.517 64.21 245.453 64.21ZM245.747 62.866C246.951 62.866 247.735 61.998 247.735 60.766C247.735 59.534 246.951 58.666 245.747 58.666C244.543 58.666 243.759 59.534 243.759 60.766C243.759 61.998 244.543 62.866 245.747 62.866ZM250.705 54.34H252.385V56.02H250.705V54.34ZM249.865 66.842V65.596H250.117C250.649 65.596 250.859 65.372 250.859 64.812V57.532H252.231V64.952C252.231 66.156 251.545 66.842 250.327 66.842H249.865ZM256.271 64.21C254.997 64.21 253.905 63.44 253.905 61.452V57.532H255.305V61.312C255.305 62.376 255.837 62.88 256.663 62.88C257.615 62.88 258.287 62.264 258.287 60.626V57.532H259.659V64H258.287V63.02H258.259C257.937 63.664 257.321 64.21 256.271 64.21ZM263.346 64.21C262.422 64.21 261.456 63.958 260.714 63.524L261.33 62.306C261.932 62.656 262.618 62.922 263.388 62.922C264.046 62.922 264.396 62.726 264.396 62.32C264.396 62.054 264.256 61.858 263.71 61.592L262.534 61.018C261.554 60.556 261.176 59.898 261.176 59.156C261.176 57.966 262.058 57.322 263.472 57.322C264.214 57.322 265.026 57.518 265.712 57.826L265.152 59.016C264.662 58.806 264.06 58.596 263.43 58.596C262.828 58.596 262.632 58.792 262.632 59.086C262.632 59.394 262.814 59.59 263.374 59.856L264.578 60.43C265.418 60.822 265.866 61.382 265.866 62.25C265.866 63.566 264.858 64.21 263.346 64.21ZM270.196 57.532V58.694H268.88V62.082C268.88 62.544 269.076 62.754 269.552 62.754H269.888V64.014H269.258C268.124 64.014 267.508 63.412 267.508 62.348V58.694H266.36V57.532H267.508V54.942H268.88V57.532H270.196ZM277.373 64.21C276.449 64.21 275.483 63.958 274.741 63.524L275.357 62.306C275.959 62.656 276.645 62.922 277.415 62.922C278.073 62.922 278.423 62.726 278.423 62.32C278.423 62.054 278.283 61.858 277.737 61.592L276.561 61.018C275.581 60.556 275.203 59.898 275.203 59.156C275.203 57.966 276.085 57.322 277.499 57.322C278.241 57.322 279.053 57.518 279.739 57.826L279.179 59.016C278.689 58.806 278.087 58.596 277.457 58.596C276.855 58.596 276.659 58.792 276.659 59.086C276.659 59.394 276.841 59.59 277.401 59.856L278.605 60.43C279.445 60.822 279.893 61.382 279.893 62.25C279.893 63.566 278.885 64.21 277.373 64.21ZM284.224 57.532V58.694H282.908V62.082C282.908 62.544 283.104 62.754 283.58 62.754H283.916V64.014H283.286C282.152 64.014 281.536 63.412 281.536 62.348V58.694H280.388V57.532H281.536V54.942H282.908V57.532H284.224ZM287.984 61.774L289.706 57.532H291.218L287.186 66.8H285.73L287.284 63.412L284.568 57.532H286.206L287.984 61.774ZM292.066 54.2H293.438V64H292.066V54.2ZM298.066 57.322C300.04 57.322 301.16 58.68 301.16 60.766V60.99H296.148C296.204 62.138 297.002 62.894 298.108 62.894C299.172 62.894 299.774 62.194 300.096 61.76L301.062 62.67C300.586 63.328 299.732 64.21 298.136 64.21C296.078 64.21 294.762 62.824 294.762 60.78C294.762 58.82 295.994 57.322 298.066 57.322ZM297.982 58.582C297.058 58.582 296.386 59.058 296.218 59.996H299.676C299.62 59.1 298.962 58.582 297.982 58.582ZM304.416 64.21C303.492 64.21 302.526 63.958 301.784 63.524L302.4 62.306C303.002 62.656 303.688 62.922 304.458 62.922C305.116 62.922 305.466 62.726 305.466 62.32C305.466 62.054 305.326 61.858 304.78 61.592L303.604 61.018C302.624 60.556 302.246 59.898 302.246 59.156C302.246 57.966 303.128 57.322 304.542 57.322C305.284 57.322 306.096 57.518 306.782 57.826L306.222 59.016C305.732 58.806 305.13 58.596 304.5 58.596C303.898 58.596 303.702 58.792 303.702 59.086C303.702 59.394 303.884 59.59 304.444 59.856L305.648 60.43C306.488 60.822 306.936 61.382 306.936 62.25C306.936 63.566 305.928 64.21 304.416 64.21Z" fill="black"/>
</svg>
