<svg width="303" height="68" viewBox="0 0 303 68" fill="none" xmlns="http://www.w3.org/2000/svg">
<rect x="131.5" width="40" height="40" rx="20" fill="#218448"/>
<path d="M144.5 29C143.95 29 143.479 28.8042 143.088 28.4125C142.696 28.0208 142.5 27.55 142.5 27V13C142.5 12.45 142.696 11.9792 143.088 11.5875C143.479 11.1958 143.95 11 144.5 11H158.5C159.05 11 159.521 11.1958 159.913 11.5875C160.304 11.9792 160.5 12.45 160.5 13V27C160.5 27.55 160.304 28.0208 159.913 28.4125C159.521 28.8042 159.05 29 158.5 29H144.5ZM144.5 27H150.5V13H144.5V27ZM152.5 27H158.5V20H152.5V27ZM152.5 18H158.5V13H152.5V18Z" fill="white"/>
<path d="M7.182 54.2H8.708V60.22C8.708 62.656 7.168 64.21 4.774 64.21C2.38 64.21 0.84 62.656 0.84 60.22V54.2H2.366V60.178C2.366 61.76 3.402 62.698 4.774 62.698C6.146 62.698 7.182 61.76 7.182 60.178V54.2ZM12.385 64.21C11.461 64.21 10.495 63.958 9.75297 63.524L10.369 62.306C10.971 62.656 11.657 62.922 12.427 62.922C13.085 62.922 13.435 62.726 13.435 62.32C13.435 62.054 13.295 61.858 12.749 61.592L11.573 61.018C10.593 60.556 10.215 59.898 10.215 59.156C10.215 57.966 11.097 57.322 12.511 57.322C13.253 57.322 14.065 57.518 14.751 57.826L14.191 59.016C13.701 58.806 13.099 58.596 12.469 58.596C11.867 58.596 11.671 58.792 11.671 59.086C11.671 59.394 11.853 59.59 12.413 59.856L13.617 60.43C14.457 60.822 14.905 61.382 14.905 62.25C14.905 63.566 13.897 64.21 12.385 64.21ZM18.9135 57.322C20.8875 57.322 22.0075 58.68 22.0075 60.766V60.99H16.9955C17.0515 62.138 17.8495 62.894 18.9555 62.894C20.0195 62.894 20.6215 62.194 20.9435 61.76L21.9095 62.67C21.4335 63.328 20.5795 64.21 18.9835 64.21C16.9255 64.21 15.6095 62.824 15.6095 60.78C15.6095 58.82 16.8415 57.322 18.9135 57.322ZM18.8295 58.582C17.9055 58.582 17.2335 59.058 17.0655 59.996H20.5235C20.4675 59.1 19.8095 58.582 18.8295 58.582ZM26.8039 57.336H26.9019V58.946H26.6919C25.3479 58.946 24.6339 59.59 24.6339 61.13V64H23.2619V57.532H24.6339V58.946H24.6619C24.9699 57.98 25.7119 57.336 26.8039 57.336ZM27.3995 59.618H31.0535V60.962H27.3995V59.618ZM35.7377 55.334H35.5277C34.8697 55.334 34.3517 55.656 34.3517 56.594V57.532H35.6257V58.694H34.3517V64H32.9797V58.694H31.9577V57.532H32.9797V56.636C32.9797 55.04 33.8757 54.06 35.4717 54.06H35.7377V55.334ZM40.257 57.336H40.355V58.946H40.145C38.801 58.946 38.087 59.59 38.087 61.13V64H36.715V57.532H38.087V58.946H38.115C38.423 57.98 39.165 57.336 40.257 57.336ZM41.2521 54.34H42.9321V56.02H41.2521V54.34ZM42.7781 64H41.4061V57.532H42.7781V64ZM47.4056 57.322C49.3796 57.322 50.4996 58.68 50.4996 60.766V60.99H45.4876C45.5436 62.138 46.3416 62.894 47.4476 62.894C48.5116 62.894 49.1136 62.194 49.4356 61.76L50.4016 62.67C49.9256 63.328 49.0716 64.21 47.4756 64.21C45.4176 64.21 44.1016 62.824 44.1016 60.78C44.1016 58.82 45.3336 57.322 47.4056 57.322ZM47.3216 58.582C46.3976 58.582 45.7256 59.058 45.5576 59.996H49.0156C48.9596 59.1 48.3016 58.582 47.3216 58.582ZM55.2681 57.322C56.6541 57.322 57.7041 58.064 57.7041 60.024V64H56.3321V60.262C56.3321 59.156 55.7721 58.694 54.8481 58.694C53.8401 58.694 53.1261 59.296 53.1261 60.906V64H51.7541V57.532H53.1261V58.512H53.1541C53.5741 57.77 54.2741 57.322 55.2681 57.322ZM62.0446 64.21C60.3366 64.21 58.8946 62.922 58.8946 60.766C58.8946 58.61 60.3366 57.322 62.0446 57.322C63.1086 57.322 63.8226 57.784 64.2286 58.484H64.2566V54.2H65.6286V64H64.2566V63.048H64.2286C63.8226 63.748 63.1086 64.21 62.0446 64.21ZM62.3386 62.866C63.5426 62.866 64.3266 61.998 64.3266 60.766C64.3266 59.534 63.5426 58.666 62.3386 58.666C61.1346 58.666 60.3506 59.534 60.3506 60.766C60.3506 61.998 61.1346 62.866 62.3386 62.866ZM67.451 54.2H68.823V64H67.451V54.2ZM73.0758 61.774L74.7978 57.532H76.3098L72.2778 66.8H70.8218L72.3758 63.412L69.6598 57.532H71.2978L73.0758 61.774ZM80.9279 54.34H82.6079V56.02H80.9279V54.34ZM82.4539 64H81.0819V57.532H82.4539V64ZM87.7114 57.322C89.0974 57.322 90.1474 58.064 90.1474 60.024V64H88.7754V60.262C88.7754 59.156 88.2154 58.694 87.2914 58.694C86.2834 58.694 85.5694 59.296 85.5694 60.906V64H84.1974V57.532H85.5694V58.512H85.5974C86.0174 57.77 86.7174 57.322 87.7114 57.322ZM94.6085 57.532V58.694H93.2925V62.082C93.2925 62.544 93.4885 62.754 93.9645 62.754H94.3005V64.014H93.6705C92.5365 64.014 91.9205 63.412 91.9205 62.348V58.694H90.7725V57.532H91.9205V54.942H93.2925V57.532H94.6085ZM98.3334 57.322C100.307 57.322 101.427 58.68 101.427 60.766V60.99H96.4154C96.4714 62.138 97.2694 62.894 98.3754 62.894C99.4394 62.894 100.041 62.194 100.363 61.76L101.329 62.67C100.853 63.328 99.9994 64.21 98.4034 64.21C96.3454 64.21 95.0294 62.824 95.0294 60.78C95.0294 58.82 96.2614 57.322 98.3334 57.322ZM98.2494 58.582C97.3254 58.582 96.6534 59.058 96.4854 59.996H99.9434C99.8874 59.1 99.2294 58.582 98.2494 58.582ZM106.224 57.336H106.322V58.946H106.112C104.768 58.946 104.054 59.59 104.054 61.13V64H102.682V57.532H104.054V58.946H104.082C104.39 57.98 105.132 57.336 106.224 57.336ZM110.523 55.334H110.313C109.655 55.334 109.137 55.656 109.137 56.594V57.532H110.411V58.694H109.137V64H107.765V58.694H106.743V57.532H107.765V56.636C107.765 55.04 108.661 54.06 110.257 54.06H110.523V55.334ZM113.875 64.21C112.167 64.21 110.725 62.922 110.725 60.766C110.725 58.61 112.167 57.322 113.875 57.322C114.939 57.322 115.653 57.784 116.059 58.484H116.087V57.532H117.459V64H116.087V63.048H116.059C115.653 63.748 114.939 64.21 113.875 64.21ZM114.169 62.866C115.373 62.866 116.157 61.998 116.157 60.766C116.157 59.534 115.373 58.666 114.169 58.666C112.965 58.666 112.181 59.534 112.181 60.766C112.181 61.998 112.965 62.866 114.169 62.866ZM122.279 64.21C120.193 64.21 118.723 62.824 118.723 60.766C118.723 58.708 120.193 57.322 122.279 57.322C123.119 57.322 123.833 57.546 124.491 57.98L123.847 59.142C123.399 58.862 122.839 58.652 122.237 58.652C120.991 58.652 120.179 59.548 120.179 60.766C120.179 61.984 120.991 62.88 122.237 62.88C122.839 62.88 123.399 62.67 123.847 62.39L124.491 63.552C123.833 63.986 123.119 64.21 122.279 64.21ZM128.07 57.322C130.044 57.322 131.164 58.68 131.164 60.766V60.99H126.152C126.208 62.138 127.006 62.894 128.112 62.894C129.176 62.894 129.778 62.194 130.1 61.76L131.066 62.67C130.59 63.328 129.736 64.21 128.14 64.21C126.082 64.21 124.766 62.824 124.766 60.78C124.766 58.82 125.998 57.322 128.07 57.322ZM127.986 58.582C127.062 58.582 126.39 59.058 126.222 59.996H129.68C129.624 59.1 128.966 58.582 127.986 58.582ZM139.209 64.21C137.501 64.21 136.059 62.922 136.059 60.766C136.059 58.61 137.501 57.322 139.209 57.322C140.273 57.322 140.987 57.784 141.393 58.484H141.421V54.2H142.793V64H141.421V63.048H141.393C140.987 63.748 140.273 64.21 139.209 64.21ZM139.503 62.866C140.707 62.866 141.491 61.998 141.491 60.766C141.491 59.534 140.707 58.666 139.503 58.666C138.299 58.666 137.515 59.534 137.515 60.766C137.515 61.998 138.299 62.866 139.503 62.866ZM147.429 57.322C149.403 57.322 150.523 58.68 150.523 60.766V60.99H145.511C145.567 62.138 146.365 62.894 147.471 62.894C148.535 62.894 149.137 62.194 149.459 61.76L150.425 62.67C149.949 63.328 149.095 64.21 147.499 64.21C145.441 64.21 144.125 62.824 144.125 60.78C144.125 58.82 145.357 57.322 147.429 57.322ZM147.345 58.582C146.421 58.582 145.749 59.058 145.581 59.996H149.039C148.983 59.1 148.325 58.582 147.345 58.582ZM153.78 64.21C152.856 64.21 151.89 63.958 151.148 63.524L151.764 62.306C152.366 62.656 153.052 62.922 153.822 62.922C154.48 62.922 154.83 62.726 154.83 62.32C154.83 62.054 154.69 61.858 154.144 61.592L152.968 61.018C151.988 60.556 151.61 59.898 151.61 59.156C151.61 57.966 152.492 57.322 153.906 57.322C154.648 57.322 155.46 57.518 156.146 57.826L155.586 59.016C155.096 58.806 154.494 58.596 153.864 58.596C153.262 58.596 153.066 58.792 153.066 59.086C153.066 59.394 153.248 59.59 153.808 59.856L155.012 60.43C155.852 60.822 156.3 61.382 156.3 62.25C156.3 63.566 155.292 64.21 153.78 64.21ZM157.34 54.34H159.02V56.02H157.34V54.34ZM158.866 64H157.494V57.532H158.866V64ZM163.872 67.01C163.102 67.01 162.178 66.87 161.38 66.716L161.646 65.386C162.458 65.568 163.27 65.68 163.872 65.68C165.104 65.68 165.552 65.246 165.552 63.818V63.048H165.524C165.118 63.748 164.404 64.21 163.34 64.21C161.632 64.21 160.19 62.922 160.19 60.766C160.19 58.61 161.632 57.322 163.34 57.322C164.404 57.322 165.118 57.784 165.524 58.484H165.552V57.532H166.924V64C166.854 66.534 165.538 67.01 163.872 67.01ZM163.634 62.866C164.838 62.866 165.622 61.998 165.622 60.766C165.622 59.534 164.838 58.666 163.634 58.666C162.43 58.666 161.646 59.534 161.646 60.766C161.646 61.998 162.43 62.866 163.634 62.866ZM172.122 57.322C173.508 57.322 174.558 58.064 174.558 60.024V64H173.186V60.262C173.186 59.156 172.626 58.694 171.702 58.694C170.694 58.694 169.98 59.296 169.98 60.906V64H168.608V57.532H169.98V58.512H170.008C170.428 57.77 171.128 57.322 172.122 57.322ZM179.052 57.322C181.026 57.322 182.146 58.68 182.146 60.766V60.99H177.134C177.19 62.138 177.988 62.894 179.094 62.894C180.158 62.894 180.76 62.194 181.082 61.76L182.048 62.67C181.572 63.328 180.718 64.21 179.122 64.21C177.064 64.21 175.748 62.824 175.748 60.78C175.748 58.82 176.98 57.322 179.052 57.322ZM178.968 58.582C178.044 58.582 177.372 59.058 177.204 59.996H180.662C180.606 59.1 179.948 58.582 178.968 58.582ZM186.131 64.21C184.423 64.21 182.981 62.922 182.981 60.766C182.981 58.61 184.423 57.322 186.131 57.322C187.195 57.322 187.909 57.784 188.315 58.484H188.343V54.2H189.715V64H188.343V63.048H188.315C187.909 63.748 187.195 64.21 186.131 64.21ZM186.425 62.866C187.629 62.866 188.413 61.998 188.413 60.766C188.413 59.534 187.629 58.666 186.425 58.666C185.221 58.666 184.437 59.534 184.437 60.766C184.437 61.998 185.221 62.866 186.425 62.866ZM198.748 55.334H198.538C197.88 55.334 197.362 55.656 197.362 56.594V57.532H198.636V58.694H197.362V64H195.99V58.694H194.968V57.532H195.99V56.636C195.99 55.04 196.886 54.06 198.482 54.06H198.748V55.334ZM202.491 57.322C204.521 57.322 206.033 58.778 206.033 60.766C206.033 62.754 204.521 64.21 202.491 64.21C200.461 64.21 198.949 62.754 198.949 60.766C198.949 58.778 200.461 57.322 202.491 57.322ZM202.491 58.666C201.259 58.666 200.405 59.492 200.405 60.766C200.405 62.04 201.259 62.866 202.491 62.866C203.723 62.866 204.577 62.04 204.577 60.766C204.577 59.492 203.723 58.666 202.491 58.666ZM210.841 57.336H210.939V58.946H210.729C209.385 58.946 208.671 59.59 208.671 61.13V64H207.299V57.532H208.671V58.946H208.699C209.007 57.98 209.749 57.336 210.841 57.336ZM219.495 57.322C220.881 57.322 221.931 58.064 221.931 60.024V64H220.559V60.262C220.559 59.156 219.999 58.694 219.075 58.694C218.067 58.694 217.353 59.296 217.353 60.906V64H215.981V57.532H217.353V58.512H217.381C217.801 57.77 218.501 57.322 219.495 57.322ZM226.663 57.322C228.693 57.322 230.205 58.778 230.205 60.766C230.205 62.754 228.693 64.21 226.663 64.21C224.633 64.21 223.121 62.754 223.121 60.766C223.121 58.778 224.633 57.322 226.663 57.322ZM226.663 58.666C225.431 58.666 224.577 59.492 224.577 60.766C224.577 62.04 225.431 62.866 226.663 62.866C227.895 62.866 228.749 62.04 228.749 60.766C228.749 59.492 227.895 58.666 226.663 58.666ZM234.985 57.322C236.371 57.322 237.421 58.064 237.421 60.024V64H236.049V60.262C236.049 59.156 235.489 58.694 234.565 58.694C233.557 58.694 232.843 59.296 232.843 60.906V64H231.471V57.532H232.843V58.512H232.871C233.291 57.77 233.991 57.322 234.985 57.322ZM238.821 59.618H242.475V60.962H238.821V59.618ZM247.009 57.532V58.694H245.693V62.082C245.693 62.544 245.889 62.754 246.365 62.754H246.701V64.014H246.071C244.937 64.014 244.321 63.412 244.321 62.348V58.694H243.173V57.532H244.321V54.942H245.693V57.532H247.009ZM250.734 57.322C252.708 57.322 253.828 58.68 253.828 60.766V60.99H248.816C248.872 62.138 249.67 62.894 250.776 62.894C251.84 62.894 252.442 62.194 252.764 61.76L253.73 62.67C253.254 63.328 252.4 64.21 250.804 64.21C248.746 64.21 247.43 62.824 247.43 60.78C247.43 58.82 248.662 57.322 250.734 57.322ZM250.65 58.582C249.726 58.582 249.054 59.058 248.886 59.996H252.344C252.288 59.1 251.63 58.582 250.65 58.582ZM258.218 64.21C256.132 64.21 254.662 62.824 254.662 60.766C254.662 58.708 256.132 57.322 258.218 57.322C259.058 57.322 259.772 57.546 260.43 57.98L259.786 59.142C259.338 58.862 258.778 58.652 258.176 58.652C256.93 58.652 256.118 59.548 256.118 60.766C256.118 61.984 256.93 62.88 258.176 62.88C258.778 62.88 259.338 62.67 259.786 62.39L260.43 63.552C259.772 63.986 259.058 64.21 258.218 64.21ZM261.551 54.2H262.923V58.512H262.951C263.371 57.77 264.071 57.322 265.065 57.322C266.437 57.322 267.501 58.064 267.501 60.024V64H266.129V60.262C266.129 59.156 265.569 58.694 264.645 58.694C263.637 58.694 262.923 59.296 262.923 60.906V64H261.551V54.2ZM275.466 64.21C274.192 64.21 273.1 63.44 273.1 61.452V57.532H274.5V61.312C274.5 62.376 275.032 62.88 275.858 62.88C276.81 62.88 277.482 62.264 277.482 60.626V57.532H278.854V64H277.482V63.02H277.454C277.132 63.664 276.516 64.21 275.466 64.21ZM282.541 64.21C281.617 64.21 280.651 63.958 279.909 63.524L280.525 62.306C281.127 62.656 281.813 62.922 282.583 62.922C283.241 62.922 283.591 62.726 283.591 62.32C283.591 62.054 283.451 61.858 282.905 61.592L281.729 61.018C280.749 60.556 280.371 59.898 280.371 59.156C280.371 57.966 281.253 57.322 282.667 57.322C283.409 57.322 284.221 57.518 284.907 57.826L284.347 59.016C283.857 58.806 283.255 58.596 282.625 58.596C282.023 58.596 281.827 58.792 281.827 59.086C281.827 59.394 282.009 59.59 282.569 59.856L283.773 60.43C284.613 60.822 285.061 61.382 285.061 62.25C285.061 63.566 284.053 64.21 282.541 64.21ZM289.07 57.322C291.044 57.322 292.164 58.68 292.164 60.766V60.99H287.152C287.208 62.138 288.006 62.894 289.112 62.894C290.176 62.894 290.778 62.194 291.1 61.76L292.066 62.67C291.59 63.328 290.736 64.21 289.14 64.21C287.082 64.21 285.766 62.824 285.766 60.78C285.766 58.82 286.998 57.322 289.07 57.322ZM288.986 58.582C288.062 58.582 287.39 59.058 287.222 59.996H290.68C290.624 59.1 289.966 58.582 288.986 58.582ZM296.96 57.336H297.058V58.946H296.848C295.504 58.946 294.79 59.59 294.79 61.13V64H293.418V57.532H294.79V58.946H294.818C295.126 57.98 295.868 57.336 296.96 57.336ZM299.768 64.21C298.844 64.21 297.878 63.958 297.136 63.524L297.752 62.306C298.354 62.656 299.04 62.922 299.81 62.922C300.468 62.922 300.818 62.726 300.818 62.32C300.818 62.054 300.678 61.858 300.132 61.592L298.956 61.018C297.976 60.556 297.598 59.898 297.598 59.156C297.598 57.966 298.48 57.322 299.894 57.322C300.636 57.322 301.448 57.518 302.134 57.826L301.574 59.016C301.084 58.806 300.482 58.596 299.852 58.596C299.25 58.596 299.054 58.792 299.054 59.086C299.054 59.394 299.236 59.59 299.796 59.856L301 60.43C301.84 60.822 302.288 61.382 302.288 62.25C302.288 63.566 301.28 64.21 299.768 64.21Z" fill="black"/>
</svg>
