<svg width="273" height="68" viewBox="0 0 273 68" fill="none" xmlns="http://www.w3.org/2000/svg">
<rect x="116.5" width="40" height="40" rx="20" fill="#218448"/>
<path d="M139.8 24.7L141.2 23.3L137.5 19.6V15H135.5V20.4L139.8 24.7ZM136.5 30C135.117 30 133.817 29.7375 132.6 29.2125C131.383 28.6875 130.325 27.975 129.425 27.075C128.525 26.175 127.812 25.1167 127.288 23.9C126.763 22.6833 126.5 21.3833 126.5 20C126.5 18.6167 126.763 17.3167 127.288 16.1C127.812 14.8833 128.525 13.825 129.425 12.925C130.325 12.025 131.383 11.3125 132.6 10.7875C133.817 10.2625 135.117 10 136.5 10C137.883 10 139.183 10.2625 140.4 10.7875C141.617 11.3125 142.675 12.025 143.575 12.925C144.475 13.825 145.188 14.8833 145.712 16.1C146.238 17.3167 146.5 18.6167 146.5 20C146.5 21.3833 146.238 22.6833 145.712 23.9C145.188 25.1167 144.475 26.175 143.575 27.075C142.675 27.975 141.617 28.6875 140.4 29.2125C139.183 29.7375 137.883 30 136.5 30ZM136.5 28C138.717 28 140.604 27.2208 142.163 25.6625C143.721 24.1042 144.5 22.2167 144.5 20C144.5 17.7833 143.721 15.8958 142.163 14.3375C140.604 12.7792 138.717 12 136.5 12C134.283 12 132.396 12.7792 130.838 14.3375C129.279 15.8958 128.5 17.7833 128.5 20C128.5 22.2167 129.279 24.1042 130.838 25.6625C132.396 27.2208 134.283 28 136.5 28Z" fill="white"/>
<path d="M8.008 64H6.174L3.318 59.926H2.436V64H0.98V54.2H4.326C6.048 54.2 7.322 55.278 7.322 57.084C7.322 58.568 6.412 59.618 5.04 59.87L8.008 64ZM4.088 55.572H2.436V58.554H4.088C5.264 58.554 5.754 57.924 5.754 57.084C5.754 56.216 5.264 55.572 4.088 55.572ZM11.4486 57.322C13.4226 57.322 14.5426 58.68 14.5426 60.766V60.99H9.53061C9.58661 62.138 10.3846 62.894 11.4906 62.894C12.5546 62.894 13.1566 62.194 13.4786 61.76L14.4446 62.67C13.9686 63.328 13.1146 64.21 11.5186 64.21C9.46061 64.21 8.14461 62.824 8.14461 60.78C8.14461 58.82 9.37661 57.322 11.4486 57.322ZM11.3646 58.582C10.4406 58.582 9.76861 59.058 9.60061 59.996H13.0586C13.0026 59.1 12.3446 58.582 11.3646 58.582ZM18.527 64.21C16.819 64.21 15.377 62.922 15.377 60.766C15.377 58.61 16.819 57.322 18.527 57.322C19.591 57.322 20.305 57.784 20.711 58.484H20.739V57.532H22.111V64H20.739V63.048H20.711C20.305 63.748 19.591 64.21 18.527 64.21ZM18.821 62.866C20.025 62.866 20.809 61.998 20.809 60.766C20.809 59.534 20.025 58.666 18.821 58.666C17.617 58.666 16.833 59.534 16.833 60.766C16.833 61.998 17.617 62.866 18.821 62.866ZM23.8651 54.2H25.2371V64H23.8651V54.2ZM26.7706 59.618H30.4246V60.962H26.7706V59.618ZM34.9581 57.532V58.694H33.6421V62.082C33.6421 62.544 33.8381 62.754 34.3141 62.754H34.6501V64.014H34.0201C32.8861 64.014 32.2701 63.412 32.2701 62.348V58.694H31.1221V57.532H32.2701V54.942H33.6421V57.532H34.9581ZM35.9884 54.34H37.6684V56.02H35.9884V54.34ZM37.5144 64H36.1424V57.532H37.5144V64ZM40.63 64H39.258V57.532H40.63V58.54H40.658C41.036 57.672 41.778 57.322 42.604 57.322C43.528 57.322 44.186 57.728 44.564 58.638H44.592C44.984 57.714 45.81 57.322 46.622 57.322C47.84 57.322 48.834 58.078 48.834 59.996V64H47.462V60.066C47.462 59.17 47.014 58.694 46.188 58.694C45.348 58.694 44.732 59.24 44.732 60.64V64H43.36V60.066C43.36 59.17 42.912 58.694 42.072 58.694C41.246 58.694 40.63 59.24 40.63 60.654V64ZM53.3256 57.322C55.2996 57.322 56.4196 58.68 56.4196 60.766V60.99H51.4076C51.4636 62.138 52.2616 62.894 53.3676 62.894C54.4316 62.894 55.0336 62.194 55.3556 61.76L56.3216 62.67C55.8456 63.328 54.9916 64.21 53.3956 64.21C51.3376 64.21 50.0216 62.824 50.0216 60.78C50.0216 58.82 51.2536 57.322 53.3256 57.322ZM53.2416 58.582C52.3176 58.582 51.6456 59.058 51.4776 59.996H54.9356C54.8796 59.1 54.2216 58.582 53.2416 58.582ZM64.6185 57.322C66.5925 57.322 67.7125 58.68 67.7125 60.766V60.99H62.7005C62.7565 62.138 63.5545 62.894 64.6605 62.894C65.7245 62.894 66.3265 62.194 66.6485 61.76L67.6145 62.67C67.1385 63.328 66.2845 64.21 64.6885 64.21C62.6305 64.21 61.3145 62.824 61.3145 60.78C61.3145 58.82 62.5465 57.322 64.6185 57.322ZM64.5345 58.582C63.6105 58.582 62.9385 59.058 62.7705 59.996H66.2285C66.1725 59.1 65.5145 58.582 64.5345 58.582ZM71.697 64.21C69.989 64.21 68.547 62.922 68.547 60.766C68.547 58.61 69.989 57.322 71.697 57.322C72.761 57.322 73.475 57.784 73.881 58.484H73.909V54.2H75.281V64H73.909V63.048H73.881C73.475 63.748 72.761 64.21 71.697 64.21ZM71.991 62.866C73.195 62.866 73.979 61.998 73.979 60.766C73.979 59.534 73.195 58.666 71.991 58.666C70.787 58.666 70.003 59.534 70.003 60.766C70.003 61.998 70.787 62.866 71.991 62.866ZM76.9494 54.34H78.6294V56.02H76.9494V54.34ZM78.4754 64H77.1034V57.532H78.4754V64ZM83.4249 57.532V58.694H82.1089V62.082C82.1089 62.544 82.3049 62.754 82.7809 62.754H83.1169V64.014H82.4869C81.3529 64.014 80.7369 63.412 80.7369 62.348V58.694H79.5889V57.532H80.7369V54.942H82.1089V57.532H83.4249ZM84.4552 54.34H86.1352V56.02H84.4552V54.34ZM85.9812 64H84.6092V57.532H85.9812V64ZM91.2388 57.322C92.6248 57.322 93.6748 58.064 93.6748 60.024V64H92.3028V60.262C92.3028 59.156 91.7428 58.694 90.8188 58.694C89.8108 58.694 89.0968 59.296 89.0968 60.906V64H87.7248V57.532H89.0968V58.512H89.1248C89.5448 57.77 90.2448 57.322 91.2388 57.322ZM98.5473 67.01C97.7773 67.01 96.8533 66.87 96.0553 66.716L96.3213 65.386C97.1333 65.568 97.9453 65.68 98.5473 65.68C99.7793 65.68 100.227 65.246 100.227 63.818V63.048H100.199C99.7933 63.748 99.0793 64.21 98.0153 64.21C96.3073 64.21 94.8653 62.922 94.8653 60.766C94.8653 58.61 96.3073 57.322 98.0153 57.322C99.0793 57.322 99.7933 57.784 100.199 58.484H100.227V57.532H101.599V64C101.529 66.534 100.213 67.01 98.5473 67.01ZM98.3093 62.866C99.5133 62.866 100.297 61.998 100.297 60.766C100.297 59.534 99.5133 58.666 98.3093 58.666C97.1053 58.666 96.3213 59.534 96.3213 60.766C96.3213 61.998 97.1053 62.866 98.3093 62.866ZM113.44 62.194L114.742 57.532H116.254L114.084 64H112.824L111.284 59.366L109.73 64H108.47L106.3 57.532H107.812L109.114 62.194L110.612 57.532H111.942L113.44 62.194ZM117.076 54.34H118.756V56.02H117.076V54.34ZM118.602 64H117.23V57.532H118.602V64ZM123.552 57.532V58.694H122.236V62.082C122.236 62.544 122.432 62.754 122.908 62.754H123.244V64.014H122.614C121.48 64.014 120.864 63.412 120.864 62.348V58.694H119.716V57.532H120.864V54.942H122.236V57.532H123.552ZM124.736 54.2H126.108V58.512H126.136C126.556 57.77 127.256 57.322 128.25 57.322C129.622 57.322 130.686 58.064 130.686 60.024V64H129.314V60.262C129.314 59.156 128.754 58.694 127.83 58.694C126.822 58.694 126.108 59.296 126.108 60.906V64H124.736V54.2ZM136.272 54.34H137.952V56.02H136.272V54.34ZM137.798 64H136.426V57.532H137.798V64ZM143.055 57.322C144.441 57.322 145.491 58.064 145.491 60.024V64H144.119V60.262C144.119 59.156 143.559 58.694 142.635 58.694C141.627 58.694 140.913 59.296 140.913 60.906V64H139.541V57.532H140.913V58.512H140.941C141.361 57.77 142.061 57.322 143.055 57.322ZM149.104 64.21C148.18 64.21 147.214 63.958 146.472 63.524L147.088 62.306C147.69 62.656 148.376 62.922 149.146 62.922C149.804 62.922 150.154 62.726 150.154 62.32C150.154 62.054 150.014 61.858 149.468 61.592L148.292 61.018C147.312 60.556 146.934 59.898 146.934 59.156C146.934 57.966 147.816 57.322 149.23 57.322C149.972 57.322 150.784 57.518 151.47 57.826L150.91 59.016C150.42 58.806 149.818 58.596 149.188 58.596C148.586 58.596 148.39 58.792 148.39 59.086C148.39 59.394 148.572 59.59 149.132 59.856L150.336 60.43C151.176 60.822 151.624 61.382 151.624 62.25C151.624 63.566 150.616 64.21 149.104 64.21ZM155.954 57.532V58.694H154.638V62.082C154.638 62.544 154.834 62.754 155.31 62.754H155.646V64.014H155.016C153.882 64.014 153.266 63.412 153.266 62.348V58.694H152.118V57.532H153.266V54.942H154.638V57.532H155.954ZM159.525 64.21C157.817 64.21 156.375 62.922 156.375 60.766C156.375 58.61 157.817 57.322 159.525 57.322C160.589 57.322 161.303 57.784 161.709 58.484H161.737V57.532H163.109V64H161.737V63.048H161.709C161.303 63.748 160.589 64.21 159.525 64.21ZM159.819 62.866C161.023 62.866 161.807 61.998 161.807 60.766C161.807 59.534 161.023 58.666 159.819 58.666C158.615 58.666 157.831 59.534 157.831 60.766C157.831 61.998 158.615 62.866 159.819 62.866ZM168.307 57.322C169.693 57.322 170.743 58.064 170.743 60.024V64H169.371V60.262C169.371 59.156 168.811 58.694 167.887 58.694C166.879 58.694 166.165 59.296 166.165 60.906V64H164.793V57.532H166.165V58.512H166.193C166.613 57.77 167.313 57.322 168.307 57.322ZM175.204 57.532V58.694H173.888V62.082C173.888 62.544 174.084 62.754 174.56 62.754H174.896V64.014H174.266C173.132 64.014 172.516 63.412 172.516 62.348V58.694H171.368V57.532H172.516V54.942H173.888V57.532H175.204ZM182.57 62.362L184.208 57.532H185.818L183.214 64H181.926L179.336 57.532H180.946L182.57 62.362ZM186.639 54.34H188.319V56.02H186.639V54.34ZM188.165 64H186.793V57.532H188.165V64ZM191.705 64.21C190.781 64.21 189.815 63.958 189.073 63.524L189.689 62.306C190.291 62.656 190.977 62.922 191.747 62.922C192.405 62.922 192.755 62.726 192.755 62.32C192.755 62.054 192.615 61.858 192.069 61.592L190.893 61.018C189.913 60.556 189.535 59.898 189.535 59.156C189.535 57.966 190.417 57.322 191.831 57.322C192.573 57.322 193.385 57.518 194.071 57.826L193.511 59.016C193.021 58.806 192.419 58.596 191.789 58.596C191.187 58.596 190.991 58.792 190.991 59.086C190.991 59.394 191.173 59.59 191.733 59.856L192.937 60.43C193.777 60.822 194.225 61.382 194.225 62.25C194.225 63.566 193.217 64.21 191.705 64.21ZM197.646 64.21C196.372 64.21 195.28 63.44 195.28 61.452V57.532H196.68V61.312C196.68 62.376 197.212 62.88 198.038 62.88C198.99 62.88 199.662 62.264 199.662 60.626V57.532H201.034V64H199.662V63.02H199.634C199.312 63.664 198.696 64.21 197.646 64.21ZM205.449 64.21C203.741 64.21 202.299 62.922 202.299 60.766C202.299 58.61 203.741 57.322 205.449 57.322C206.513 57.322 207.227 57.784 207.633 58.484H207.661V57.532H209.033V64H207.661V63.048H207.633C207.227 63.748 206.513 64.21 205.449 64.21ZM205.743 62.866C206.947 62.866 207.731 61.998 207.731 60.766C207.731 59.534 206.947 58.666 205.743 58.666C204.539 58.666 203.755 59.534 203.755 60.766C203.755 61.998 204.539 62.866 205.743 62.866ZM210.787 54.2H212.159V64H210.787V54.2ZM221.183 55.334H220.973C220.315 55.334 219.797 55.656 219.797 56.594V57.532H221.071V58.694H219.797V64H218.425V58.694H217.403V57.532H218.425V56.636C218.425 55.04 219.321 54.06 220.917 54.06H221.183V55.334ZM224.689 57.322C226.663 57.322 227.783 58.68 227.783 60.766V60.99H222.771C222.827 62.138 223.625 62.894 224.731 62.894C225.795 62.894 226.397 62.194 226.719 61.76L227.685 62.67C227.209 63.328 226.355 64.21 224.759 64.21C222.701 64.21 221.385 62.824 221.385 60.78C221.385 58.82 222.617 57.322 224.689 57.322ZM224.605 58.582C223.681 58.582 223.009 59.058 222.841 59.996H226.299C226.243 59.1 225.585 58.582 224.605 58.582ZM231.921 57.322C233.895 57.322 235.015 58.68 235.015 60.766V60.99H230.003C230.059 62.138 230.857 62.894 231.963 62.894C233.027 62.894 233.629 62.194 233.951 61.76L234.917 62.67C234.441 63.328 233.587 64.21 231.991 64.21C229.933 64.21 228.617 62.824 228.617 60.78C228.617 58.82 229.849 57.322 231.921 57.322ZM231.837 58.582C230.913 58.582 230.241 59.058 230.073 59.996H233.531C233.475 59.1 232.817 58.582 231.837 58.582ZM239 64.21C237.292 64.21 235.85 62.922 235.85 60.766C235.85 58.61 237.292 57.322 239 57.322C240.064 57.322 240.778 57.784 241.184 58.484H241.212V54.2H242.584V64H241.212V63.048H241.184C240.778 63.748 240.064 64.21 239 64.21ZM239.294 62.866C240.498 62.866 241.282 61.998 241.282 60.766C241.282 59.534 240.498 58.666 239.294 58.666C238.09 58.666 237.306 59.534 237.306 60.766C237.306 61.998 238.09 62.866 239.294 62.866ZM247.99 64.21C246.926 64.21 246.212 63.748 245.806 63.048H245.778V64H244.406V54.2H245.778V58.484H245.806C246.212 57.784 246.926 57.322 247.99 57.322C249.698 57.322 251.14 58.61 251.14 60.766C251.14 62.922 249.698 64.21 247.99 64.21ZM247.696 62.866C248.9 62.866 249.684 61.998 249.684 60.766C249.684 59.534 248.9 58.666 247.696 58.666C246.492 58.666 245.708 59.534 245.708 60.766C245.708 61.998 246.492 62.866 247.696 62.866ZM255.133 64.21C253.425 64.21 251.983 62.922 251.983 60.766C251.983 58.61 253.425 57.322 255.133 57.322C256.197 57.322 256.911 57.784 257.317 58.484H257.345V57.532H258.717V64H257.345V63.048H257.317C256.911 63.748 256.197 64.21 255.133 64.21ZM255.427 62.866C256.631 62.866 257.415 61.998 257.415 60.766C257.415 59.534 256.631 58.666 255.427 58.666C254.223 58.666 253.439 59.534 253.439 60.766C253.439 61.998 254.223 62.866 255.427 62.866ZM263.537 64.21C261.451 64.21 259.981 62.824 259.981 60.766C259.981 58.708 261.451 57.322 263.537 57.322C264.377 57.322 265.091 57.546 265.749 57.98L265.105 59.142C264.657 58.862 264.097 58.652 263.495 58.652C262.249 58.652 261.437 59.548 261.437 60.766C261.437 61.984 262.249 62.88 263.495 62.88C264.097 62.88 264.657 62.67 265.105 62.39L265.749 63.552C265.091 63.986 264.377 64.21 263.537 64.21ZM269.641 60.472L272.651 64H270.845L268.241 60.822V64H266.869V54.2H268.241V60.29L270.551 57.532H272.357L269.641 60.472Z" fill="black"/>
</svg>
