<svg width="159" height="45" viewBox="0 0 159 45" fill="none" xmlns="http://www.w3.org/2000/svg">
<path d="M18.2763 2.0625C19.8385 2.06213 21.3917 2.28825 22.8821 2.73304C25.5502 3.53621 27.937 5.01575 29.7852 7.01219C31.6333 9.00867 32.8728 11.4463 33.37 14.0624C33.5506 14.9674 33.6301 15.8881 33.6073 16.809C33.5598 17.8111 33.3742 18.803 33.0552 19.7593C32.5342 21.3593 31.8773 22.9164 31.0911 24.4155C30.6205 25.3319 30.1273 26.2344 29.6114 27.1231C29.0622 28.0618 28.5045 28.9845 27.9171 29.8964C27.4681 30.5951 27.0205 31.2952 26.5588 31.9872C25.8999 32.9706 25.2278 33.9456 24.5426 34.912C23.493 36.389 22.4166 37.8481 21.3134 39.2894C20.3519 40.5432 19.3791 41.7877 18.378 43.0135C18.2876 43.1248 18.2467 43.1275 18.1549 43.0135C16.6488 41.1601 15.1898 39.2764 13.7779 37.3622C12.3066 35.3788 10.8833 33.3645 9.53068 31.3073C8.0258 29.0555 6.65137 26.7276 5.41345 24.3337C4.61225 22.8104 3.95089 21.2243 3.43671 19.593C3.138 18.6777 2.96757 17.729 2.92983 16.7714C2.91228 15.6435 3.03887 14.5177 3.30682 13.4187C3.85605 11.1332 4.97594 9.00679 6.572 7.21869C8.16805 5.43061 10.1935 4.03334 12.4774 3.14475C13.8962 2.59072 15.3963 2.24739 16.9251 2.12687C17.3755 2.08664 17.8245 2.0625 18.2763 2.0625ZM23.9961 9.32438C23.9562 9.2874 23.9143 9.25252 23.8705 9.21979C21.7186 7.78214 19.3395 7.23635 16.7401 7.62392C14.3553 7.97928 12.3955 9.06958 10.848 10.8211C10.0956 11.6742 9.52056 12.6554 9.15368 13.7124C8.69848 14.9895 8.54756 16.3467 8.71179 17.686C8.84917 18.8784 9.23918 20.032 9.85823 21.0776C10.8093 22.7027 12.2607 24.0129 14.0179 24.8326C15.9621 25.7457 18.1749 26.0059 20.2949 25.5707C22.4148 25.1354 24.3169 24.0304 25.6905 22.4361C27.4046 20.4325 28.1006 18.1339 27.8084 15.5725C27.6527 14.1986 27.1578 12.8789 26.364 11.7209C26.0829 11.2848 25.7514 10.88 25.3756 10.5139C25.1638 9.77503 24.7162 9.39545 23.9961 9.32438Z" fill="#8465DC"/>
<path d="M18.2485 2.04688C19.8107 2.04651 21.3638 2.27263 22.8542 2.71741C25.5224 3.52059 27.9091 5.00012 29.7573 6.99657C31.6055 8.99304 32.845 11.4307 33.3422 14.0468C33.5227 14.9518 33.6022 15.8724 33.5794 16.7933C33.5319 17.7955 33.3463 18.7874 33.0274 19.7437C32.5064 21.3436 31.8495 22.9008 31.0633 24.3999C30.5927 25.3163 30.0995 26.2188 29.5836 27.1075C29.0343 28.0462 28.4767 28.9689 27.8893 29.8808C27.4402 30.5796 26.9927 31.2795 26.531 31.9716C25.8721 32.955 25.2 33.9299 24.5147 34.8965C23.4652 36.3734 22.3888 37.8325 21.2855 39.2737C20.324 40.5276 19.3512 41.7721 18.3501 42.9978C18.2597 43.1091 18.2188 43.1119 18.1271 42.9978C16.621 41.1445 15.162 39.2607 13.75 37.3466C12.2787 35.3631 10.8555 33.3488 9.50287 31.2916C7.998 29.0399 6.62354 26.7119 5.38561 24.318C4.58442 22.7948 3.92306 21.2086 3.40888 19.5774C3.11016 18.6621 2.93974 17.7134 2.90199 16.7558C2.88444 15.6278 3.01103 14.502 3.27899 13.4031C3.82821 11.1176 4.9481 8.99116 6.54417 7.20308C8.14025 5.41498 10.1657 4.01771 12.4496 3.12912C13.8684 2.57508 15.3685 2.23177 16.8973 2.11124C17.3477 2.07102 17.7966 2.04688 18.2485 2.04688ZM23.9683 9.30875C23.9284 9.27177 23.8864 9.23689 23.8426 9.20416C21.6908 7.76658 19.3117 7.22071 16.7123 7.60829C14.3275 7.96365 12.3677 9.05394 10.8202 10.8054C10.0678 11.6586 9.49276 12.6397 9.12587 13.6967C8.6706 14.9739 8.51968 16.3311 8.68391 17.6703C8.82129 18.8628 9.2113 20.0164 9.83043 21.0619C10.7815 22.6871 12.2329 23.9973 13.99 24.8169C15.9343 25.7301 18.147 25.9902 20.267 25.555C22.387 25.1197 24.2891 24.0147 25.6626 22.4205C27.3767 20.4169 28.0728 18.1183 27.7806 15.5569C27.6249 14.1829 27.1299 12.8633 26.3361 11.7053C26.0551 11.2692 25.7236 10.8644 25.3478 10.4983C25.1359 9.7594 24.6884 9.37982 23.9683 9.30875Z" fill="#218448"/>
<path d="M23.9959 9.32461C24.7118 9.38905 25.1594 9.77526 25.3825 10.5196C25.4842 11.1217 25.2667 11.634 24.901 12.1074C24.3187 12.8397 23.6074 13.4708 22.7986 13.9728C22.2889 14.3014 21.7609 14.6018 21.1495 14.7225C20.6256 14.827 20.0976 14.9048 19.5709 14.9907C19.5342 14.9974 19.4891 14.9907 19.4904 15.0524C19.7164 15.0524 19.9423 15.0591 20.1668 15.0524C20.3912 15.0457 20.6016 15.0188 20.8502 14.9987L20.6708 15.0818C19.2834 15.7066 18.1091 16.6895 17.2821 17.9182C16.6086 18.9294 16.2811 20.009 16.5182 21.2159C16.9249 23.2905 19.0358 24.8248 21.2483 24.6464C21.5095 24.625 21.7651 24.57 22.0686 24.5324C19.153 25.911 14.4074 25.7783 11.2517 22.3102C9.7722 20.6731 8.98564 18.5724 9.04459 16.4156C9.10355 14.2587 10.0038 12.1996 11.5708 10.6376C14.9115 7.3238 19.8364 7.28487 23.0076 9.21873C22.8914 9.36217 22.823 9.53531 22.8112 9.71601C22.7994 9.89665 22.8446 10.0766 22.9412 10.2325C23.0979 10.5008 23.3931 10.5142 23.6769 10.5129C23.6324 10.4923 23.5847 10.4788 23.5356 10.4726C23.0499 10.3854 22.8777 10.136 23.0146 9.58749C23.0309 9.501 23.082 9.42387 23.1572 9.37255C23.2323 9.32123 23.3255 9.29967 23.417 9.31258L23.9959 9.32461ZM21.7368 11.7801C21.7368 11.764 21.7368 11.748 21.7368 11.7319C21.8032 11.4744 21.7453 11.1874 21.9317 10.9554C21.944 10.9366 21.9481 10.9141 21.9431 10.8925C21.938 10.871 21.9243 10.8521 21.9049 10.84C21.8963 10.8305 21.8858 10.8225 21.8741 10.8169C21.8622 10.8113 21.8493 10.808 21.8361 10.8072C21.8229 10.8064 21.8096 10.8083 21.7972 10.8125C21.7848 10.8168 21.7733 10.8234 21.7637 10.832C21.7241 10.8629 21.6875 10.9017 21.7213 10.9554C21.753 10.9988 21.7666 11.0519 21.7594 11.1042C21.7298 11.3255 21.7086 11.5495 21.6846 11.7748C21.6444 12.0524 21.6444 12.334 21.6846 12.6116C21.6846 12.6116 21.6846 12.6196 21.6916 12.6237L21.6789 12.6049L21.7368 11.7801ZM21.2582 12.8718C21.266 12.6586 21.2953 12.4466 21.3458 12.2388C21.374 12.1154 21.3585 11.9706 21.4869 11.8807C21.4971 11.8725 21.5053 11.8621 21.5108 11.8505C21.5164 11.839 21.5193 11.8264 21.5193 11.8137C21.5193 11.8009 21.5164 11.7883 21.5108 11.7768C21.5053 11.7652 21.4971 11.755 21.4869 11.7466C21.4796 11.7361 21.47 11.7269 21.4589 11.7199C21.4478 11.7128 21.4353 11.7079 21.4222 11.7054C21.409 11.7029 21.3956 11.7028 21.3824 11.7054C21.3693 11.7078 21.3569 11.7127 21.3458 11.7198C21.2963 11.7453 21.261 11.7949 21.2907 11.8378C21.3471 11.925 21.3062 12.0028 21.2907 12.0832C21.2406 12.3399 21.2137 12.6001 21.2102 12.861C21.1551 13.073 21.2201 13.2781 21.2483 13.4847L21.2582 12.8718ZM19.9719 13.0971C20.0362 12.9378 20.1107 12.7824 20.195 12.6318C20.3206 12.4319 20.3729 12.1811 20.6186 12.0618C20.6286 12.056 20.6372 12.0485 20.6439 12.0395C20.6506 12.0305 20.6554 12.0202 20.6577 12.0093C20.6601 11.9985 20.6601 11.9873 20.6578 11.9765C20.6554 11.9657 20.6507 11.9555 20.644 11.9464C20.6172 11.9035 20.5791 11.8686 20.5212 11.8834C20.4633 11.8982 20.4224 11.9277 20.4322 11.9827C20.4424 12.0344 20.4308 12.0879 20.3998 12.1315C20.2119 12.4411 20.0527 12.7655 19.9239 13.1011C19.8612 13.2068 19.8313 13.3273 19.8378 13.4484C19.8759 13.3304 19.9211 13.2137 19.9649 13.0971H19.9719ZM13.6887 12.5875C13.6097 12.4359 13.5277 12.2858 13.4543 12.1329C13.2664 11.7735 13.1296 11.392 13.0477 10.9983C12.9828 10.6148 13.1113 10.3868 13.4896 10.2339C13.6787 10.1644 13.8767 10.1193 14.0784 10.0998C14.3297 10.0676 14.5839 10.0837 14.8367 10.0595C14.4521 9.88785 14.0226 9.8286 13.6026 9.88922C12.8444 9.99655 12.5238 10.4793 12.7258 11.1847C12.8896 11.7342 13.2254 12.2234 13.6887 12.5875ZM18.8904 10.077C18.8883 10.19 18.9325 10.2994 19.0136 10.3822C19.0947 10.4649 19.2064 10.5147 19.3252 10.5209C19.387 10.5253 19.4492 10.5177 19.5078 10.4985C19.5664 10.4794 19.6204 10.4492 19.6663 10.4096C19.7123 10.3701 19.7493 10.3222 19.7752 10.2687C19.8009 10.2152 19.8151 10.1572 19.8166 10.0983C19.8181 10.0394 19.8071 9.98091 19.7841 9.92627C19.761 9.87156 19.7265 9.8219 19.6827 9.78031C19.6388 9.73865 19.5866 9.70592 19.529 9.68408C19.4714 9.66224 19.4098 9.65172 19.3478 9.65323C19.229 9.65453 19.1153 9.69929 19.0304 9.77822C18.9454 9.85715 18.8958 9.96419 18.8918 10.077H18.8904ZM23.6698 10.1132C23.7771 10.0985 23.9593 10.1266 23.9734 9.96166C23.9875 9.79667 23.8096 9.78197 23.6797 9.75645C23.4975 9.72163 23.3041 9.79667 23.2872 9.89059C23.2702 9.98444 23.4284 10.0918 23.6317 10.1038L23.6698 10.1132ZM20.8685 12.1007C20.9306 11.9116 20.9829 11.7185 21.0605 11.5334C21.1382 11.3484 21.1198 11.162 21.3076 11.0466C21.3528 11.0197 21.3429 10.9567 21.3076 10.9125C21.2941 10.8949 21.275 10.8819 21.2532 10.8754C21.2313 10.8689 21.2078 10.8692 21.1862 10.8763C21.1325 10.895 21.0958 10.9379 21.1156 10.9876C21.1537 11.0855 21.1015 11.1659 21.0775 11.2558C20.9798 11.5304 20.9103 11.8133 20.8699 12.1007H20.8685ZM22.1252 12.2669C22.1039 12.1932 22.1449 12.0712 22.1336 11.9518C22.0969 11.795 22.1169 11.6312 22.1901 11.4865C22.1961 11.4759 22.1999 11.4642 22.2012 11.4521C22.2024 11.4402 22.201 11.428 22.1972 11.4165C22.1934 11.405 22.1872 11.3943 22.1789 11.3851C22.1707 11.376 22.1605 11.3685 22.1491 11.3631C22.1285 11.3477 22.1025 11.3403 22.0763 11.3422C22.0502 11.3442 22.0257 11.3555 22.0079 11.3738C21.9684 11.4114 21.9472 11.4609 21.991 11.5079C22.0348 11.5549 22.0333 11.634 22.046 11.701C22.0828 11.9009 22.0193 12.1208 22.1265 12.2669H22.1252ZM20.7273 12.6572C20.786 12.5132 20.8194 12.3609 20.8261 12.2066C20.7603 12.3485 20.7271 12.5021 20.7287 12.6572H20.7273ZM19.7389 13.6711C19.746 13.6616 19.7573 13.6549 19.7573 13.6469C19.7573 13.6389 19.7827 13.5946 19.7418 13.596C19.7361 13.596 19.7248 13.6429 19.746 13.6711H19.7389ZM19.7714 13.5369C19.7841 13.5289 19.794 13.5249 19.7954 13.5209C19.7982 13.5121 19.7982 13.5028 19.7954 13.4941C19.7954 13.4793 19.7799 13.4793 19.7757 13.4941C19.7752 13.5084 19.7761 13.5227 19.7785 13.5369H19.7714Z" fill="#191F1C"/>
<path d="M23.9961 9.32407L23.4229 9.31203C23.3313 9.29913 23.2381 9.32068 23.1629 9.37201C23.0878 9.42333 23.0367 9.50038 23.0205 9.58695C22.8792 10.1354 23.0558 10.3849 23.5415 10.472C23.5905 10.4782 23.6382 10.4918 23.6827 10.5123C23.4003 10.5123 23.1038 10.4962 22.947 10.232C22.8504 10.0759 22.8051 9.8961 22.8169 9.71547C22.8288 9.53476 22.8972 9.36163 23.0134 9.21819C19.8379 7.279 14.913 7.32326 11.5766 10.637C10.0086 12.1986 9.10732 14.2577 9.04753 16.4149C8.98782 18.572 9.77392 20.6733 11.2532 22.311C14.409 25.779 19.1602 25.9118 22.0702 24.5332C21.7666 24.5707 21.5054 24.6257 21.2499 24.6472C19.0373 24.8255 16.9265 23.2914 16.5198 21.2167C16.2826 20.0098 16.6102 18.9369 17.2837 17.9191C18.1107 16.6903 19.2849 15.7073 20.6724 15.0827L20.8517 14.9995C20.6032 15.0196 20.3857 15.0438 20.1683 15.0532C19.9508 15.0626 19.7179 15.0532 19.492 15.0532C19.492 14.9888 19.5357 14.9982 19.5725 14.9915C20.0991 14.903 20.6272 14.8252 21.151 14.7233C21.7624 14.6025 22.2904 14.3022 22.8002 13.9736C23.6089 13.4716 24.3203 12.8405 24.9026 12.1082C25.2682 11.6348 25.4857 11.1225 25.384 10.5203C25.7599 10.8864 26.0914 11.2912 26.3724 11.7273C27.1622 12.8841 27.6542 14.2013 27.8083 15.5722C28.0907 18.1336 27.4003 20.4322 25.6904 22.4358C24.3133 24.0263 22.411 25.1285 20.2919 25.5637C18.1727 25.9989 15.9609 25.7417 14.015 24.8336C12.2579 24.014 10.8065 22.7038 9.85539 21.0786C9.23626 20.0331 8.84633 18.8795 8.70895 17.687C8.54464 16.3478 8.69563 14.9906 9.15083 13.7134C9.51772 12.6564 10.0927 11.6753 10.8452 10.8221C12.3983 9.07064 14.3525 7.98034 16.7372 7.62499C19.3367 7.23741 21.7158 7.7832 23.8676 9.22085C23.9124 9.253 23.9553 9.28753 23.9961 9.32407Z" fill="#FEFEFE"/>
<path d="M13.6886 12.5866C13.2253 12.2225 12.8895 11.7333 12.7257 11.1839C12.5237 10.4784 12.8443 9.99568 13.6025 9.88835C14.0225 9.82773 14.4521 9.88698 14.8365 10.0587C14.5837 10.0828 14.3296 10.0667 14.0783 10.0989C13.8766 10.1184 13.6786 10.1636 13.4895 10.233C13.1111 10.3859 12.9826 10.6139 13.0476 10.9975C13.1295 11.3911 13.2662 11.7726 13.4542 12.132C13.529 12.2849 13.611 12.435 13.6886 12.5866Z" fill="#FEFEFE"/>
<path d="M18.8917 10.0743C18.8957 9.96127 18.9455 9.85409 19.0307 9.77509C19.116 9.69609 19.2301 9.65147 19.3491 9.65053C19.4111 9.64902 19.4728 9.65954 19.5303 9.68138C19.5879 9.70322 19.6402 9.73595 19.684 9.77761C19.7279 9.8192 19.7624 9.86887 19.7854 9.92358C19.8084 9.97821 19.8195 10.0367 19.818 10.0956C19.8164 10.1545 19.8023 10.2125 19.7764 10.266C19.7506 10.3195 19.7136 10.3674 19.6676 10.4069C19.6217 10.4465 19.5678 10.4767 19.5091 10.4958C19.4505 10.515 19.3884 10.5226 19.3266 10.5182C19.2077 10.512 19.096 10.4622 19.0149 10.3795C18.9338 10.2967 18.8897 10.1873 18.8917 10.0743Z" fill="#FEFEFE"/>
<path d="M23.6712 10.1109H23.6331C23.4256 10.0989 23.2702 10.0037 23.2886 9.89773C23.307 9.79177 23.499 9.72336 23.6811 9.76366C23.811 9.7891 23.9875 9.80921 23.9748 9.9688C23.9621 10.1284 23.7785 10.0962 23.6712 10.1109Z" fill="#FEFEFE"/>
<path d="M19.9185 13.1031C20.0473 12.7674 20.2065 12.443 20.3943 12.1335C20.4254 12.0899 20.437 12.0364 20.4268 11.9846C20.4169 11.9296 20.4649 11.8974 20.5158 11.8854C20.5666 11.8733 20.6118 11.9055 20.6386 11.9484C20.6453 11.9574 20.65 11.9677 20.6524 11.9785C20.6547 11.9893 20.6547 12.0005 20.6523 12.0113C20.6499 12.0222 20.6452 12.0324 20.6385 12.0414C20.6318 12.0504 20.6232 12.058 20.6132 12.0638C20.366 12.1831 20.3139 12.4339 20.1896 12.6337C20.1056 12.784 20.031 12.939 19.9665 13.0977L19.9185 13.1031Z" fill="#FEFEFE"/>
<path d="M20.8701 12.0979C20.9112 11.8095 20.9816 11.5257 21.0804 11.2503C21.1045 11.1658 21.1567 11.0853 21.1186 10.9821C21.0989 10.9324 21.1355 10.8896 21.1892 10.8707C21.2108 10.8637 21.2343 10.8634 21.2562 10.87C21.278 10.8764 21.2971 10.8894 21.3106 10.907C21.3445 10.9485 21.3544 11.0116 21.3106 11.0411C21.1228 11.1564 21.1327 11.3616 21.0636 11.5279C20.9943 11.6942 20.9322 11.9088 20.8701 12.0979Z" fill="#FEFEFE"/>
<path d="M21.2129 12.8685C21.2164 12.6075 21.2433 12.3473 21.2934 12.0907C21.3075 12.0102 21.3484 11.9325 21.2934 11.8452C21.2637 11.8024 21.2934 11.7527 21.3484 11.7272C21.3596 11.7202 21.372 11.7153 21.3852 11.7128C21.3983 11.7103 21.4118 11.7103 21.4249 11.7128C21.438 11.7153 21.4505 11.7203 21.4616 11.7273C21.4727 11.7344 21.4823 11.7435 21.4896 11.7541C21.4998 11.7623 21.508 11.7727 21.5135 11.7843C21.5191 11.7958 21.522 11.8084 21.522 11.8211C21.522 11.8339 21.5191 11.8465 21.5135 11.858C21.508 11.8696 21.4998 11.8798 21.4896 11.8882C21.3484 11.9794 21.371 12.1229 21.3484 12.2462C21.2979 12.454 21.269 12.666 21.2623 12.8792C21.2397 12.8658 21.2299 12.8511 21.2129 12.8685Z" fill="#FEFEFE"/>
<path d="M22.1268 12.2644C22.0224 12.1182 22.0831 11.8983 22.0492 11.6931C22.0365 11.626 22.0492 11.559 21.9941 11.5C21.9391 11.4409 21.9715 11.4088 22.011 11.3659C22.0288 11.3476 22.0533 11.3363 22.0794 11.3343C22.1056 11.3323 22.1316 11.3397 22.1522 11.3551C22.1636 11.3605 22.1738 11.368 22.182 11.3772C22.1903 11.3864 22.1965 11.397 22.2003 11.4086C22.2042 11.4201 22.2055 11.4322 22.2043 11.4442C22.203 11.4563 22.1993 11.4679 22.1932 11.4785C22.12 11.6232 22.1001 11.7871 22.1367 11.9438C22.1466 12.0753 22.1057 12.1906 22.1268 12.2644Z" fill="#FEFEFE"/>
<path d="M21.686 11.7744C21.7101 11.5517 21.7312 11.3278 21.7609 11.1038C21.768 11.0514 21.7544 10.9984 21.7228 10.955C21.6888 10.9014 21.7228 10.8624 21.7651 10.8316C21.7748 10.823 21.7861 10.8164 21.7986 10.8121C21.8111 10.8079 21.8243 10.8061 21.8375 10.8068C21.8507 10.8076 21.8637 10.8108 21.8754 10.8165C21.8873 10.8221 21.8978 10.83 21.9063 10.8397C21.9257 10.8518 21.9394 10.8706 21.9444 10.8921C21.9495 10.9137 21.9454 10.9363 21.9331 10.955C21.7467 11.187 21.8046 11.474 21.7383 11.7314C21.7383 11.7476 21.7383 11.7637 21.7383 11.7797L21.686 11.7744Z" fill="#FEFEFE"/>
<path d="M21.6864 11.7695L21.7306 11.7775C21.7135 12.0579 21.6964 12.3368 21.6793 12.5996L21.6921 12.6184C21.6921 12.6184 21.685 12.6104 21.685 12.6063C21.6449 12.3287 21.6454 12.0471 21.6864 11.7695Z" fill="#8465DC"/>
<path d="M21.213 12.8649C21.2302 12.8475 21.2401 12.8649 21.253 12.8717C21.253 13.0769 21.253 13.2834 21.253 13.4885C21.223 13.2847 21.1575 13.0769 21.213 12.8649Z" fill="#8465DC"/>
<path d="M20.729 12.6596C20.7279 12.5044 20.7619 12.3508 20.8288 12.209C20.8221 12.3633 20.7884 12.5155 20.729 12.6596Z" fill="#8465DC"/>
<path d="M19.9191 13.0996H19.9662C19.922 13.2177 19.8764 13.3343 19.8322 13.4524C19.8245 13.3293 19.8548 13.2069 19.9191 13.0996Z" fill="#8465DC"/>
<path d="M19.746 13.6689C19.7246 13.6407 19.736 13.5938 19.746 13.5938C19.7873 13.5938 19.7617 13.6259 19.7617 13.6447C19.7617 13.6635 19.7602 13.6594 19.746 13.6689Z" fill="#8465DC"/>
<path d="M19.7784 13.5344C19.777 13.5202 19.777 13.5058 19.7784 13.4916C19.7784 13.4768 19.7926 13.4768 19.7984 13.4916C19.8012 13.5003 19.8012 13.5096 19.7984 13.5184C19.7984 13.5184 19.7913 13.5264 19.7784 13.5344Z" fill="#8465DC"/>
<path d="M55.6561 22.2209C53.6688 24.1041 51.2368 25.0456 48.36 25.0456C45.4832 25.0456 43.0417 24.1041 41.0355 22.2209C39.0483 20.32 38.0547 18.0065 38.0547 15.2806C38.0547 12.5546 39.0483 10.2501 41.0355 8.3671C43.0417 6.46612 45.4832 5.51562 48.36 5.51562C51.2368 5.51562 53.6688 6.46612 55.6561 8.3671C57.6622 10.2501 58.6653 12.5546 58.6653 15.2806C58.6653 18.0065 57.6622 20.32 55.6561 22.2209ZM43.3351 20.1228C44.6978 21.396 46.3727 22.0327 48.36 22.0327C50.3473 22.0327 52.0127 21.396 53.3565 20.1228C54.7192 18.8315 55.4005 17.2175 55.4005 15.2806C55.4005 13.3437 54.7192 11.7387 53.3565 10.4654C52.0127 9.17412 50.3473 8.52849 48.36 8.52849C46.3727 8.52849 44.6978 9.17412 43.3351 10.4654C41.9913 11.7387 41.3194 13.3437 41.3194 15.2806C41.3194 17.2175 41.9913 18.8315 43.3351 20.1228ZM68.3716 14.0432H64.8513V20.4993C64.8513 21.0553 64.9837 21.4588 65.2487 21.7099C65.5137 21.943 65.9017 22.0775 66.4127 22.1134C66.9426 22.1313 67.5956 22.1223 68.3716 22.0864V24.6958C66.0247 24.9648 64.3403 24.7766 63.3183 24.1309C62.2962 23.4674 61.7853 22.2568 61.7853 20.4993V14.0432H59.1734V11.2455H61.7853V8.34022L64.8513 7.47936V11.2455H68.3716V14.0432ZM77.4143 14.0432H73.8937V20.4993C73.8937 21.0553 74.0262 21.4588 74.2911 21.7099C74.5561 21.943 74.9441 22.0775 75.4551 22.1134C75.985 22.1313 76.6376 22.1223 77.4143 22.0864V24.6958C75.0671 24.9648 73.3827 24.7766 72.3606 24.1309C71.3386 23.4674 70.8277 22.2568 70.8277 20.4993V14.0432H68.2158V11.2455H70.8277V8.34022L73.8937 7.47936V11.2455H77.4143V14.0432ZM81.0322 19.2081C81.2588 20.2303 81.7799 21.0194 82.5931 21.5753C83.407 22.1134 84.4013 22.3824 85.5742 22.3824C87.2021 22.3824 88.423 21.8265 89.2362 20.7145L91.7632 22.1134C90.3628 24.0682 88.2899 25.0456 85.5461 25.0456C83.2366 25.0456 81.3729 24.382 79.9535 23.0549C78.534 21.7099 77.8243 20.0151 77.8243 17.9706C77.8243 15.9621 78.5241 14.2853 79.9246 12.9402C81.325 11.5772 83.1233 10.8958 85.3187 10.8958C87.4007 10.8958 89.1039 11.5862 90.429 12.9672C91.7724 14.348 92.4448 16.0248 92.4448 17.9976C92.4448 18.3024 92.4068 18.7059 92.3307 19.2081H81.0322ZM81.004 16.8408H89.3503C89.1419 15.7469 88.6596 14.9219 87.902 14.3659C87.1641 13.81 86.2939 13.532 85.2905 13.532C84.1548 13.532 83.2085 13.8279 82.4516 14.4198C81.6947 15.0116 81.2117 15.8186 81.004 16.8408ZM97.2151 13.5052C97.991 11.8373 99.4478 11.0034 101.587 11.0034V14.1508C100.413 14.079 99.3915 14.348 98.5205 14.9578C97.6502 15.5496 97.2151 16.5359 97.2151 17.9169V24.6958H94.1488V11.2455H97.2151V13.5052ZM118.359 10.8958C119.967 10.8958 121.264 11.3889 122.248 12.3753C123.232 13.3616 123.725 14.6888 123.725 16.3566V24.6958H120.659V16.545C120.659 15.6124 120.412 14.895 119.92 14.3928C119.428 13.8728 118.756 13.6127 117.904 13.6127C116.958 13.6127 116.201 13.9087 115.634 14.5005C115.085 15.0923 114.811 15.98 114.811 17.1636V24.6958H111.744V16.545C111.744 15.6124 111.508 14.895 111.035 14.3928C110.58 13.8728 109.927 13.6127 109.076 13.6127C108.149 13.6127 107.392 13.9176 106.804 14.5273C106.218 15.1192 105.924 15.9979 105.924 17.1636V24.6958H102.859V11.2455H105.924V12.8595C106.833 11.5503 108.186 10.8958 109.984 10.8958C111.801 10.8958 113.145 11.6042 114.016 13.0209C114.962 11.6042 116.41 10.8958 118.359 10.8958ZM137.254 11.2455H140.321V24.6958H137.254V22.759C136.1 24.2834 134.444 25.0456 132.286 25.0456C130.337 25.0456 128.671 24.3641 127.29 23.0011C125.908 21.6202 125.218 19.9434 125.218 17.9706C125.218 15.98 125.908 14.3032 127.29 12.9402C128.671 11.5772 130.337 10.8958 132.286 10.8958C134.444 10.8958 136.1 11.649 137.254 13.1554V11.2455ZM129.561 21.0643C130.413 21.8713 131.482 22.2748 132.769 22.2748C134.056 22.2748 135.125 21.8713 135.977 21.0643C136.829 20.2393 137.254 19.2081 137.254 17.9706C137.254 16.7332 136.829 15.711 135.977 14.904C135.125 14.079 134.056 13.6665 132.769 13.6665C131.482 13.6665 130.413 14.079 129.561 14.904C128.709 15.711 128.283 16.7332 128.283 17.9706C128.283 19.2081 128.709 20.2393 129.561 21.0643ZM150.934 10.8958C152.884 10.8958 154.55 11.5862 155.931 12.9672C157.313 14.3301 158.004 15.9979 158.004 17.9706C158.004 19.9613 157.313 21.6381 155.931 23.0011C154.55 24.3641 152.884 25.0456 150.934 25.0456C148.777 25.0456 147.121 24.2923 145.966 22.7859V30.076H142.901V11.2455H145.966V13.1823C147.121 11.6579 148.777 10.8958 150.934 10.8958ZM147.244 21.0643C148.096 21.8713 149.165 22.2748 150.452 22.2748C151.739 22.2748 152.809 21.8713 153.66 21.0643C154.512 20.2393 154.938 19.2081 154.938 17.9706C154.938 16.7332 154.512 15.711 153.66 14.904C152.809 14.079 151.739 13.6665 150.452 13.6665C149.165 13.6665 148.096 14.079 147.244 14.904C146.392 15.711 145.966 16.7332 145.966 17.9706C145.966 19.2081 146.392 20.2393 147.244 21.0643Z" fill="white"/>
</svg>
