<svg width="112" height="14" viewBox="0 0 112 14" fill="none" xmlns="http://www.w3.org/2000/svg">
<g clip-path="url(#clip0_1_644)">
<mask id="mask0_1_644" style="mask-type:luminance" maskUnits="userSpaceOnUse" x="0" y="0" width="115" height="14">
<path d="M0.730591 0.0976562H114.731V13.9027H0.730591V0.0976562Z" fill="white"/>
</mask>
<g mask="url(#mask0_1_644)">
<path d="M74.5626 13.3697H71.4446V0.648658L81.4706 0.655658C81.4706 0.655658 83.3066 0.587658 84.4746 1.74166C84.4746 1.74166 85.6666 2.73666 85.6666 5.16966V13.3687H82.5566V4.95766C82.5566 4.95766 82.5956 4.09966 82.3026 3.79766C82.3026 3.79766 82.0446 3.47166 81.5526 3.47166H74.5546L74.5616 13.3657V13.3707L74.5626 13.3697ZM87.8326 13.3687V0.656658H100.344V3.48466H90.9316V5.64466H97.4706V8.37566H90.9306V10.5447H100.403V13.3727H87.8256L87.8326 13.3687ZM66.0126 13.3687V0.656658H69.1166V13.3727H66.0126V13.3687ZM104.813 13.3687V3.47966H101.882V0.653658H113.538V3.48066H107.919V13.3687H104.813ZM55.7596 13.3687V3.47966H52.8296V0.653658H64.4846V3.48066H58.8656V13.3687H55.7596ZM46.3986 5.63666C47.1566 5.63066 47.6106 5.63666 47.7936 5.52666C47.7936 5.52666 48.1126 5.34966 48.1156 4.97166L48.1166 4.13966C48.1166 3.75966 47.7936 3.58566 47.7936 3.58566C47.5516 3.45366 47.1416 3.47866 46.1686 3.47766H40.1206V5.63666H46.5376H46.3986ZM48.0706 13.3687V9.02866C48.0706 8.63866 47.7446 8.47566 47.7446 8.47566C47.5976 8.38366 47.1576 8.36766 46.5096 8.36766H46.6596H40.1196V13.3677H37.0156V0.655658H46.7056C48.3796 0.661658 49.5356 0.907658 50.3306 1.68066C51.1126 2.47666 51.2166 3.51866 51.2206 4.60366V5.50866C51.2306 6.43066 50.7466 7.27066 50.1686 7.76066L50.2856 7.81766C50.5206 7.93166 50.6496 8.09366 50.6496 8.09366C51.0896 8.65466 51.0836 9.13766 51.0826 9.73066V13.3707H48.0716L48.0706 13.3687ZM1.12663 0.652658V13.3647H4.23063V8.36866H13.6356V5.63766H4.23063V3.47766H15.1626V0.649658H1.12463L1.12663 0.652658ZM112.49 11.1197V11.7037H113.033C113.18 11.7037 113.323 11.6637 113.345 11.4447C113.376 11.1547 113.166 11.1197 113.033 11.1197H112.49ZM112.271 10.9277H113.028C113.291 10.9277 113.545 10.9777 113.567 11.3597C113.576 11.5797 113.51 11.6587 113.344 11.7837C113.519 11.8957 113.523 11.9217 113.55 12.2157C113.567 12.4387 113.536 12.4747 113.63 12.6217H113.372L113.336 12.4077C113.3 12.2067 113.398 11.8957 113.047 11.8957H112.489V12.6217H112.271V10.9277ZM112.841 10.4607C112.093 10.4607 111.483 11.0707 111.488 11.8237C111.488 12.0927 111.569 12.3555 111.719 12.5788C111.869 12.802 112.082 12.9757 112.331 13.0778C112.58 13.18 112.854 13.206 113.118 13.1526C113.381 13.0992 113.623 12.9687 113.813 12.7778C114.002 12.5868 114.131 12.3439 114.183 12.0798C114.234 11.8157 114.206 11.5423 114.102 11.2941C113.998 11.046 113.823 10.8342 113.598 10.6857C113.374 10.5371 113.111 10.4585 112.842 10.4597L112.841 10.4607ZM112.846 13.3557C111.996 13.3557 111.309 12.6697 111.309 11.8197C111.308 11.6177 111.348 11.4176 111.425 11.2309C111.502 11.0441 111.615 10.8745 111.758 10.7316C111.901 10.5887 112.07 10.4754 112.257 10.3982C112.444 10.321 112.644 10.2814 112.846 10.2817C113.693 10.2817 114.384 10.9717 114.384 11.8197C114.384 12.6697 113.693 13.3527 112.846 13.3557ZM32.7476 13.4947C33.7556 13.1527 34.5406 11.9907 34.7296 10.5307V10.1087H29.5596V13.4947H32.7476ZM34.7306 3.89966V3.51766C34.5306 1.99466 33.6886 0.793658 32.6136 0.511658H29.5606V3.89966H34.7306ZM16.5336 10.1097V10.5277C16.7216 11.9887 17.5056 13.1527 18.5176 13.4947H21.6886V10.1097H16.5336ZM18.6506 0.512658C17.5776 0.795658 16.7316 1.99666 16.5346 3.52266V3.90166H21.6896V0.514658H18.6506V0.512658ZM34.7346 5.31166H29.5646V8.69966H34.7346V5.31266V5.31166ZM23.1006 13.4967H28.1586V10.1107H23.1006V13.4967ZM28.1576 0.511658H23.1006V3.89866H28.1586L28.1576 0.511658ZM16.5376 8.69566H21.6936V5.30766H16.5386V8.69566H16.5376Z" fill="#B9BEC7"/>
</g>
</g>
<defs>
<clipPath id="clip0_1_644">
<rect width="115" height="14" fill="white" transform="translate(0.230591)"/>
</clipPath>
</defs>
</svg>
