<svg width="62" height="26" viewBox="0 0 62 26" fill="none" xmlns="http://www.w3.org/2000/svg">
<g clip-path="url(#clip0_1_605)">
<path d="M0.248413 23.7578H12.4977V25.4924H0.248413V23.7578Z" fill="#B9BEC7"/>
<path d="M0.248413 20.4336H12.4977V22.1743H0.248413V20.4336Z" fill="#B9BEC7"/>
<path d="M3.74292 17.1094H8.99706V18.8502H3.74292V17.1094Z" fill="#B9BEC7"/>
<path d="M3.74292 13.7891H8.99706V15.5299H3.74292V13.7891Z" fill="#B9BEC7"/>
<path d="M3.74292 10.4688H8.99706V12.2095H3.74292V10.4688Z" fill="#B9BEC7"/>
<path d="M3.74292 7.14062H8.99706V8.88137H3.74292V7.14062Z" fill="#B9BEC7"/>
<path d="M12.4977 3.82031H0.248413V5.56106H12.4977V3.82031Z" fill="#B9BEC7"/>
<path d="M12.4977 0.5H0.248413V2.24075H12.4977V0.5Z" fill="#B9BEC7"/>
<path d="M14.2449 22.1743H33.0837C33.402 21.6373 33.6391 21.0508 33.7827 20.4336H14.2449V22.1743Z" fill="#B9BEC7"/>
<path d="M31.6174 13.7891H17.7456V15.5299H33.0838C32.6844 14.8632 32.1914 14.2768 31.6174 13.7891Z" fill="#B9BEC7"/>
<path d="M17.7456 10.4688V12.2095H31.6174C32.2039 11.7218 32.6969 11.1354 33.0838 10.4688H17.7456Z" fill="#B9BEC7"/>
<path d="M33.0838 3.82031H14.2449V5.56106H33.7827C33.6204 4.94377 33.3833 4.3574 33.0838 3.82031Z" fill="#B9BEC7"/>
<path d="M27.293 0.5H14.2449V2.24075H31.7921C30.6189 1.16665 29.0277 0.5 27.293 0.5Z" fill="#B9BEC7"/>
<path d="M22.9935 7.14062H17.7456V8.88137H22.9935V7.14062Z" fill="#B9BEC7"/>
<path d="M28.2477 8.88137H33.739C33.8949 8.32584 33.9761 7.7394 33.9761 7.14062H28.2477V8.88137Z" fill="#B9BEC7"/>
<path d="M17.7456 17.1094H22.9935V18.8502H17.7456V17.1094Z" fill="#B9BEC7"/>
<path d="M28.2477 17.1094V18.8502H33.9761C33.9761 18.2514 33.8949 17.665 33.739 17.1094H28.2477Z" fill="#B9BEC7"/>
<path d="M14.2449 25.4801L27.293 25.4986C29.0402 25.4986 30.6189 24.8319 31.7983 23.7578H14.2449V25.4801Z" fill="#B9BEC7"/>
<path d="M35.2491 23.7578H43.9977V25.4924H35.2491V23.7578Z" fill="#B9BEC7"/>
<path d="M35.2491 20.4336H43.9977V22.1743H35.2491V20.4336Z" fill="#B9BEC7"/>
<path d="M38.7435 17.1094H43.9977V18.8502H38.7435V17.1094Z" fill="#B9BEC7"/>
<path d="M38.7435 13.7891H43.9977V15.5299H38.7435V13.7891Z" fill="#B9BEC7"/>
<path d="M46.4314 3.82031H35.2491V5.56106H47.0366L46.4314 3.82031Z" fill="#B9BEC7"/>
<path d="M45.2707 0.5H35.2491V2.24075H45.876L45.2707 0.5Z" fill="#B9BEC7"/>
<path d="M54.4935 23.7578H63.2484V25.4924H54.4935V23.7578Z" fill="#B9BEC7"/>
<path d="M54.4935 20.4336H63.2484V22.1743H54.4935V20.4336Z" fill="#B9BEC7"/>
<path d="M54.4935 17.1094H59.7477V18.8502H54.4935V17.1094Z" fill="#B9BEC7"/>
<path d="M54.4935 13.7891H59.7477V15.5299H54.4935V13.7891Z" fill="#B9BEC7"/>
<path d="M54.4935 12.2095H59.7477V10.4688H54.4935H49.7386L49.2456 11.8762L48.7527 10.4688H43.9977H38.7435V12.2095H43.9977V10.6107L44.5531 12.2095H53.9382L54.4935 10.6107V12.2095Z" fill="#B9BEC7"/>
<path d="M59.7478 7.14062H50.8994L50.2941 8.88137H59.7478V7.14062Z" fill="#B9BEC7"/>
<path d="M53.2268 0.5L52.6215 2.24075H63.2484V0.5H53.2268Z" fill="#B9BEC7"/>
<path d="M49.2456 25.4801L49.8509 23.7578H48.6403L49.2456 25.4801Z" fill="#B9BEC7"/>
<path d="M48.085 22.1743H50.4063L51.0303 20.4336H47.4672L48.085 22.1743Z" fill="#B9BEC7"/>
<path d="M46.9056 18.8502H51.5856L52.2034 17.1094H46.2878L46.9056 18.8502Z" fill="#B9BEC7"/>
<path d="M45.7324 15.5299H52.765L53.3641 13.7891H45.1271L45.7324 15.5299Z" fill="#B9BEC7"/>
<path d="M38.7435 8.88137H48.1972L47.592 7.14062H38.7435V8.88137Z" fill="#B9BEC7"/>
<path d="M51.4608 5.56106H63.2484V3.82031H52.0599L51.4608 5.56106Z" fill="#B9BEC7"/>
</g>
<defs>
<clipPath id="clip0_1_605">
<rect width="63" height="25" fill="white" transform="translate(0.248413 0.5)"/>
</clipPath>
</defs>
</svg>
