<svg width="22" height="22" viewBox="0 0 22 22" fill="none" xmlns="http://www.w3.org/2000/svg">
<g clip-path="url(#clip0_372_200)">
<mask id="mask0_372_200" style="mask-type:luminance" maskUnits="userSpaceOnUse" x="0" y="0" width="22" height="22">
<path d="M0 0H22V22H0V0Z" fill="white"/>
</mask>
<g mask="url(#mask0_372_200)">
<path d="M10.9966 0C8.01005 0 7.63557 0.0126587 6.46267 0.0661746C5.29222 0.11956 4.49285 0.305468 3.79339 0.577325C3.07027 0.858306 2.45702 1.23431 1.84564 1.84564C1.23431 2.45702 0.858306 3.07027 0.577325 3.79339C0.305468 4.49285 0.11956 5.29222 0.0661746 6.46267C0.0126587 7.63557 0 8.01005 0 10.9966C0 13.983 0.0126587 14.3575 0.0661746 15.5304C0.11956 16.7008 0.305468 17.5002 0.577325 18.1997C0.858306 18.9228 1.23431 19.536 1.84564 20.1474C2.45702 20.7587 3.07027 21.1348 3.79339 21.4158C4.49285 21.6876 5.29222 21.8735 6.46267 21.9269C7.63557 21.9804 8.01005 21.9931 10.9966 21.9931C13.983 21.9931 14.3575 21.9804 15.5304 21.9269C16.7008 21.8735 17.5002 21.6876 18.1997 21.4158C18.9228 21.1348 19.536 20.7587 20.1474 20.1474C20.7587 19.536 21.1348 18.9228 21.4158 18.1997C21.6876 17.5002 21.8735 16.7008 21.9269 15.5304C21.9804 14.3575 21.9931 13.983 21.9931 10.9966C21.9931 8.01005 21.9804 7.63557 21.9269 6.46267C21.8735 5.29222 21.6876 4.49285 21.4158 3.79339C21.1348 3.07027 20.7587 2.45702 20.1474 1.84564C19.536 1.23431 18.9228 0.858306 18.1997 0.577325C17.5002 0.305468 16.7008 0.11956 15.5304 0.0661746C14.3575 0.0126587 13.983 0 10.9966 0ZM10.9966 1.98135C13.9327 1.98135 14.2805 1.99257 15.4401 2.04548C16.5122 2.09437 17.0945 2.27351 17.482 2.4241C17.9953 2.62359 18.3616 2.86188 18.7464 3.2467C19.1312 3.63148 19.3695 3.9978 19.569 4.51109C19.7196 4.89858 19.8987 5.48084 19.9476 6.55299C20.0005 7.71253 20.0117 8.06034 20.0117 10.9966C20.0117 13.9327 20.0005 14.2805 19.9476 15.4401C19.8987 16.5122 19.7196 17.0945 19.569 17.482C19.3695 17.9953 19.1312 18.3616 18.7464 18.7464C18.3616 19.1312 17.9953 19.3695 17.482 19.569C17.0945 19.7196 16.5122 19.8987 15.4401 19.9476C14.2807 20.0005 13.9329 20.0117 10.9966 20.0117C8.06012 20.0117 7.7124 20.0005 6.55299 19.9476C5.48084 19.8987 4.89858 19.7196 4.51109 19.569C3.9978 19.3695 3.63148 19.1312 3.2467 18.7464C2.86192 18.3616 2.62359 17.9953 2.4241 17.482C2.27351 17.0945 2.09437 16.5122 2.04548 15.4401C1.99257 14.2805 1.98135 13.9327 1.98135 10.9966C1.98135 8.06034 1.99257 7.71253 2.04548 6.55299C2.09437 5.48084 2.27351 4.89858 2.4241 4.51109C2.62359 3.9978 2.86188 3.63148 3.2467 3.2467C3.63148 2.86188 3.9978 2.62359 4.51109 2.4241C4.89858 2.27351 5.48084 2.09437 6.55299 2.04548C7.71253 1.99257 8.06034 1.98135 10.9966 1.98135Z" fill="white"/>
</g>
<mask id="mask1_372_200" style="mask-type:luminance" maskUnits="userSpaceOnUse" x="0" y="0" width="22" height="22">
<path d="M0 0H22V22H0V0Z" fill="white"/>
</mask>
<g mask="url(#mask1_372_200)">
<path d="M10.9965 14.662C8.97206 14.662 7.33096 13.0209 7.33096 10.9965C7.33096 8.97206 8.97206 7.33096 10.9965 7.33096C13.0209 7.33096 14.662 8.97206 14.662 10.9965C14.662 13.0209 13.0209 14.662 10.9965 14.662ZM10.9965 5.34961C7.87778 5.34961 5.34961 7.87778 5.34961 10.9965C5.34961 14.1152 7.87778 16.6433 10.9965 16.6433C14.1152 16.6433 16.6433 14.1152 16.6433 10.9965C16.6433 7.87778 14.1152 5.34961 10.9965 5.34961Z" fill="white"/>
</g>
<mask id="mask2_372_200" style="mask-type:luminance" maskUnits="userSpaceOnUse" x="0" y="0" width="22" height="22">
<path d="M0 0H22V22H0V0Z" fill="white"/>
</mask>
<g mask="url(#mask2_372_200)">
<path d="M18.186 5.13015C18.186 5.85895 17.5952 6.44972 16.8664 6.44972C16.1377 6.44972 15.5469 5.85895 15.5469 5.13015C15.5469 4.40136 16.1377 3.81055 16.8664 3.81055C17.5952 3.81055 18.186 4.40136 18.186 5.13015Z" fill="white"/>
</g>
</g>
<defs>
<clipPath id="clip0_372_200">
<rect width="22" height="22" fill="white"/>
</clipPath>
</defs>
</svg>
