<svg width="22" height="22" viewBox="0 0 22 22" fill="none" xmlns="http://www.w3.org/2000/svg">
<path d="M20.3723 0H1.6233C1.61743 0 1.61083 0 1.60349 0C0.723993 0 0.0102694 0.707122 0 1.58369V20.4148C0.0102694 21.2921 0.723993 22 1.60349 22C1.61083 22 1.61743 22 1.62477 22H20.3701C20.376 22 20.3833 22 20.3906 22C21.2709 22 21.9861 21.2936 22 20.4163V20.4148V1.58516C21.9861 0.707122 21.2709 0 20.3899 0C20.3826 0 20.376 0 20.3686 0H20.3723ZM6.52474 18.7475H3.2576V8.25H6.52474V18.7475ZM4.8919 6.81375C3.84663 6.81375 3.00013 5.96652 3.00013 4.92198C3.00013 3.87743 3.84736 3.03021 4.8919 3.03021C5.93645 3.03021 6.78368 3.8767 6.78368 4.92125C6.78368 4.92198 6.78368 4.92271 6.78368 4.92418C6.78368 5.96799 5.93718 6.81448 4.89337 6.81448C4.89264 6.81448 4.8919 6.81448 4.89117 6.81448L4.8919 6.81375ZM18.7424 18.7475H15.4848V13.6429C15.4848 12.4252 15.4599 10.8592 13.7874 10.8592C12.0886 10.8592 11.8296 12.1839 11.8296 13.5534V18.7483H8.57202V8.25073H11.7013V9.68185H11.7438C12.3512 8.65858 13.45 7.98373 14.7065 7.98373C14.7513 7.98373 14.7953 7.98446 14.8393 7.98593H14.8327C18.1336 7.98593 18.7439 10.1586 18.7439 12.9864V18.7483L18.7424 18.7475Z" fill="white"/>
</svg>
