<svg width="75" height="24" viewBox="0 0 75 24" fill="none" xmlns="http://www.w3.org/2000/svg">
<g clip-path="url(#clip0_1_600)">
<g clip-path="url(#clip1_1_600)">
<path d="M1.13074 16.7183V0.948281H3.90074V16.7183H1.13074ZM10.9927 5.27828C7.44074 5.27828 4.98274 8.00828 4.98274 11.1343C4.98274 14.6243 7.65674 17.0273 11.0197 17.0273C14.2117 17.0273 16.9817 14.6673 16.9817 11.1273C16.9817 8.15028 14.6867 5.27728 10.9917 5.27728L10.9927 5.27828ZM10.9597 7.95028C12.8187 7.95028 14.1867 9.39728 14.1867 11.1443C14.1902 11.9905 13.8575 12.8035 13.2617 13.4045C12.666 14.0055 11.856 14.3453 11.0097 14.3493C9.03874 14.3493 7.79774 12.7863 7.79774 11.1493C7.79774 9.35528 9.19774 7.95028 10.9597 7.95028ZM23.9427 5.27828C20.3907 5.27828 17.9327 8.00828 17.9327 11.1343C17.9327 14.6243 20.6067 17.0273 23.9707 17.0273C27.1627 17.0273 29.9327 14.6673 29.9327 11.1273C29.9327 9.04228 29.0297 8.11728 29.0297 8.11728L29.7977 7.85428V5.60528H25.8627C25.8627 5.60528 25.0097 5.27828 23.9427 5.27828ZM23.9097 7.95028C25.7697 7.95028 27.1367 9.39728 27.1367 11.1443C27.1402 11.9903 26.8076 12.8032 26.2121 13.4041C25.6166 14.0051 24.8068 14.345 23.9607 14.3493C21.9887 14.3493 20.7487 12.7863 20.7487 11.1493C20.7487 9.35528 22.1487 7.95028 23.9097 7.95028ZM27.1177 17.4903C27.1212 18.3373 26.7888 19.1513 26.1933 19.7537C25.5978 20.3561 24.7878 20.6979 23.9407 20.7043C21.9697 20.7043 20.7237 19.1273 20.7237 17.4903H17.9137C17.9137 20.9783 20.5867 23.3823 23.9507 23.3823C27.1427 23.3823 29.9127 21.0303 29.9127 17.4903H27.1177ZM31.0417 16.7183V5.60628H33.8117V16.7203H31.0417V16.7183ZM36.5027 16.7183V8.09628H35.0167V5.60628H36.5027V2.19328H39.2727V5.60528H40.7987V8.09528H39.2727V16.7193H36.5027V16.7183ZM34.2557 2.44828C34.2557 2.93482 34.0625 3.40143 33.7184 3.74547C33.3744 4.0895 32.9078 4.28278 32.4212 4.28278C31.9347 4.28278 31.4681 4.0895 31.1241 3.74547C30.78 3.40143 30.5867 2.93482 30.5867 2.44828C30.5867 1.96161 30.7801 1.49487 31.1242 1.15074C31.4683 0.806611 31.9351 0.613281 32.4217 0.613281C32.9084 0.613281 33.3751 0.806611 33.7193 1.15074C34.0634 1.49487 34.2557 1.96161 34.2557 2.44828ZM47.0267 5.27028C43.4577 5.27028 41.1567 8.00328 41.1567 11.2353C41.1567 14.5753 43.4657 17.0343 47.0847 17.0343C50.4607 17.0343 52.1207 14.9263 52.1207 14.9263L50.2687 13.0723C50.2687 13.0723 48.8707 14.5803 47.1187 14.5803C45.6597 14.5803 44.4927 13.7653 44.0857 12.2713H52.7177V11.5083C52.7177 8.46528 50.9547 5.27028 47.0267 5.27028ZM46.9387 7.71028C48.2147 7.71028 49.5207 8.39228 49.8117 10.0233H44.0107C44.2407 8.87628 45.2427 7.70928 46.9387 7.70928V7.71028ZM59.6477 17.0353C56.0687 17.0353 53.6297 14.3103 53.6297 11.0953C53.6297 7.77928 56.3857 5.26828 59.6357 5.26828C62.7777 5.26828 64.3857 7.48628 64.3857 7.48628L62.4537 9.41028C62.4537 9.41028 61.3337 7.96328 59.6237 7.96328C57.7267 7.96328 56.4297 9.41328 56.4297 11.1383C56.4297 12.9593 57.8097 14.3563 59.6017 14.3563C61.3407 14.3563 62.4507 12.9123 62.4507 12.9123L64.4027 14.8353C64.4027 14.8353 62.8097 17.0353 59.6477 17.0353ZM65.4107 16.7273V0.907281H68.1807V6.72028C68.1807 6.72028 69.2407 5.26828 71.5487 5.26828C74.4497 5.26828 76.1307 7.42428 76.1307 10.1823V16.7273H73.3607V10.6013C73.3607 8.74828 72.2067 7.98028 70.9287 7.98028C69.4727 7.98028 68.1807 8.80828 68.1807 10.7443V16.7273H65.4107Z" fill="#B9BEC7"/>
</g>
</g>
<defs>
<clipPath id="clip0_1_600">
<rect width="76" height="24" fill="white" transform="translate(0.630737)"/>
</clipPath>
<clipPath id="clip1_1_600">
<rect width="76" height="24" fill="white" transform="translate(0.630737)"/>
</clipPath>
</defs>
</svg>
