<svg width="159" height="45" viewBox="0 0 159 45" fill="none" xmlns="http://www.w3.org/2000/svg">
<path d="M18.2762 2.06334C19.8384 2.06297 21.3916 2.28909 22.882 2.73387C25.5501 3.53705 27.9369 5.01658 29.7851 7.01303C31.6332 9.0095 32.8727 11.4471 33.3699 14.0632C33.5505 14.9683 33.63 15.8889 33.6072 16.8098C33.5597 17.8119 33.3741 18.8038 33.0551 19.7601C32.5341 21.3601 31.8772 22.9173 31.091 24.4163C30.6204 25.3327 30.1271 26.2353 29.6113 27.124C29.0621 28.0627 28.5044 28.9854 27.917 29.8973C27.468 30.5959 27.0204 31.296 26.5587 31.988C25.8998 32.9714 25.2277 33.9464 24.5424 34.9129C23.4928 36.3899 22.4165 37.8489 21.3133 39.2902C20.3518 40.544 19.3789 41.7886 18.3779 43.0143C18.2875 43.1256 18.2466 43.1283 18.1548 43.0143C16.6487 41.161 15.1897 39.2772 13.7777 37.363C12.3065 35.3796 10.8832 33.3653 9.53055 31.3081C8.02568 29.0564 6.65125 26.7284 5.41333 24.3345C4.61213 22.8112 3.95077 21.2251 3.43659 19.5938C3.13787 18.6786 2.96745 17.7298 2.9297 16.7722C2.91215 15.6443 3.03875 14.5185 3.3067 13.4195C3.85593 11.1341 4.97582 9.00763 6.57188 7.21952C8.16793 5.43144 10.1933 4.03417 12.4773 3.14558C13.8961 2.59155 15.3962 2.24823 16.9249 2.1277C17.3754 2.08748 17.8244 2.06334 18.2762 2.06334ZM23.996 9.32522C23.9561 9.28824 23.9142 9.25335 23.8704 9.22063C21.7185 7.78298 19.3394 7.23718 16.74 7.62476C14.3552 7.98012 12.3954 9.07041 10.8479 10.8219C10.0954 11.675 9.52044 12.6562 9.15355 13.7132C8.69836 14.9903 8.54744 16.3475 8.71167 17.6868C8.84905 18.8792 9.23906 20.0329 9.85811 21.0784C10.8092 22.7035 12.2606 24.0138 14.0177 24.8334C15.962 25.7465 18.1748 26.0067 20.2947 25.5715C22.4147 25.1362 24.3167 24.0312 25.6903 22.4369C27.4045 20.4334 28.1005 18.1348 27.8083 15.5733C27.6525 14.1994 27.1577 12.8797 26.3638 11.7218C26.0828 11.2857 25.7513 10.8809 25.3755 10.5148C25.1637 9.77587 24.7161 9.39629 23.996 9.32522Z" fill="#8465DC"/>
<path d="M18.2487 2.0466C19.811 2.04623 21.3641 2.27235 22.8545 2.71714C25.5226 3.52031 27.9094 4.99985 29.7575 6.99629C31.6057 8.99276 32.8452 11.4304 33.3425 14.0465C33.523 14.9515 33.6025 15.8721 33.5796 16.793C33.5322 17.7952 33.3466 18.7871 33.0276 19.7434C32.5066 21.3434 31.8498 22.9005 31.0636 24.3996C30.5929 25.316 30.0997 26.2185 29.5839 27.1072C29.0346 28.0459 28.4769 28.9686 27.8895 29.8805C27.4405 30.5793 26.993 31.2793 26.5312 31.9713C25.8723 32.9547 25.2002 33.9297 24.5149 34.8962C23.4654 36.3731 22.389 37.8322 21.2858 39.2734C20.3243 40.5273 19.3514 41.7718 18.3503 42.9976C18.26 43.1089 18.2191 43.1116 18.1273 42.9976C16.6212 41.1442 15.1622 39.2605 13.7502 37.3463C12.279 35.3628 10.8558 33.3485 9.50311 31.2914C7.99823 29.0396 6.62378 26.7116 5.38585 24.3178C4.58465 22.7945 3.92329 21.2084 3.40912 19.5771C3.1104 18.6618 2.93998 17.7131 2.90223 16.7555C2.88468 15.6276 3.01127 14.5017 3.27922 13.4028C3.82845 11.1173 4.94833 8.99088 6.5444 7.2028C8.14048 5.41471 10.1659 4.01743 12.4498 3.12885C13.8687 2.5748 15.3687 2.23149 16.8975 2.11097C17.3479 2.07074 17.7969 2.0466 18.2487 2.0466ZM23.9685 9.30847C23.9287 9.27149 23.8867 9.23661 23.8429 9.20388C21.6911 7.7663 19.3119 7.22044 16.7125 7.60801C14.3277 7.96337 12.368 9.05367 10.8205 10.8052C10.068 11.6583 9.49299 12.6395 9.12611 13.6965C8.67084 14.9736 8.51992 16.3308 8.68415 17.6701C8.82153 18.8625 9.21154 20.0161 9.83067 21.0617C10.7818 22.6868 12.2332 23.997 13.9903 24.8166C15.9345 25.7298 18.1472 25.99 20.2672 25.5547C22.3873 25.1194 24.2893 24.0145 25.6629 22.4202C27.377 20.4166 28.0731 18.118 27.7808 15.5566C27.6251 14.1826 27.1302 12.863 26.3363 11.705C26.0553 11.2689 25.7238 10.8641 25.348 10.498C25.1362 9.75912 24.6886 9.37954 23.9685 9.30847Z" fill="#218448"/>
<path d="M23.9961 9.32545C24.712 9.38989 25.1596 9.7761 25.3827 10.5204C25.4843 11.1225 25.2669 11.6348 24.9012 12.1082C24.3189 12.8405 23.6076 13.4716 22.7988 13.9736C22.2891 14.3022 21.7611 14.6026 21.1497 14.7233C20.6258 14.8279 20.0978 14.9057 19.5711 14.9915C19.5344 14.9982 19.4892 14.9915 19.4906 15.0532C19.7165 15.0532 19.9425 15.0599 20.167 15.0532C20.3914 15.0465 20.6018 15.0197 20.8504 14.9996L20.671 15.0827C19.2836 15.7074 18.1093 16.6903 17.2823 17.9191C16.6088 18.9302 16.2813 20.0098 16.5184 21.2168C16.9251 23.2914 19.036 24.8256 21.2485 24.6472C21.5097 24.6258 21.7653 24.5708 22.0688 24.5333C19.1532 25.9119 14.4076 25.7791 11.2519 22.3111C9.77239 20.6739 8.98583 18.5732 9.04478 16.4164C9.10374 14.2595 10.004 12.2004 11.571 10.6384C14.9117 7.32463 19.8366 7.28571 23.0078 9.21956C22.8916 9.363 22.8232 9.53614 22.8113 9.71685C22.7996 9.89748 22.8448 10.0774 22.9414 10.2334C23.0981 10.5016 23.3933 10.515 23.6771 10.5137C23.6326 10.4932 23.5849 10.4796 23.5358 10.4734C23.0501 10.3863 22.8779 10.1369 23.0148 9.58833C23.0311 9.50183 23.0822 9.4247 23.1574 9.37338C23.2325 9.32206 23.3257 9.30051 23.4172 9.31341L23.9961 9.32545ZM21.737 11.781C21.737 11.7649 21.737 11.7488 21.737 11.7327C21.8034 11.4753 21.7455 11.1882 21.9319 10.9562C21.9442 10.9375 21.9483 10.9149 21.9432 10.8934C21.9382 10.8718 21.9245 10.853 21.9051 10.8409C21.8965 10.8313 21.886 10.8234 21.8742 10.8177C21.8624 10.8121 21.8495 10.8088 21.8363 10.808C21.8231 10.8073 21.8098 10.8091 21.7974 10.8133C21.7849 10.8176 21.7735 10.8242 21.7639 10.8329C21.7243 10.8637 21.6876 10.9026 21.7215 10.9562C21.7532 10.9997 21.7668 11.0527 21.7596 11.1051C21.7299 11.3263 21.7088 11.5503 21.6848 11.7756C21.6446 12.0533 21.6446 12.3348 21.6848 12.6125C21.6848 12.6125 21.6848 12.6205 21.6918 12.6245L21.6791 12.6058L21.737 11.781ZM21.2584 12.8726C21.2662 12.6595 21.2955 12.4475 21.3459 12.2396C21.3742 12.1163 21.3587 11.9714 21.4871 11.8816C21.4972 11.8733 21.5055 11.863 21.511 11.8514C21.5166 11.8398 21.5195 11.8272 21.5195 11.8145C21.5195 11.8018 21.5166 11.7892 21.511 11.7776C21.5055 11.766 21.4972 11.7558 21.4871 11.7474C21.4798 11.7369 21.4702 11.7278 21.4591 11.7207C21.448 11.7136 21.4355 11.7087 21.4224 11.7062C21.4092 11.7038 21.3958 11.7037 21.3826 11.7062C21.3695 11.7087 21.3571 11.7136 21.3459 11.7206C21.2965 11.7461 21.2612 11.7957 21.2909 11.8386C21.3473 11.9258 21.3064 12.0036 21.2909 12.0841C21.2408 12.3407 21.2139 12.6009 21.2104 12.8619C21.1553 13.0738 21.2203 13.2789 21.2485 13.4855L21.2584 12.8726ZM19.9721 13.0979C20.0364 12.9386 20.1109 12.7832 20.1952 12.6326C20.3208 12.4328 20.3731 12.1819 20.6188 12.0626C20.6288 12.0569 20.6374 12.0493 20.6441 12.0403C20.6508 12.0313 20.6555 12.0211 20.6579 12.0102C20.6603 11.9994 20.6603 11.9882 20.658 11.9774C20.6556 11.9666 20.6509 11.9563 20.6442 11.9472C20.6174 11.9044 20.5792 11.8695 20.5214 11.8842C20.4635 11.899 20.4225 11.9285 20.4324 11.9835C20.4426 12.0353 20.431 12.0887 20.3999 12.1323C20.2121 12.4419 20.0529 12.7663 19.9241 13.102C19.8614 13.2076 19.8315 13.3281 19.838 13.4493C19.8761 13.3313 19.9212 13.2146 19.9651 13.0979H19.9721ZM13.6889 12.5883C13.6099 12.4367 13.5279 12.2866 13.4545 12.1337C13.2666 11.7743 13.1298 11.3928 13.0479 10.9992C12.983 10.6156 13.1114 10.3876 13.4898 10.2347C13.6789 10.1653 13.8769 10.1201 14.0786 10.1006C14.3299 10.0685 14.5841 10.0845 14.8369 10.0604C14.4523 9.88869 14.0228 9.82944 13.6028 9.89006C12.8446 9.99739 12.524 10.4801 12.726 11.1856C12.8898 11.735 13.2256 12.2242 13.6889 12.5883ZM18.8906 10.0778C18.8885 10.1909 18.9327 10.3003 19.0138 10.383C19.0949 10.4658 19.2066 10.5155 19.3254 10.5217C19.3872 10.5261 19.4494 10.5185 19.508 10.4994C19.5666 10.4803 19.6205 10.4501 19.6665 10.4105C19.7125 10.371 19.7495 10.323 19.7753 10.2695C19.8011 10.216 19.8153 10.1581 19.8168 10.0992C19.8183 10.0403 19.8073 9.98174 19.7842 9.92711C19.7612 9.8724 19.7267 9.82273 19.6829 9.78114C19.639 9.73948 19.5868 9.70676 19.5292 9.68492C19.4716 9.66308 19.41 9.65255 19.348 9.65407C19.2292 9.65536 19.1154 9.70012 19.0306 9.77905C18.9456 9.85798 18.896 9.96502 18.892 10.0778H18.8906ZM23.67 10.114C23.7773 10.0993 23.9595 10.1274 23.9736 9.9625C23.9877 9.79751 23.8098 9.7828 23.6799 9.75728C23.4977 9.72247 23.3043 9.79751 23.2874 9.89143C23.2704 9.98528 23.4286 10.0926 23.6319 10.1046L23.67 10.114ZM20.8687 12.1015C20.9308 11.9124 20.9831 11.7193 21.0607 11.5342C21.1384 11.3492 21.12 11.1628 21.3078 11.0474C21.353 11.0206 21.3431 10.9576 21.3078 10.9133C21.2943 10.8957 21.2752 10.8828 21.2534 10.8763C21.2315 10.8698 21.208 10.8701 21.1864 10.8771C21.1327 10.8959 21.096 10.9388 21.1158 10.9884C21.1539 11.0863 21.1017 11.1668 21.0777 11.2566C20.98 11.5313 20.9105 11.8142 20.8701 12.1015H20.8687ZM22.1254 12.2678C22.1041 12.194 22.1451 12.072 22.1338 11.9526C22.0971 11.7959 22.1171 11.632 22.1902 11.4873C22.1963 11.4767 22.2001 11.465 22.2013 11.453C22.2026 11.441 22.2012 11.4288 22.1974 11.4173C22.1936 11.4058 22.1873 11.3952 22.1791 11.3859C22.1708 11.3768 22.1607 11.3693 22.1493 11.3639C22.1287 11.3485 22.1027 11.3411 22.0765 11.3431C22.0503 11.3451 22.0259 11.3563 22.0081 11.3746C21.9686 11.4122 21.9474 11.4618 21.9912 11.5088C22.035 11.5557 22.0335 11.6348 22.0462 11.7019C22.083 11.9017 22.0195 12.1216 22.1267 12.2678H22.1254ZM20.7275 12.658C20.7862 12.514 20.8196 12.3618 20.8263 12.2075C20.7605 12.3494 20.7273 12.503 20.7289 12.658H20.7275ZM19.7391 13.6719C19.7462 13.6625 19.7575 13.6558 19.7575 13.6478C19.7575 13.6397 19.7829 13.5954 19.742 13.5968C19.7363 13.5968 19.725 13.6437 19.7462 13.6719H19.7391ZM19.7716 13.5378C19.7843 13.5298 19.7942 13.5257 19.7956 13.5217C19.7984 13.513 19.7984 13.5036 19.7956 13.4949C19.7956 13.4801 19.7801 13.4801 19.7759 13.4949C19.7753 13.5092 19.7763 13.5236 19.7787 13.5378H19.7716Z" fill="#191F1C"/>
<path d="M23.9961 9.32435L23.4229 9.31231C23.3313 9.29941 23.2381 9.32096 23.163 9.37228C23.0878 9.42361 23.0367 9.50066 23.0205 9.58723C22.8792 10.1357 23.0558 10.3852 23.5415 10.4723C23.5905 10.4785 23.6382 10.4921 23.6827 10.5125C23.4003 10.5125 23.1038 10.4965 22.947 10.2323C22.8504 10.0762 22.8051 9.89638 22.8169 9.71575C22.8288 9.53504 22.8972 9.3619 23.0134 9.21846C19.8379 7.27928 14.913 7.32353 11.5766 10.6373C10.0086 12.1989 9.10735 14.258 9.04756 16.4151C8.98785 18.5723 9.77395 20.6736 11.2533 22.3113C14.409 25.7793 19.1602 25.9121 22.0702 24.5335C21.7667 24.571 21.5054 24.626 21.2499 24.6475C19.0374 24.8258 16.9265 23.2916 16.5198 21.217C16.2827 20.01 16.6102 18.9372 17.2837 17.9193C18.1107 16.6906 19.285 15.7076 20.6724 15.083L20.8517 14.9998C20.6032 15.0199 20.3858 15.044 20.1684 15.0535C19.9509 15.0628 19.718 15.0535 19.492 15.0535C19.492 14.989 19.5358 14.9985 19.5725 14.9918C20.0991 14.9033 20.6272 14.8255 21.151 14.7236C21.7624 14.6028 22.2905 14.3025 22.8002 13.9738C23.609 13.4719 24.3203 12.8407 24.9026 12.1085C25.2683 11.635 25.4858 11.1228 25.384 10.5206C25.7599 10.8867 26.0914 11.2915 26.3724 11.7276C27.1622 12.8843 27.6542 14.2016 27.8084 15.5725C28.0907 18.1338 27.4003 20.4325 25.6905 22.4361C24.3134 24.0266 22.411 25.1288 20.2919 25.564C18.1728 25.9992 15.961 25.742 14.015 24.8339C12.2579 24.0143 10.8065 22.704 9.85542 21.0788C9.23629 20.0334 8.84636 18.8797 8.70898 17.6873C8.54467 16.348 8.69566 14.9908 9.15086 13.7137C9.51775 12.6567 10.0928 11.6756 10.8452 10.8223C12.3983 9.07091 14.3525 7.98062 16.7373 7.62526C19.3367 7.23769 21.7158 7.78348 23.8676 9.22113C23.9124 9.25328 23.9553 9.28781 23.9961 9.32435Z" fill="#FEFEFE"/>
<path d="M13.6888 12.5861C13.2255 12.222 12.8897 11.7328 12.7259 11.1833C12.5239 10.4778 12.8445 9.99512 13.6027 9.88779C14.0227 9.82717 14.4523 9.88642 14.8367 10.0581C14.584 10.0823 14.3298 10.0662 14.0785 10.0983C13.8768 10.1179 13.6788 10.163 13.4897 10.2325C13.1113 10.3854 12.9829 10.6134 13.0478 10.9969C13.1297 11.3905 13.2664 11.7721 13.4544 12.1314C13.5293 12.2843 13.6112 12.4345 13.6888 12.5861Z" fill="#FEFEFE"/>
<path d="M18.8919 10.0751C18.8959 9.96211 18.9457 9.85493 19.0309 9.77593C19.1162 9.69693 19.2303 9.65231 19.3494 9.65137C19.4114 9.64986 19.473 9.66038 19.5306 9.68222C19.5881 9.70406 19.6404 9.73679 19.6842 9.77845C19.7281 9.82004 19.7626 9.86971 19.7856 9.92441C19.8086 9.97905 19.8197 10.0376 19.8182 10.0965C19.8166 10.1554 19.8025 10.2133 19.7766 10.2668C19.7509 10.3204 19.7138 10.3683 19.6679 10.4078C19.6219 10.4474 19.568 10.4776 19.5093 10.4967C19.4507 10.5158 19.3886 10.5234 19.3268 10.519C19.208 10.5128 19.0962 10.4631 19.0151 10.3803C18.934 10.2976 18.8899 10.1882 18.8919 10.0751Z" fill="#FEFEFE"/>
<path d="M23.6713 10.1107H23.6332C23.4257 10.0986 23.2704 10.0034 23.2887 9.89745C23.3071 9.79149 23.4991 9.72308 23.6812 9.76338C23.8111 9.78882 23.9876 9.80893 23.9749 9.96852C23.9622 10.1281 23.7786 10.096 23.6713 10.1107Z" fill="#FEFEFE"/>
<path d="M19.9184 13.1023C20.0473 12.7666 20.2065 12.4421 20.3942 12.1326C20.4253 12.089 20.437 12.0355 20.4267 11.9838C20.4168 11.9288 20.4649 11.8966 20.5157 11.8845C20.5665 11.8725 20.6117 11.9046 20.6386 11.9475C20.6453 11.9566 20.65 11.9668 20.6523 11.9777C20.6547 11.9885 20.6547 11.9996 20.6523 12.0104C20.6499 12.0213 20.6452 12.0316 20.6384 12.0406C20.6317 12.0496 20.6231 12.0572 20.6132 12.0629C20.366 12.1822 20.3138 12.4331 20.1895 12.6329C20.1055 12.7832 20.031 12.9381 19.9664 13.0969L19.9184 13.1023Z" fill="#FEFEFE"/>
<path d="M20.8701 12.0976C20.9112 11.8092 20.9816 11.5254 21.0804 11.25C21.1045 11.1656 21.1567 11.0851 21.1186 10.9818C21.0989 10.9322 21.1355 10.8893 21.1892 10.8705C21.2108 10.8634 21.2343 10.8631 21.2562 10.8697C21.278 10.8762 21.2971 10.8891 21.3106 10.9067C21.3445 10.9482 21.3544 11.0113 21.3106 11.0408C21.1228 11.1561 21.1327 11.3613 21.0636 11.5276C20.9943 11.6939 20.9322 11.9085 20.8701 12.0976Z" fill="#FEFEFE"/>
<path d="M21.2131 12.8679C21.2166 12.6069 21.2435 12.3467 21.2936 12.0901C21.3078 12.0097 21.3487 11.9319 21.2936 11.8447C21.2639 11.8018 21.2936 11.7521 21.3487 11.7267C21.3598 11.7196 21.3723 11.7147 21.3854 11.7123C21.3985 11.7097 21.412 11.7097 21.4251 11.7123C21.4382 11.7147 21.4507 11.7197 21.4618 11.7268C21.4729 11.7338 21.4825 11.7429 21.4899 11.7535C21.5001 11.7618 21.5082 11.7721 21.5137 11.7837C21.5193 11.7952 21.5222 11.8079 21.5222 11.8205C21.5222 11.8333 21.5193 11.8459 21.5137 11.8574C21.5082 11.869 21.5001 11.8793 21.4899 11.8876C21.3487 11.9788 21.3713 12.1223 21.3487 12.2457C21.2981 12.4535 21.2692 12.6655 21.2626 12.8787C21.24 12.8653 21.2301 12.8505 21.2131 12.8679Z" fill="#FEFEFE"/>
<path d="M22.1266 12.2641C22.0222 12.1179 22.0829 11.898 22.0489 11.6928C22.0362 11.6257 22.0489 11.5587 21.9939 11.4997C21.9389 11.4406 21.9713 11.4085 22.0108 11.3656C22.0286 11.3473 22.0531 11.336 22.0792 11.334C22.1054 11.332 22.1314 11.3394 22.152 11.3549C22.1634 11.3602 22.1735 11.3678 22.1818 11.3769C22.1901 11.3861 22.1963 11.3967 22.2001 11.4083C22.204 11.4198 22.2053 11.4319 22.204 11.444C22.2028 11.456 22.1991 11.4676 22.193 11.4782C22.1198 11.6229 22.0999 11.7868 22.1365 11.9435C22.1464 12.075 22.1055 12.1904 22.1266 12.2641Z" fill="#FEFEFE"/>
<path d="M21.6861 11.7741C21.7102 11.5515 21.7313 11.3275 21.761 11.1036C21.7682 11.0512 21.7545 10.9981 21.7229 10.9547C21.689 10.9011 21.7229 10.8622 21.7653 10.8313C21.7749 10.8227 21.7863 10.8161 21.7987 10.8119C21.8112 10.8076 21.8244 10.8058 21.8376 10.8065C21.8508 10.8073 21.8638 10.8106 21.8756 10.8162C21.8874 10.8219 21.8979 10.8297 21.9064 10.8394C21.9258 10.8515 21.9395 10.8703 21.9446 10.8919C21.9496 10.9134 21.9455 10.936 21.9332 10.9547C21.7469 11.1867 21.8047 11.4737 21.7384 11.7312C21.7384 11.7473 21.7384 11.7634 21.7384 11.7795L21.6861 11.7741Z" fill="#FEFEFE"/>
<path d="M21.6864 11.769L21.7306 11.777C21.7135 12.0573 21.6964 12.3362 21.6793 12.5991L21.6921 12.6179C21.6921 12.6179 21.685 12.6098 21.685 12.6058C21.6449 12.3281 21.6454 12.0466 21.6864 11.769Z" fill="#8465DC"/>
<path d="M21.2133 12.8647C21.2304 12.8472 21.2404 12.8647 21.2532 12.8714C21.2532 13.0766 21.2532 13.2831 21.2532 13.4882C21.2233 13.2844 21.1577 13.0766 21.2133 12.8647Z" fill="#8465DC"/>
<path d="M20.7288 12.659C20.7277 12.5038 20.7617 12.3502 20.8286 12.2084C20.8219 12.3628 20.7882 12.515 20.7288 12.659Z" fill="#8465DC"/>
<path d="M19.9191 13.0999H19.9661C19.9219 13.218 19.8763 13.3346 19.8322 13.4527C19.8245 13.3296 19.8547 13.2072 19.9191 13.0999Z" fill="#8465DC"/>
<path d="M19.7462 13.6689C19.7248 13.6407 19.7362 13.5938 19.7462 13.5938C19.7875 13.5938 19.7619 13.6259 19.7619 13.6447C19.7619 13.6635 19.7604 13.6594 19.7462 13.6689Z" fill="#8465DC"/>
<path d="M19.7785 13.5347C19.7771 13.5204 19.7771 13.5061 19.7785 13.4918C19.7785 13.4771 19.7927 13.4771 19.7985 13.4918C19.8012 13.5006 19.8012 13.5099 19.7985 13.5186C19.7985 13.5186 19.7913 13.5267 19.7785 13.5347Z" fill="#8465DC"/>
<path d="M55.6559 22.2215C53.6686 24.1046 51.2366 25.0461 48.3599 25.0461C45.4831 25.0461 43.0415 24.1046 41.0354 22.2215C39.0481 20.3205 38.0545 18.0071 38.0545 15.2811C38.0545 12.5552 39.0481 10.2507 41.0354 8.36766C43.0415 6.46667 45.4831 5.51618 48.3599 5.51618C51.2366 5.51618 53.6686 6.46667 55.6559 8.36766C57.6621 10.2507 58.6651 12.5552 58.6651 15.2811C58.6651 18.0071 57.6621 20.3205 55.6559 22.2215ZM43.3349 20.1233C44.6976 21.3965 46.3725 22.0332 48.3599 22.0332C50.3471 22.0332 52.0125 21.3965 53.3563 20.1233C54.719 18.8321 55.4004 17.218 55.4004 15.2811C55.4004 13.3443 54.719 11.7392 53.3563 10.4659C52.0125 9.17468 50.3471 8.52905 48.3599 8.52905C46.3725 8.52905 44.6976 9.17468 43.3349 10.4659C41.9912 11.7392 41.3193 13.3443 41.3193 15.2811C41.3193 17.218 41.9912 18.8321 43.3349 20.1233ZM68.3714 14.0437H64.8511V20.4999C64.8511 21.0558 64.9836 21.4593 65.2485 21.7105C65.5135 21.9436 65.9015 22.0781 66.4125 22.114C66.9424 22.1318 67.5954 22.1229 68.3714 22.087V24.6964C66.0245 24.9654 64.3401 24.7771 63.3181 24.1315C62.296 23.4679 61.7851 22.2574 61.7851 20.4999V14.0437H59.1733V11.2461H61.7851V8.34077L64.8511 7.47991V11.2461H68.3714V14.0437ZM77.4141 14.0437H73.8935V20.4999C73.8935 21.0558 74.026 21.4593 74.291 21.7105C74.5559 21.9436 74.9439 22.0781 75.455 22.114C75.9849 22.1318 76.6375 22.1229 77.4141 22.087V24.6964C75.0669 24.9654 73.3825 24.7771 72.3605 24.1315C71.3385 23.4679 70.8275 22.2574 70.8275 20.4999V14.0437H68.2157V11.2461H70.8275V8.34077L73.8935 7.47991V11.2461H77.4141V14.0437ZM81.032 19.2087C81.2587 20.2309 81.7797 21.02 82.5929 21.5759C83.4069 22.114 84.4011 22.383 85.5741 22.383C87.202 22.383 88.4229 21.827 89.2361 20.7151L91.7631 22.114C90.3626 24.0687 88.2898 25.0461 85.5459 25.0461C83.2365 25.0461 81.3728 24.3826 79.9533 23.0555C78.5339 21.7105 77.8241 20.0157 77.8241 17.9712C77.8241 15.9627 78.524 14.2858 79.9244 12.9407C81.3248 11.5778 83.1231 10.8963 85.3185 10.8963C87.4005 10.8963 89.1037 11.5868 90.4288 12.9677C91.7722 14.3486 92.4447 16.0254 92.4447 17.9982C92.4447 18.303 92.4066 18.7065 92.3306 19.2087H81.032ZM81.0038 16.8414H89.3502C89.1417 15.7474 88.6595 14.9225 87.9018 14.3665C87.1639 13.8105 86.2937 13.5326 85.2903 13.5326C84.1546 13.5326 83.2083 13.8285 82.4514 14.4204C81.6945 15.0121 81.2115 15.8191 81.0038 16.8414ZM97.215 13.5057C97.9909 11.8378 99.4476 11.0039 101.587 11.0039V14.1513C100.413 14.0796 99.3913 14.3486 98.5203 14.9584C97.6501 15.5501 97.215 16.5365 97.215 17.9174V24.6964H94.1486V11.2461H97.215V13.5057ZM118.359 10.8963C119.967 10.8963 121.264 11.3895 122.248 12.3759C123.232 13.3622 123.724 14.6894 123.724 16.3572V24.6964H120.659V16.5455C120.659 15.6129 120.412 14.8956 119.92 14.3934C119.428 13.8733 118.756 13.6133 117.904 13.6133C116.958 13.6133 116.201 13.9092 115.634 14.501C115.084 15.0929 114.811 15.9805 114.811 17.1642V24.6964H111.744V16.5455C111.744 15.6129 111.508 14.8956 111.034 14.3934C110.58 13.8733 109.927 13.6133 109.076 13.6133C108.148 13.6133 107.392 13.9182 106.804 14.5279C106.218 15.1198 105.924 15.9985 105.924 17.1642V24.6964H102.859V11.2461H105.924V12.8601C106.833 11.5509 108.186 10.8963 109.984 10.8963C111.801 10.8963 113.145 11.6047 114.016 13.0215C114.962 11.6047 116.41 10.8963 118.359 10.8963ZM137.254 11.2461H140.32V24.6964H137.254V22.7595C136.1 24.284 134.444 25.0461 132.286 25.0461C130.337 25.0461 128.671 24.3646 127.29 23.0016C125.908 21.6207 125.218 19.944 125.218 17.9712C125.218 15.9805 125.908 14.3037 127.29 12.9407C128.671 11.5778 130.337 10.8963 132.286 10.8963C134.444 10.8963 136.1 11.6496 137.254 13.156V11.2461ZM129.561 21.0648C130.412 21.8718 131.482 22.2754 132.769 22.2754C134.056 22.2754 135.125 21.8718 135.977 21.0648C136.829 20.2399 137.254 19.2087 137.254 17.9712C137.254 16.7338 136.829 15.7115 135.977 14.9045C135.125 14.0796 134.056 13.6671 132.769 13.6671C131.482 13.6671 130.412 14.0796 129.561 14.9045C128.709 15.7115 128.283 16.7338 128.283 17.9712C128.283 19.2087 128.709 20.2399 129.561 21.0648ZM150.934 10.8963C152.884 10.8963 154.55 11.5868 155.931 12.9677C157.313 14.3307 158.003 15.9985 158.003 17.9712C158.003 19.9618 157.313 21.6387 155.931 23.0016C154.55 24.3646 152.884 25.0461 150.934 25.0461C148.777 25.0461 147.121 24.2929 145.966 22.7865V30.0766H142.901V11.2461H145.966V13.1829C147.121 11.6585 148.777 10.8963 150.934 10.8963ZM147.244 21.0648C148.095 21.8718 149.165 22.2754 150.452 22.2754C151.739 22.2754 152.809 21.8718 153.66 21.0648C154.512 20.2399 154.938 19.2087 154.938 17.9712C154.938 16.7338 154.512 15.7115 153.66 14.9045C152.809 14.0796 151.739 13.6671 150.452 13.6671C149.165 13.6671 148.095 14.0796 147.244 14.9045C146.392 15.7115 145.966 16.7338 145.966 17.9712C145.966 19.2087 146.392 20.2399 147.244 21.0648Z" fill="#04471E"/>
</svg>
