<svg width="76" height="22" viewBox="0 0 76 22" fill="none" xmlns="http://www.w3.org/2000/svg">
<g clip-path="url(#clip0_1_596)">
<g clip-path="url(#clip1_1_596)">
<path d="M11.1576 20.0627C9.99958 20.2657 8.82058 20.3267 7.60158 20.4888L3.88158 9.59675V20.9568C2.72358 21.0788 1.66758 21.2408 0.56958 21.4038V0.59375H3.65958L7.88558 12.4008V0.59375H11.1576V20.0627ZM17.5596 8.21475C18.8196 8.21475 20.7496 8.15375 21.9076 8.15375V11.4047C20.4646 11.4047 18.7776 11.4047 17.5586 11.4657V16.3028C19.4686 16.1808 21.3796 16.0177 23.3106 15.9577V19.0868L14.3076 19.7978V0.59375H23.3106V3.84575H17.5586L17.5596 8.21475ZM35.4016 3.84475H32.0296V18.8028C30.9316 18.8028 29.8346 18.8027 28.7776 18.8428V3.84575H25.4046V0.59375H35.4026V3.84575L35.4016 3.84475ZM40.6856 7.99075H45.1356V11.2428H40.6856V18.6198H37.4946V0.59375H46.5786V3.84575H40.6856V7.99075ZM51.8626 15.7747C53.7126 15.8147 55.5816 15.9577 57.3906 16.0587V19.2698C54.4836 19.0868 51.5776 18.9038 48.6106 18.8428V0.59375H51.8626V15.7737V15.7747ZM60.1326 19.4938C61.1696 19.5538 62.2676 19.6158 63.3236 19.7368V0.59375H60.1336L60.1326 19.4938ZM77.5696 0.59375L73.4446 10.4907L77.5696 21.4038C76.3496 21.2408 75.1316 21.0178 73.9116 20.8138L71.5746 14.7987L69.1976 20.3267C68.0176 20.1238 66.8806 20.0627 65.7016 19.8997L69.8886 10.3687L66.1086 0.59375H69.6036L71.7376 6.06075L74.0136 0.59375H77.5696Z" fill="#B9BEC7"/>
</g>
</g>
<defs>
<clipPath id="clip0_1_596">
<rect width="78" height="22" fill="white" transform="translate(0.0695801)"/>
</clipPath>
<clipPath id="clip1_1_596">
<rect width="78" height="22" fill="white" transform="translate(0.0695801)"/>
</clipPath>
</defs>
</svg>
