<svg width="92" height="28" viewBox="0 0 92 28" fill="none" xmlns="http://www.w3.org/2000/svg">
<g clip-path="url(#clip0_1_588)">
<g clip-path="url(#clip1_1_588)">
<mask id="mask0_1_588" style="mask-type:luminance" maskUnits="userSpaceOnUse" x="1" y="0" width="93" height="28">
<path d="M1.43042 0.175781H93.4304V27.8248H1.43042V0.175781Z" fill="white"/>
</mask>
<g mask="url(#mask0_1_588)">
<path d="M15.2544 0.222656C7.64341 0.222656 1.47241 6.39466 1.47241 14.0067C1.47241 21.6187 7.64241 27.7887 15.2544 27.7887C22.8674 27.7887 29.0374 21.6187 29.0374 14.0067C29.0374 6.39566 22.8674 0.225656 15.2544 0.225656V0.222656ZM21.5744 20.1017C21.4556 20.2958 21.2646 20.4349 21.0434 20.4883C20.8221 20.5417 20.5887 20.5052 20.3944 20.3867C17.1574 18.4097 13.0844 17.9617 8.28641 19.0577C8.06891 19.0964 7.84485 19.0499 7.6607 18.9278C7.47654 18.8058 7.34641 18.6176 7.29729 18.4022C7.24817 18.1868 7.28382 17.9608 7.39685 17.7709C7.50989 17.5811 7.69163 17.4421 7.90441 17.3827C13.1544 16.1827 17.6574 16.6997 21.2904 18.9197C21.3868 18.9785 21.4707 19.0557 21.5372 19.147C21.6037 19.2383 21.6515 19.3418 21.678 19.4516C21.7045 19.5613 21.7091 19.6753 21.6914 19.7868C21.6738 19.8984 21.6344 20.0054 21.5754 20.1017H21.5744ZM23.2624 16.3487C23.1133 16.5915 22.8738 16.7652 22.5967 16.8316C22.3195 16.898 22.0274 16.8516 21.7844 16.7027C18.0794 14.4257 12.4324 13.7667 8.05041 15.0967C7.77764 15.1792 7.48324 15.1502 7.23183 15.016C6.98042 14.8818 6.79254 14.6533 6.70941 14.3807C6.62717 14.1079 6.65647 13.8136 6.79089 13.5624C6.9253 13.3112 7.15385 13.1236 7.42641 13.0407C12.4314 11.5217 18.6544 12.2577 22.9084 14.8717C23.4134 15.1827 23.5734 15.8447 23.2624 16.3487ZM23.4074 12.4407C18.9654 9.80266 11.6364 9.56066 7.39541 10.8467C7.23343 10.8958 7.06334 10.9126 6.89487 10.8961C6.72639 10.8795 6.56282 10.8299 6.41351 10.7502C6.11195 10.5891 5.88674 10.3148 5.78741 9.98766C5.68809 9.66051 5.72279 9.30731 5.88388 9.00575C6.04498 8.70419 6.31927 8.47898 6.64641 8.37966C11.5154 6.90266 19.6084 7.18766 24.7224 10.2237C24.868 10.31 24.9951 10.4242 25.0966 10.5596C25.198 10.6951 25.2718 10.8493 25.3137 11.0133C25.3555 11.1772 25.3647 11.3479 25.3406 11.5154C25.3166 11.6829 25.2598 11.8441 25.1734 11.9897C25.0871 12.1352 24.9729 12.2624 24.8374 12.3638C24.7019 12.4653 24.5478 12.539 24.3838 12.5809C24.2198 12.6228 24.0492 12.632 23.8817 12.6079C23.7141 12.5838 23.553 12.527 23.4074 12.4407ZM38.9694 12.9467C36.5894 12.3787 36.1664 11.9807 36.1664 11.1437C36.1664 10.3537 36.9104 9.82166 38.0184 9.82166C39.0914 9.82166 40.1544 10.2257 41.2704 11.0567C41.287 11.0691 41.3059 11.0781 41.326 11.0831C41.3461 11.0881 41.367 11.0889 41.3874 11.0857C41.4081 11.0828 41.428 11.0757 41.4459 11.0649C41.4638 11.054 41.4793 11.0397 41.4914 11.0227L42.6524 9.38466C42.6754 9.35216 42.6851 9.31211 42.6795 9.2727C42.6739 9.23328 42.6535 9.1975 42.6224 9.17266C41.2954 8.10666 39.8004 7.58866 38.0524 7.58866C35.4834 7.58866 33.6884 9.13066 33.6884 11.3367C33.6884 13.7027 35.2364 14.5407 37.9134 15.1867C40.1894 15.7117 40.5734 16.1517 40.5734 16.9367C40.5734 17.8067 39.7974 18.3487 38.5464 18.3487C37.1574 18.3487 36.0234 17.8797 34.7564 16.7837C34.7247 16.7568 34.6839 16.7431 34.6424 16.7457C34.6219 16.747 34.6018 16.7525 34.5834 16.7618C34.5651 16.7711 34.5487 16.784 34.5354 16.7997L33.2324 18.3497C33.2061 18.3808 33.193 18.421 33.1958 18.4617C33.1986 18.5024 33.2171 18.5404 33.2474 18.5677C34.6841 19.8693 36.5557 20.5867 38.4944 20.5787C41.2624 20.5787 43.0514 19.0667 43.0514 16.7247C43.0564 14.7487 41.8724 13.6547 38.9744 12.9487L38.9694 12.9467ZM49.3154 10.5997C48.1154 10.5997 47.1314 11.0727 46.3184 12.0407V10.9507C46.3185 10.9302 46.3146 10.91 46.3069 10.891C46.2992 10.8721 46.2878 10.8549 46.2734 10.8404C46.259 10.8259 46.2418 10.8144 46.223 10.8066C46.2041 10.7987 46.1839 10.7947 46.1634 10.7947H44.0324C44.012 10.7947 43.9917 10.7987 43.9729 10.8066C43.954 10.8144 43.9369 10.8259 43.9225 10.8404C43.908 10.8549 43.8967 10.8721 43.8889 10.891C43.8812 10.91 43.8773 10.9302 43.8774 10.9507V23.0637C43.8774 23.1497 43.9474 23.2207 44.0324 23.2207H46.1634C46.2494 23.2207 46.3184 23.1497 46.3184 23.0637V19.2407C47.1314 20.1507 48.1154 20.5967 49.3154 20.5967C51.5454 20.5967 53.8034 18.8807 53.8034 15.5987C53.8064 12.3167 51.5484 10.5987 49.3164 10.5987L49.3154 10.5997ZM51.3254 15.5997C51.3254 17.2697 50.2954 18.4357 48.8214 18.4357C47.3644 18.4357 46.2654 17.2157 46.2654 15.5987C46.2654 13.9807 47.3654 12.7617 48.8214 12.7617C50.2714 12.7617 51.3244 13.9547 51.3244 15.5987L51.3254 15.5997ZM59.5884 10.5997C56.7164 10.5997 54.4664 12.8107 54.4664 15.6347C54.4664 18.4277 56.7014 20.6147 59.5534 20.6147C62.4354 20.6147 64.6914 18.4117 64.6914 15.5987C64.6914 12.7957 62.4504 10.5997 59.5884 10.5997ZM59.5884 18.4527C58.0604 18.4527 56.9084 17.2247 56.9084 15.5977C56.9084 13.9637 58.0214 12.7777 59.5534 12.7777C61.0904 12.7777 62.2494 14.0057 62.2494 15.6337C62.2494 17.2677 61.1294 18.4527 59.5884 18.4527ZM70.8244 10.7947H68.4784V8.39766C68.4785 8.3773 68.4747 8.35712 68.467 8.33826C68.4593 8.31941 68.448 8.30225 68.4337 8.28776C68.4194 8.27327 68.4024 8.26175 68.3837 8.25384C68.3649 8.24593 68.3448 8.24179 68.3244 8.24166H66.1924C66.1511 8.24192 66.1116 8.25844 66.0824 8.28764C66.0532 8.31684 66.0367 8.35636 66.0364 8.39766V10.7947H65.0124C64.9921 10.7948 64.9719 10.7989 64.9532 10.8068C64.9344 10.8147 64.9174 10.8263 64.9031 10.8408C64.8888 10.8552 64.8775 10.8724 64.8698 10.8913C64.8622 10.9101 64.8583 10.9303 64.8584 10.9507V12.7817C64.8584 12.8677 64.9274 12.9377 65.0124 12.9377H66.0364V17.6777C66.0364 19.5917 66.9894 20.5627 68.8704 20.5627C69.6344 20.5627 70.2674 20.4047 70.8654 20.0657C70.8896 20.0524 70.9097 20.0329 70.9236 20.0091C70.9375 19.9853 70.9447 19.9582 70.9444 19.9307V18.1857C70.9442 18.1593 70.9373 18.1335 70.9244 18.1106C70.9114 18.0877 70.8929 18.0684 70.8704 18.0547C70.848 18.04 70.8221 18.0317 70.7954 18.0305C70.7686 18.0292 70.7421 18.0352 70.7184 18.0477C70.3322 18.2476 69.9033 18.3508 69.4684 18.3487C68.7854 18.3487 68.4784 18.0377 68.4784 17.3427V12.9387H70.8244C70.9094 12.9387 70.9784 12.8687 70.9784 12.7827V10.9527C70.9791 10.9322 70.9756 10.9119 70.9682 10.8929C70.9608 10.8738 70.9496 10.8565 70.9353 10.8419C70.921 10.8273 70.9039 10.8158 70.885 10.808C70.8661 10.8002 70.8458 10.7964 70.8254 10.7967L70.8244 10.7957V10.7947ZM78.9944 10.8047V10.5097C78.9944 9.64366 79.3264 9.25666 80.0704 9.25666C80.5144 9.25666 80.8714 9.34566 81.2714 9.47866C81.2948 9.48645 81.3197 9.48855 81.344 9.4848C81.3684 9.48104 81.3915 9.47154 81.4114 9.45707C81.4314 9.4426 81.4476 9.42358 81.4587 9.4016C81.4698 9.37961 81.4756 9.3553 81.4754 9.33066V7.53366C81.4759 7.50008 81.4655 7.46725 81.4456 7.44017C81.4258 7.41309 81.3976 7.39325 81.3654 7.38366C80.7916 7.20848 80.1943 7.12281 79.5944 7.12966C77.6274 7.12966 76.5864 8.23766 76.5864 10.3337V10.7837H75.5624C75.5208 10.7837 75.4808 10.8002 75.4514 10.8296C75.422 10.8591 75.4054 10.899 75.4054 10.9407V12.7807C75.4054 12.8667 75.4764 12.9367 75.5624 12.9367H76.5854V20.2457C76.5854 20.3327 76.6564 20.4017 76.7424 20.4017H78.8724C78.9594 20.4017 79.0284 20.3317 79.0284 20.2457V12.9377H81.0184L84.0664 20.2457C83.7204 21.0127 83.3794 21.1657 82.9164 21.1657C82.5404 21.1657 82.1434 21.0537 81.7404 20.8317C81.7024 20.8124 81.6585 20.8081 81.6174 20.8197C81.5971 20.8265 81.5784 20.8375 81.5626 20.852C81.5468 20.8665 81.5341 20.8841 81.5254 20.9037L80.8024 22.4887C80.7857 22.5245 80.7833 22.5654 80.7958 22.603C80.8082 22.6405 80.8346 22.6719 80.8694 22.6907C81.6234 23.0997 82.3034 23.2737 83.1444 23.2737C84.7174 23.2737 85.5884 22.5397 86.3544 20.5677L90.0504 11.0167C90.0602 10.9929 90.0637 10.967 90.0607 10.9415C90.0578 10.9159 90.0484 10.8916 90.0334 10.8707C90.0195 10.85 90.0007 10.8331 89.9788 10.8215C89.9568 10.8098 89.9323 10.8037 89.9074 10.8037H87.6884C87.656 10.8035 87.6243 10.8134 87.5978 10.832C87.5713 10.8507 87.5512 10.8771 87.5404 10.9077L85.2674 17.3977L82.7794 10.9037C82.7682 10.8742 82.7484 10.8489 82.7225 10.8311C82.6966 10.8132 82.6659 10.8036 82.6344 10.8037H78.9944V10.8047ZM74.2574 10.7947H72.1254C72.0841 10.7949 72.0446 10.8114 72.0154 10.8406C71.9862 10.8698 71.9697 10.9094 71.9694 10.9507V20.2467C71.9694 20.3337 72.0394 20.4027 72.1254 20.4027H74.2574C74.3424 20.4027 74.4134 20.3327 74.4134 20.2467V10.9517C74.4134 10.9312 74.4094 10.9109 74.4015 10.892C74.3937 10.873 74.3822 10.8558 74.3677 10.8413C74.3532 10.8269 74.336 10.8154 74.3171 10.8075C74.2982 10.7997 74.2779 10.7957 74.2574 10.7957V10.7947ZM73.2034 6.56166C73.0028 6.56153 72.804 6.60092 72.6186 6.67759C72.4332 6.75425 72.2646 6.86669 72.1227 7.00849C71.9807 7.15029 71.868 7.31866 71.7911 7.50399C71.7142 7.68933 71.6745 7.888 71.6744 8.08866C71.6743 8.28932 71.7137 8.48804 71.7903 8.67347C71.867 8.85891 71.9795 9.02743 72.1212 9.16941C72.263 9.31139 72.4314 9.42405 72.6167 9.50096C72.8021 9.57787 73.0008 9.61752 73.2014 9.61766C73.6067 9.61792 73.9954 9.45719 74.2822 9.17082C74.5689 8.88445 74.7301 8.49591 74.7304 8.09066C74.7307 7.68541 74.5699 7.29665 74.2836 7.0099C73.9972 6.72316 73.6087 6.56192 73.2034 6.56166ZM91.8704 13.7837C91.0274 13.7837 90.3704 13.1057 90.3704 12.2837C90.3704 11.4617 91.0364 10.7767 91.8784 10.7767C92.7214 10.7767 93.3784 11.4537 93.3784 12.2757C93.3784 13.0977 92.7134 13.7837 91.8704 13.7837ZM91.8784 10.9257C91.1104 10.9257 90.5284 11.5357 90.5284 12.2837C90.5284 13.0307 91.1064 13.6337 91.8704 13.6337C92.6394 13.6337 93.2204 13.0237 93.2204 12.2757C93.2231 12.0983 93.1903 11.9222 93.1239 11.7577C93.0575 11.5933 92.9589 11.4437 92.8338 11.3179C92.7088 11.1922 92.5598 11.0926 92.3957 11.0253C92.2317 10.9579 92.0558 10.924 91.8784 10.9257ZM92.2114 12.4297L92.6354 13.0237H92.2774L91.8954 12.4787H91.5674V13.0237H91.2674V11.4497H91.9694C92.3364 11.4497 92.5764 11.6367 92.5764 11.9517C92.5784 12.2097 92.4274 12.3667 92.2114 12.4297ZM91.9574 11.7197H91.5674V12.2167H91.9574C92.1524 12.2167 92.2684 12.1217 92.2684 11.9677C92.2684 11.8057 92.1514 11.7197 91.9574 11.7197Z" fill="#B9BEC7"/>
</g>
</g>
</g>
<defs>
<clipPath id="clip0_1_588">
<rect width="93" height="28" fill="white" transform="translate(0.93042)"/>
</clipPath>
<clipPath id="clip1_1_588">
<rect width="93" height="28" fill="white" transform="translate(0.93042)"/>
</clipPath>
</defs>
</svg>
