<svg width="70" height="20" viewBox="0 0 70 20" fill="none" xmlns="http://www.w3.org/2000/svg">
<g clip-path="url(#clip0_1_579)">
<path d="M9.17915 4.7015V18.8455H6.99915V4.7015H1.31915V2.6255H14.8632V4.7015H9.17915ZM17.4552 18.8455V2.6255H19.6352V18.8455H17.4552ZM35.0192 14.2505C35.0192 17.0015 33.1782 18.8425 29.0002 18.8425H23.4722V2.6255H28.8432C32.7602 2.6255 34.5002 4.3875 34.5002 6.9315C34.5002 8.5905 33.5402 9.81451 31.7202 10.5045C33.8922 11.0305 35.0192 12.4315 35.0192 14.2505ZM29.0252 4.6485H25.6772V9.73351H28.6872C31.0202 9.73351 32.2952 8.6965 32.2952 7.1135C32.2952 5.5305 31.1522 4.6485 29.0252 4.6485ZM28.8682 11.7345H25.6942V16.8195H29.2082C31.6202 16.8195 32.8162 15.9625 32.8162 14.2755C32.8162 12.4095 31.1522 11.7345 28.8682 11.7345ZM49.3982 5.59751C48.1009 4.68302 46.5503 4.19702 44.9632 4.2075C41.4332 4.2075 39.0512 6.6485 39.0512 10.6725C39.0512 14.6955 41.4322 17.2625 45.0052 17.2625C46.6657 17.234 48.2741 16.6775 49.5972 15.6735L49.9592 17.8815C48.4409 18.7721 46.7113 19.2383 44.9512 19.2315C40.1882 19.2315 36.8292 15.9365 36.8292 10.7735C36.8292 5.60951 40.2392 2.2385 44.9592 2.2385C46.7607 2.22657 48.5332 2.69239 50.0962 3.5885L49.3982 5.59751ZM63.4602 3.3815C63.2177 3.23513 62.9673 3.10226 62.7102 2.9835C60.5882 7.0495 56.7551 11.8835 51.6412 14.6335C51.925 15.2775 52.2965 15.8792 52.7452 16.4215C57.1282 13.3985 61.1852 8.3775 63.4602 3.3815Z" fill="#B9BEC7"/>
<path d="M62.5161 2.89061C61.4031 2.41595 60.2041 2.17628 58.9941 2.18661C54.2311 2.18661 50.8601 5.86661 50.8601 10.7106C50.8571 11.4866 50.9421 12.2606 51.1101 13.0166C55.9851 11.0296 60.3221 6.64761 62.5161 2.89061ZM63.6621 3.49261C61.1601 9.64561 58.1061 13.9976 54.2171 17.7406C55.632 18.6936 57.3055 19.1886 59.0111 19.1586C63.7741 19.1586 67.1451 15.4546 67.1451 10.6066C67.1281 7.39861 65.8001 4.90461 63.6621 3.49261ZM67.1281 2.95761C67.1195 2.67705 67.1672 2.3976 67.2686 2.13585C67.37 1.87409 67.5229 1.63537 67.7183 1.43385C67.9137 1.23232 68.1476 1.07209 68.4061 0.962676C68.6646 0.853257 68.9424 0.796875 69.2231 0.796875C69.5038 0.796875 69.7817 0.853257 70.0402 0.962676C70.2987 1.07209 70.5325 1.23232 70.7279 1.43385C70.9233 1.63537 71.0763 1.87409 71.1776 2.13585C71.279 2.3976 71.3268 2.67705 71.3181 2.95761C71.3268 3.23818 71.279 3.51763 71.1776 3.77938C71.0763 4.04113 70.9233 4.27985 70.7279 4.48138C70.5325 4.68291 70.2987 4.84313 70.0402 4.95255C69.7817 5.06197 69.5038 5.11835 69.2231 5.11835C68.9424 5.11835 68.6646 5.06197 68.4061 4.95255C68.1476 4.84313 67.9137 4.68291 67.7183 4.48138C67.5229 4.27985 67.37 4.04113 67.2686 3.77938C67.1672 3.51763 67.1195 3.23818 67.1281 2.95761ZM71.0791 2.95761C71.0603 2.47892 70.8569 2.02609 70.5117 1.69393C70.1665 1.36178 69.7061 1.17607 69.2271 1.17568C68.748 1.17529 68.2874 1.36026 67.9416 1.69185C67.5958 2.02345 67.3918 2.47595 67.3721 2.95461V2.95761C67.3736 3.44959 67.5704 3.92084 67.9193 4.26769C68.2682 4.61453 68.7406 4.80857 69.2326 4.80711C69.7246 4.80565 70.1958 4.60882 70.5427 4.25991C70.8895 3.911 71.0836 3.43859 71.0821 2.94661V2.95761H71.0791ZM68.4091 1.84761H69.3731C69.8411 1.84761 70.1911 2.07761 70.1911 2.52361C70.197 2.6723 70.1511 2.81842 70.0611 2.93699C69.9712 3.05555 69.8429 3.13919 69.6981 3.17361L70.2661 3.96661H69.7731L69.2611 3.21261H68.8231V3.96661H68.4251V1.83661L68.4091 1.84761ZM69.3361 2.90961C69.3881 2.91879 69.4415 2.91672 69.4927 2.90355C69.5438 2.89038 69.5916 2.86641 69.6327 2.83325C69.6738 2.80009 69.7073 2.75852 69.731 2.71132C69.7547 2.66412 69.7681 2.61239 69.7701 2.55961C69.7699 2.50651 69.7578 2.45411 69.7349 2.40622C69.7119 2.35832 69.6787 2.31611 69.6374 2.28263C69.5962 2.24915 69.5481 2.22524 69.4965 2.21261C69.4449 2.19999 69.3911 2.19896 69.3391 2.20961H68.8261V2.89561H69.3421L69.3361 2.90961Z" fill="#B9BEC7"/>
</g>
<defs>
<clipPath id="clip0_1_579">
<rect width="71" height="20" fill="white" transform="translate(0.819153)"/>
</clipPath>
</defs>
</svg>
