<svg width="119" height="30" viewBox="0 0 119 30" fill="none" xmlns="http://www.w3.org/2000/svg">
<path d="M89.0512 7.4621C89.0507 7.85509 88.8984 8.23271 88.6262 8.5161C88.4936 8.65496 88.3342 8.76549 88.1577 8.841C87.9811 8.91652 87.7912 8.95545 87.5992 8.95545C87.4072 8.95545 87.2172 8.91652 87.0406 8.841C86.8641 8.76549 86.7048 8.65496 86.5722 8.5161C86.2973 8.23441 86.1446 7.85568 86.1472 7.4621C86.1476 7.06911 86.2999 6.6915 86.5722 6.4081C86.7048 6.26924 86.8641 6.15872 87.0406 6.0832C87.2172 6.00768 87.4072 5.96875 87.5992 5.96875C87.7912 5.96875 87.9811 6.00768 88.1577 6.0832C88.3342 6.15872 88.4936 6.26924 88.6262 6.4081C88.901 6.68979 89.0538 7.06852 89.0512 7.4621ZM114.87 14.0051H111.174V17.7771H114.87V14.0051ZM41.5742 14.0051H37.8772V17.7771H41.5732V14.0051H41.5742ZM30.4892 14.0051H26.7932V17.7771H30.4892V14.0051ZM19.5722 14.0051H15.8772V17.7771H19.5732L19.5722 14.0051ZM8.26716 14.0051H4.57016V17.7771H8.26516V14.0051H8.26716Z" fill="#B9BEC7"/>
<path d="M13.4471 6.47894H13.8851C16.7171 6.47894 18.0371 7.99394 18.5891 12.0349L19.4661 11.9959L19.3481 5.58594H4.93814L4.79514 11.9959L5.63914 12.0349C5.78514 10.5199 5.96114 9.70394 6.34114 8.88794C7.01414 7.37294 8.41714 6.47894 10.1421 6.47894H10.7561V20.4259C10.7561 21.9019 10.6681 22.3679 10.3181 22.7179C10.0251 22.9899 9.44114 23.1069 8.76814 23.1069H8.09514V24.0389H16.1071V23.1069H15.4311C14.7621 23.1069 14.1731 22.9899 13.8851 22.7179C13.5351 22.3679 13.4471 21.9019 13.4471 20.4259V6.47894ZM51.5671 24.0389L56.2371 7.74694V20.5319C56.2371 21.9269 56.1571 22.4179 55.8411 22.7569C55.6031 23.0209 55.0521 23.1339 54.4411 23.1339H54.2041V24.0389H60.8041V23.1339H60.4601C59.8531 23.1339 59.2991 23.0209 59.0611 22.7569C58.7441 22.4169 58.6651 21.9269 58.6651 20.5319V9.63194C58.6651 8.23694 58.7451 7.70894 59.0611 7.36994C59.3251 7.14394 59.8531 6.99294 60.4611 6.99294H60.8041V6.12494H55.6821L51.8281 19.2869L48.0561 6.12494H42.9611V6.99294H43.4361C44.8361 6.99294 45.1001 7.29494 45.1001 9.10494V19.4749C45.1001 21.1349 45.0201 21.8149 44.7831 22.3049C44.5191 22.7949 43.9611 23.1349 43.3831 23.1349H42.9611V24.0389H48.3991V23.1339H48.0561C47.3701 23.1339 46.8161 22.8699 46.4951 22.3419C46.1821 21.8139 46.1031 21.3239 46.1031 19.4759V7.74694L50.7451 24.0389H51.5671ZM66.4791 11.2919C63.2061 11.2919 61.0681 13.8559 61.0681 17.8919C61.0681 21.7769 63.2061 24.4169 66.3971 24.4169C69.6171 24.4169 71.7551 21.7769 71.7551 17.8539C71.7551 13.9699 69.6171 11.2919 66.4791 11.2919ZM66.3741 12.1589C67.3211 12.1589 68.1391 12.7629 68.5871 13.7809C69.0101 14.7239 69.1951 16.0059 69.1951 17.8539C69.1951 21.6629 68.2711 23.5479 66.3971 23.5479C64.5261 23.5479 63.6241 21.6629 63.6241 17.8159C63.6241 16.0059 63.8131 14.7239 64.2351 13.7809C64.6551 12.8009 65.5031 12.1589 66.3741 12.1589ZM76.1411 5.93694L72.3931 6.12494V6.95494H72.5731C73.6831 6.95494 73.9231 7.33194 73.9231 9.10494V21.3609C73.9231 22.9449 73.8711 23.3609 73.6601 24.0389H74.5311C75.1871 22.9449 75.3491 22.7569 75.6141 22.7569C75.7421 22.7569 75.8701 22.7949 76.0591 22.9829C77.3561 24.0389 77.9101 24.2649 79.0991 24.2649C81.9451 24.2649 84.0051 21.5119 84.0051 17.5899C84.0051 13.8939 82.1001 11.4049 79.2531 11.4049C77.7751 11.4049 76.6961 12.1219 76.1411 13.4039V5.93694ZM78.8801 12.3469C80.5731 12.3469 81.4441 14.1579 81.4441 17.7029C81.4441 21.4369 80.5461 23.3599 78.8301 23.3599C76.9301 23.3599 75.9301 21.3989 75.9301 17.8159C75.9301 16.0059 76.1681 14.7619 76.7221 13.8189C77.2201 12.9139 78.0691 12.3479 78.8791 12.3479L78.8801 12.3469ZM88.8891 11.4809L85.0381 11.7069V12.5369H85.3281C86.4331 12.5369 86.6711 12.9139 86.6711 14.6489V21.0219C86.6711 22.7569 86.4341 23.1719 85.3281 23.1719H84.9101V24.0389H90.6581V23.1719H90.2421C89.1301 23.1719 88.8891 22.7949 88.8891 21.0219V11.4809ZM95.5671 5.93694L91.7171 6.12494V6.95494H92.0041C93.1121 6.95494 93.3501 7.33194 93.3501 9.10494V21.0209C93.3501 22.7939 93.1121 23.1709 92.0041 23.1709H91.5851V24.0379H97.3361V23.1709H96.9141C95.8011 23.1709 95.5671 22.7929 95.5671 21.0209V5.93694ZM107.84 17.7789C107.711 13.7809 105.81 11.2919 102.937 11.2919C100.161 11.2919 98.1581 14.0069 98.1581 17.7789C98.1581 21.8139 100.135 24.4159 103.197 24.4159C105.177 24.4159 106.55 23.3599 107.685 21.0219L106.893 20.6069C105.969 22.5679 105.045 23.3599 103.619 23.3599C101.534 23.3599 100.64 21.7009 100.613 17.7789H107.84ZM100.64 16.8359C100.663 14.0069 101.583 12.2349 103.065 12.2349C104.543 12.2349 105.414 13.9699 105.388 16.8349L100.64 16.8359ZM116.256 10.9849C116.479 10.9849 116.697 11.0419 116.909 11.1559C117.122 11.2709 117.287 11.4349 117.406 11.6469C117.525 11.8599 117.584 12.0819 117.584 12.3139C117.584 12.5429 117.525 12.7629 117.408 12.9739C117.292 13.1849 117.128 13.3489 116.917 13.4659C116.716 13.5802 116.488 13.6403 116.256 13.6403C116.024 13.6403 115.797 13.5802 115.595 13.4659C115.387 13.3525 115.217 13.1817 115.103 12.9739C114.988 12.773 114.927 12.5456 114.926 12.3139C114.926 12.0819 114.986 11.8599 115.105 11.6469C115.224 11.4339 115.39 11.2699 115.602 11.1569C115.816 11.0419 116.033 10.9849 116.256 10.9849ZM116.256 11.2049C116.07 11.2049 115.888 11.2529 115.712 11.3489C115.537 11.4425 115.393 11.585 115.298 11.7589C115.198 11.9359 115.148 12.1219 115.148 12.3139C115.149 12.6073 115.266 12.8883 115.474 13.0955C115.682 13.3028 115.963 13.4194 116.256 13.4199C116.447 13.4199 116.631 13.3699 116.807 13.2729C116.982 13.1749 117.119 13.0379 117.216 12.8629C117.311 12.6944 117.361 12.5042 117.361 12.3107C117.36 12.1172 117.31 11.9271 117.214 11.7589C117.118 11.585 116.974 11.4425 116.799 11.3489C116.633 11.2561 116.446 11.2059 116.256 11.2049ZM115.673 13.0469V11.6169H116.166C116.289 11.6116 116.412 11.6251 116.53 11.6569C116.604 11.6815 116.667 11.7301 116.71 11.7949C116.76 11.8679 116.783 11.956 116.775 12.0441C116.766 12.1321 116.728 12.2145 116.665 12.2769C116.586 12.3562 116.48 12.4027 116.368 12.4069C116.418 12.4289 116.459 12.4539 116.489 12.4829C116.547 12.5399 116.618 12.6339 116.701 12.7669L116.875 13.0469H116.592L116.465 12.8209C116.365 12.6449 116.285 12.5339 116.225 12.4889C116.183 12.4559 116.121 12.4389 116.04 12.4389H115.904V13.0469H115.673ZM115.904 12.2429H116.186C116.32 12.2429 116.411 12.2229 116.46 12.1829C116.484 12.1639 116.503 12.1395 116.516 12.1117C116.529 12.0839 116.535 12.0535 116.534 12.0229C116.534 11.9824 116.522 11.9428 116.498 11.9099C116.474 11.8752 116.44 11.8487 116.4 11.8339C116.325 11.8135 116.246 11.8054 116.168 11.8099H115.904V12.2429Z" fill="#B9BEC7"/>
</svg>
