<svg width="33" height="33" viewBox="0 0 33 33" fill="none" xmlns="http://www.w3.org/2000/svg">
<g clip-path="url(#clip0_276_513)">
<path d="M5.83341 21.8333C7.30617 21.8333 8.50008 20.6394 8.50008 19.1667C8.50008 17.6939 7.30617 16.5 5.83341 16.5C4.36066 16.5 3.16675 17.6939 3.16675 19.1667C3.16675 20.6394 4.36066 21.8333 5.83341 21.8333Z" fill="white"/>
<path d="M2.12667 23.9413C1.14 24.368 0.5 25.328 0.5 26.408V28.5013H6.5V26.3546C6.5 25.248 6.80667 24.208 7.34 23.3013C6.84667 23.2213 6.35333 23.168 5.83333 23.168C4.51333 23.168 3.26 23.448 2.12667 23.9413Z" fill="white"/>
<path d="M27.1667 21.8333C28.6394 21.8333 29.8333 20.6394 29.8333 19.1667C29.8333 17.6939 28.6394 16.5 27.1667 16.5C25.6939 16.5 24.5 17.6939 24.5 19.1667C24.5 20.6394 25.6939 21.8333 27.1667 21.8333Z" fill="white"/>
<path d="M30.8732 23.9413C29.7399 23.448 28.4866 23.168 27.1666 23.168C26.6466 23.168 26.1532 23.2213 25.6599 23.3013C26.1932 24.208 26.4999 25.248 26.4999 26.3546V28.5013H32.4999V26.408C32.4999 25.328 31.8599 24.368 30.8732 23.9413Z" fill="white"/>
<path d="M22.1533 22.7C20.5933 22.0067 18.6733 21.5 16.5 21.5C14.3267 21.5 12.4067 22.02 10.8467 22.7C9.40667 23.34 8.5 24.78 8.5 26.3533V28.5H24.5V26.3533C24.5 24.78 23.5933 23.34 22.1533 22.7Z" fill="white"/>
<path d="M12.5 16.5C12.5 18.7133 14.2867 20.5 16.5 20.5C18.7133 20.5 20.5 18.7133 20.5 16.5C20.5 14.2867 18.7133 12.5 16.5 12.5C14.2867 12.5 12.5 14.2867 12.5 16.5Z" fill="white"/>
<path d="M3.80667 14.9813C3.39333 13.968 3.16667 12.9813 3.16667 11.968C3.16667 8.52797 5.86 5.83464 9.3 5.83464C12.8733 5.83464 14.3933 8.15464 16.5 10.6213C18.5933 8.1813 20.1 5.83464 23.7 5.83464C27.14 5.83464 29.8333 8.52797 29.8333 11.968C29.8333 12.9813 29.6067 13.968 29.1933 14.9813C30.06 15.3946 30.7667 16.0746 31.2333 16.9013C32.0333 15.3013 32.5 13.6746 32.5 11.968C32.5 7.03464 28.6333 3.16797 23.7 3.16797C20.9133 3.16797 18.2467 4.4613 16.5 6.51464C14.7533 4.4613 12.0867 3.16797 9.3 3.16797C4.36667 3.16797 0.5 7.03464 0.5 11.968C0.5 13.6746 0.966667 15.3013 1.78 16.9013C2.24667 16.0746 2.95333 15.3946 3.80667 14.9813Z" fill="white"/>
</g>
<defs>
<clipPath id="clip0_276_513">
<rect width="32" height="32" fill="white" transform="translate(0.5 0.5)"/>
</clipPath>
</defs>
</svg>
