<svg width="33" height="33" viewBox="0 0 33 33" fill="none" xmlns="http://www.w3.org/2000/svg">
<g clip-path="url(#clip0_276_503)">
<path d="M22.4734 14.3809C21.9534 14.9009 21.0867 14.9009 20.5667 14.3809L14.6067 8.43426L5.20674 17.8209L4.32674 16.9809C2.76674 15.4209 2.76674 12.8876 4.32674 11.3276L9.98007 5.67426C11.5401 4.11426 14.0734 4.11426 15.6334 5.67426L22.4734 12.5009C22.9934 13.0209 22.9934 13.8609 22.4734 14.3809ZM23.4067 11.5543C24.4467 12.5943 24.4467 14.2876 23.4067 15.3276C21.7134 17.0209 19.9267 15.6209 19.6334 15.3276L14.6201 10.3143L7.19341 17.7409C6.67341 18.2609 6.67341 19.1009 7.19341 19.6209C7.71341 20.1409 8.55341 20.1409 9.08674 19.6209L15.2467 13.4609L16.1934 14.4076L10.0334 20.5676C9.51341 21.0876 9.51341 21.9276 10.0334 22.4476C10.5534 22.9676 11.3934 22.9676 11.9267 22.4476L18.0867 16.2876L19.0334 17.2343L12.8734 23.3943C12.3534 23.9143 12.3534 24.7543 12.8734 25.2743C13.3934 25.7943 14.2334 25.7943 14.7534 25.2743L20.9134 19.1143L21.8601 20.0609L15.7001 26.2209C15.1801 26.7409 15.1801 27.5809 15.7001 28.1009C16.2201 28.6209 17.0601 28.6209 17.5801 28.1009L28.6734 16.9809C30.2334 15.4209 30.2334 12.8876 28.6734 11.3276L23.0201 5.67426C21.4867 4.14093 19.0067 4.11426 17.4467 5.59426L23.4067 11.5543Z" fill="white"/>
</g>
<defs>
<clipPath id="clip0_276_503">
<rect width="32" height="32" fill="white" transform="translate(0.5 0.5)"/>
</clipPath>
</defs>
</svg>
