<svg width="33" height="33" viewBox="0 0 33 33" fill="none" xmlns="http://www.w3.org/2000/svg">
<path d="M9.83333 23.1667H12.5V9.83333H9.83333V23.1667ZM20.5 20.5H23.1667V9.83333H20.5V20.5ZM15.1667 16.5H17.8333V9.83333H15.1667V16.5ZM7.16667 28.5C6.43333 28.5 5.80556 28.2389 5.28333 27.7167C4.76111 27.1944 4.5 26.5667 4.5 25.8333V7.16667C4.5 6.43333 4.76111 5.80556 5.28333 5.28333C5.80556 4.76111 6.43333 4.5 7.16667 4.5H25.8333C26.5667 4.5 27.1944 4.76111 27.7167 5.28333C28.2389 5.80556 28.5 6.43333 28.5 7.16667V25.8333C28.5 26.5667 28.2389 27.1944 27.7167 27.7167C27.1944 28.2389 26.5667 28.5 25.8333 28.5H7.16667ZM7.16667 25.8333H25.8333V7.16667H7.16667V25.8333Z" fill="white"/>
</svg>
