<svg width="33" height="33" viewBox="0 0 33 33" fill="none" xmlns="http://www.w3.org/2000/svg">
<path d="M8.0334 13.8658L10.6334 14.9658C10.9445 14.3436 11.2667 13.7436 11.6001 13.1658C11.9334 12.5881 12.3001 12.0103 12.7001 11.4325L10.8334 11.0658L8.0334 13.8658ZM12.7667 16.6325L16.5667 20.3992C17.5001 20.0436 18.5001 19.4992 19.5667 18.7658C20.6334 18.0325 21.6334 17.1992 22.5667 16.2658C24.1223 14.7103 25.339 12.9825 26.2167 11.0825C27.0945 9.1825 27.4778 7.4325 27.3667 5.8325C25.7667 5.72139 24.0112 6.10472 22.1001 6.9825C20.189 7.86027 18.4556 9.07694 16.9001 10.6325C15.9667 11.5658 15.1334 12.5658 14.4001 13.6325C13.6667 14.6992 13.1223 15.6992 12.7667 16.6325ZM18.7001 14.4658C18.189 13.9547 17.9334 13.3269 17.9334 12.5825C17.9334 11.8381 18.189 11.2103 18.7001 10.6992C19.2112 10.1881 19.8445 9.9325 20.6001 9.9325C21.3556 9.9325 21.989 10.1881 22.5001 10.6992C23.0112 11.2103 23.2667 11.8381 23.2667 12.5825C23.2667 13.3269 23.0112 13.9547 22.5001 14.4658C21.989 14.9769 21.3556 15.2325 20.6001 15.2325C19.8445 15.2325 19.2112 14.9769 18.7001 14.4658ZM19.3334 25.1658L22.1334 22.3658L21.7667 20.4992C21.189 20.8992 20.6112 21.2603 20.0334 21.5825C19.4556 21.9047 18.8556 22.2214 18.2334 22.5325L19.3334 25.1658ZM29.7667 3.39916C30.189 6.08805 29.9278 8.70472 28.9834 11.2492C28.039 13.7936 26.4112 16.2214 24.1001 18.5325L24.7667 21.8325C24.8556 22.2769 24.8334 22.7103 24.7001 23.1325C24.5667 23.5547 24.3445 23.9214 24.0334 24.2325L18.4334 29.8325L15.6334 23.2658L9.9334 17.5658L3.36673 14.7658L8.9334 9.16583C9.24451 8.85472 9.61673 8.6325 10.0501 8.49916C10.4834 8.36583 10.9223 8.34361 11.3667 8.4325L14.6667 9.09916C16.9778 6.78805 19.4001 5.15472 21.9334 4.19916C24.4667 3.24361 27.0778 2.97694 29.7667 3.39916ZM5.7334 21.7992C6.51118 21.0214 7.46118 20.6269 8.5834 20.6158C9.70562 20.6047 10.6556 20.9881 11.4334 21.7658C12.2112 22.5436 12.5945 23.4936 12.5834 24.6158C12.5723 25.7381 12.1778 26.6881 11.4001 27.4658C10.8445 28.0214 9.91673 28.4992 8.61673 28.8992C7.31673 29.2992 5.52229 29.6547 3.2334 29.9658C3.54451 27.6769 3.90007 25.8825 4.30007 24.5825C4.70007 23.2825 5.17784 22.3547 5.7334 21.7992ZM7.6334 23.6658C7.41118 23.8881 7.18895 24.2936 6.96673 24.8825C6.74451 25.4714 6.58895 26.0658 6.50007 26.6658C7.10007 26.5769 7.69451 26.4269 8.2834 26.2158C8.87229 26.0047 9.27784 25.7881 9.50007 25.5658C9.76673 25.2992 9.91118 24.9769 9.9334 24.5992C9.95562 24.2214 9.8334 23.8992 9.56673 23.6325C9.30007 23.3658 8.97784 23.2381 8.60007 23.2492C8.22229 23.2603 7.90007 23.3992 7.6334 23.6658Z" fill="white"/>
</svg>
