<svg width="38" height="38" viewBox="0 0 38 38" fill="none" xmlns="http://www.w3.org/2000/svg">
<rect width="38" height="38" rx="19" fill="#218448" fill-opacity="0.4"/>
<path d="M27.1462 24.7702L25.667 23.291V18.9993H21.3753L18.042 15.666H25.667V13.9993H16.3753L14.7087 12.3327H25.667C26.1253 12.3327 26.5177 12.4959 26.8441 12.8223C27.1705 13.1487 27.3337 13.541 27.3337 13.9993V23.9993C27.3337 24.1382 27.3198 24.2737 27.292 24.4056C27.2642 24.5375 27.2156 24.6591 27.1462 24.7702ZM16.6253 18.9993H12.3337V23.9993H21.6253L16.6253 18.9993ZM26.042 28.416L23.292 25.666H12.3337C11.8753 25.666 11.483 25.5028 11.1566 25.1764C10.8302 24.85 10.667 24.4577 10.667 23.9993V13.9993C10.667 13.541 10.8302 13.1487 11.1566 12.8223C11.483 12.4959 11.8753 12.3327 12.3337 12.3327L14.0003 13.9993H12.3337V15.666H13.292L9.54199 11.916L10.7295 10.7285L27.2295 27.2285L26.042 28.416Z" fill="#218448"/>
</svg>
